<svg width="31" height="29" viewBox="0 0 31 29" fill="none" xmlns="http://www.w3.org/2000/svg">
<path d="M26.9188 8.93758L23.6083 5.62716C23.7104 5.01466 23.8708 4.44591 24.075 3.95008C24.1917 3.68758 24.25 3.4105 24.25 3.10425C24.25 1.89383 23.2729 0.916748 22.0625 0.916748C19.6708 0.916748 17.5563 2.06883 16.2292 3.83341H8.93751C4.50417 3.83341 0.916672 7.42091 0.916672 11.8542C0.916672 16.2876 4.56251 28.6251 4.56251 28.6251H12.5833V25.7084H15.5V28.6251H23.5208L25.9708 20.473L30.0833 19.1022V8.93758H26.9188ZM16.9583 11.1251H9.66667V8.20841H16.9583V11.1251ZM21.3333 14.0417C20.5313 14.0417 19.875 13.3855 19.875 12.5834C19.875 11.7813 20.5313 11.1251 21.3333 11.1251C22.1354 11.1251 22.7917 11.7813 22.7917 12.5834C22.7917 13.3855 22.1354 14.0417 21.3333 14.0417Z" fill="#CED2D9"/>
</svg>
