<svg width="252" height="277" viewBox="0 0 252 277" fill="none" xmlns="http://www.w3.org/2000/svg">
<path opacity="0.5" d="M168.043 75.339C147.592 68.6927 125.554 68.6927 105.094 75.339C104.34 75.5877 103.569 75.0303 103.569 74.2413V44.5431C103.569 44.0371 103.894 43.5912 104.366 43.4283C125.272 36.4647 147.866 36.4647 168.772 43.4283C169.252 43.5912 169.569 44.0371 169.569 44.5431V74.2413C169.569 75.0303 168.797 75.5877 168.043 75.339Z" fill="#2564F4"/>
<path d="M104.34 75.0045V45.3149C104.34 44.809 104.666 44.363 105.137 44.2001C126.034 37.2365 148.62 37.2365 169.517 44.1915C169.406 43.8399 169.132 43.5483 168.772 43.4283C147.866 36.4647 125.272 36.4647 104.366 43.4283C103.886 43.5912 103.569 44.0371 103.569 44.5431V74.2413C103.569 74.7816 103.929 75.2018 104.392 75.339C104.366 75.2361 104.34 75.1246 104.34 75.0045Z" fill="url(#paint0_linear_84_1093)"/>
<path d="M165.72 49.8258C157.123 46.8843 148.217 45.1606 139.269 44.6546V42.605C148.226 43.111 157.123 44.8347 165.72 47.7762V49.8258Z" fill="url(#paint1_linear_84_1093)"/>
<path d="M165.72 54.6969C157.123 51.7554 148.217 50.0317 139.269 49.5257V47.4761C148.226 47.982 157.123 49.7058 165.72 52.6473V54.6969Z" fill="url(#paint2_linear_84_1093)"/>
<path d="M165.72 59.5768C157.123 56.6353 148.217 54.9116 139.269 54.4056V52.356C148.226 52.8619 157.123 54.5857 165.72 57.5272V59.5768Z" fill="url(#paint3_linear_84_1093)"/>
<path d="M165.72 64.4474C157.123 61.5059 148.217 59.7822 139.269 59.2762V57.2266C148.226 57.7325 157.123 59.4563 165.72 62.3978V64.4474Z" fill="url(#paint4_linear_84_1093)"/>
<path d="M151.774 65.6571C147.634 64.8853 143.46 64.3879 139.269 64.1478V62.0981C143.452 62.3297 147.626 62.8357 151.757 63.5989L151.774 65.6571Z" fill="url(#paint5_linear_84_1093)"/>
<path d="M109.483 49.9889C118.08 47.0474 126.986 45.3237 135.934 44.8177V42.7681C126.977 43.274 118.08 44.9978 109.483 47.9393V49.9889Z" fill="url(#paint6_linear_84_1093)"/>
<path d="M109.483 54.8683C118.08 51.9268 126.986 50.2031 135.934 49.6971V47.6475C126.977 48.1534 118.08 49.8772 109.483 52.8187V54.8683Z" fill="url(#paint7_linear_84_1093)"/>
<path d="M109.483 59.7394C118.08 56.7979 126.986 55.0742 135.934 54.5682V52.5186C126.977 53.0245 118.08 54.7483 109.483 57.6898V59.7394Z" fill="url(#paint8_linear_84_1093)"/>
<path d="M131.726 177.195L124.791 180.462C124.106 180.788 123.549 181.32 123.189 181.989C122.597 183.095 122.666 184.441 123.36 185.479C124.74 186.86 126.797 187.34 128.64 186.697C130.706 185.985 132.78 185.273 134.846 184.561C136.406 184.03 137.931 183.455 139.551 183.155C141.54 182.786 144.403 183.438 145.243 181.165C145.44 180.642 145.954 175.737 145.509 175.591C145.491 175.582 137.931 173.061 137.931 173.061L131.726 177.195Z" fill="#97B2F8"/>
<path d="M141.814 179.055C139.397 179.055 138.06 177.109 138.034 174.682L137.177 141.999L138.146 110.577C138.369 108.15 142.414 106.367 144.823 106.581C147.249 106.804 152.82 112.104 152.597 114.531L145.371 142.359L145.594 174.605C145.62 177.04 144.291 179.038 141.857 179.055C141.84 179.055 141.823 179.055 141.814 179.055Z" fill="#0246AF"/>
<path d="M154.183 185.136L146.614 194.398C146.117 195.015 145.706 195.701 145.397 196.439L145.114 197.116C144.669 198.171 144.926 199.389 145.749 200.186L146.134 200.555C146.957 201.336 148.166 201.541 149.194 201.061L150.274 200.564C151.32 200.083 152.254 199.389 153.026 198.531C155.854 195.933 158.546 193.343 161.443 190.804C162.051 190.264 162.343 189.449 162.206 188.643L161.709 185.788L154.183 185.136Z" fill="#97B2F8"/>
<path d="M140.631 118.235C139.577 118.133 138.617 117.438 138.24 116.374L131.854 98.6568C130.08 93.7257 131.074 88.1771 134.443 84.1722L144.506 72.2088C145.517 71.0082 147.309 70.8624 148.5 71.8658C149.7 72.8778 149.854 74.6615 148.843 75.8622L138.78 87.8255C136.706 90.2867 136.097 93.6999 137.186 96.7272L143.571 114.445C144.103 115.92 143.34 117.541 141.866 118.072C141.454 118.227 141.034 118.278 140.631 118.235Z" fill="#BFCEEF"/>
<path d="M135.814 89.6181C135.163 89.6181 134.503 89.4294 133.929 89.0263C132.411 87.9801 132.034 85.9047 133.071 84.3954L141.943 71.523C142.98 70.0051 145.054 69.6192 146.571 70.6654C148.089 71.7117 148.466 73.7871 147.429 75.2964L138.566 88.1687C137.914 89.1207 136.877 89.6181 135.814 89.6181Z" fill="#0246AF"/>
<path d="M158.126 188.823C155.734 188.823 154.406 186.911 154.346 184.51L151.037 144.375L147.892 126.614L139.372 115.397L147.42 108.013C147.48 105.577 155.812 108.716 158.246 108.759C160.68 108.828 164.494 117.781 164.426 120.225L160.492 145.644L161.906 184.304C161.966 186.739 160.663 188.763 158.229 188.815C158.194 188.823 158.16 188.823 158.126 188.823Z" fill="#0246AF"/>
<path d="M159.557 74.7133C163.603 77.046 166.089 81.3682 166.089 86.0334L165.72 88.0573C164.289 95.9557 163.774 103.991 164.186 112.001L164.829 124.522C156.96 128.149 141.849 121.898 137.709 114.428L138.471 93.7603L137.751 80.6135C137.323 72.8009 145.526 67.4839 152.477 71.06L159.557 74.7133Z" fill="url(#paint9_linear_84_1093)"/>
<path d="M149.589 78.598H149.854C151.689 78.598 154.44 75.0218 154.44 73.1866V67.6723C154.44 66.5575 153.531 65.6484 152.417 65.6484H149.829C148.714 65.6484 147.806 66.5575 147.806 67.6723V73.1866C147.806 75.0218 147.763 78.598 149.589 78.598Z" fill="#D5E0FC"/>
<path d="M146.477 71.9174L156.163 69.9793C156.78 69.8592 157.183 69.2503 157.063 68.6329L154.252 54.5342L140.443 57.2956L142.886 69.5248C143.212 71.1713 144.823 72.2433 146.477 71.9174Z" fill="#D5E0FC"/>
<path d="M150.317 59.7312C151.38 60.1428 152.28 61.3777 152.537 62.3982C152.743 63.2044 152.477 63.5303 152.091 64.2335C151.877 64.6365 151.706 65.0996 151.826 65.537C151.843 65.5885 151.86 65.6399 151.894 65.6742C151.937 65.7085 151.989 65.7257 152.049 65.7343C152.503 65.7943 152.88 65.3998 153.163 65.0396C153.591 64.4822 154.174 63.9762 154.817 64.5679C155.511 65.2025 155.066 65.9143 154.791 66.5747C154.466 67.3722 154.08 69.1217 154.954 69.7477C155.657 70.2537 157.2 69.5934 157.834 69.1989C157.929 69.1389 158.023 69.0703 158.117 69.0016C160.003 67.5266 159.72 64.6108 160.003 62.5011C160.243 60.7774 159.797 59.3195 159.566 57.6558C159.334 56.035 159.386 54.5428 158.194 53.2392C157.106 52.0472 155.057 51.6441 153.857 52.7333C153.197 51.8842 152.126 51.4383 151.054 51.3097C149.983 51.181 148.911 51.3268 147.84 51.4812C145.774 51.7728 144.386 52.3559 142.689 53.4879C141.891 54.0196 141.274 54.7829 140.589 55.4432C139.92 56.095 139.937 56.944 140.126 57.8359C140.34 58.8478 140.794 59.7826 141.257 60.7002C141.36 60.6145 141.403 60.4773 141.437 60.3486C141.72 59.4396 141.729 58.6592 142.414 57.9302C143.049 57.2442 143.64 57.3899 144.497 57.6987C144.746 57.7844 144.986 57.8959 145.183 58.0589C145.723 58.4962 145.577 59.1995 146.211 59.6111C146.717 59.937 147.369 59.9198 147.96 59.8169C148.551 59.714 149.143 59.5339 149.743 59.5854C149.94 59.6197 150.129 59.6625 150.317 59.7312Z" fill="#2564F4"/>
<path d="M117.463 63.6846L148.731 61.7808C149.211 62.2267 149.117 63.8647 148.731 64.3964L122.726 73.0923L117.463 63.6846Z" fill="url(#paint10_linear_84_1093)"/>
<path d="M119.829 64.0962C117.72 62.8785 115.989 63.8733 115.989 66.3088C115.989 68.7443 117.712 71.7373 119.829 72.9551C121.937 74.1728 123.669 73.178 123.669 70.7425C123.66 68.307 121.937 65.3226 119.829 64.0962Z" fill="#0246AF"/>
<path d="M119.829 65.357C118.32 64.4822 117.086 65.2026 117.086 66.9435C117.086 68.6844 118.32 70.8284 119.829 71.7031C121.337 72.5778 122.572 71.8575 122.572 70.1166C122.572 68.3757 121.337 66.2317 119.829 65.357Z" fill="url(#paint11_linear_84_1093)"/>
<path d="M163.954 82.4145C163.337 80.9738 161.666 80.3134 160.234 80.9309L149.811 85.4075C148.44 85.9992 146.914 85.8963 145.629 85.1331C144.343 84.3698 143.529 83.0749 143.383 81.5655L142.097 69.2077L143.289 63.2132C143.331 63.016 143.203 62.8187 142.997 62.7758L142.2 62.6129C142.003 62.57 141.806 62.6986 141.763 62.9045L141.549 64.0022C141.351 62.4843 139.98 61.3951 138.446 61.5409C136.886 61.7039 135.754 63.1017 135.917 64.6539L137.734 82.1144C138.043 85.4332 139.869 88.3061 142.731 90.0042C144.36 90.9732 146.16 91.4621 147.969 91.4621C149.349 91.4621 150.729 91.1791 152.049 90.613L162.471 86.1365C163.903 85.5276 164.571 83.8553 163.954 82.4145Z" fill="#D5E0FC"/>
<path d="M150.926 91.3503C149.631 91.3503 148.406 90.5956 147.866 89.335C147.137 87.6455 147.917 85.6902 149.614 84.9613L160.037 80.4847C161.726 79.7557 163.689 80.5447 164.409 82.2342C165.137 83.9236 164.357 85.8875 162.66 86.6078L152.237 91.0844C151.817 91.2645 151.363 91.3503 150.926 91.3503Z" fill="#0246AF"/>
<path opacity="0.5" d="M65.2887 82.251C65.2887 82.251 62.3744 72.183 78.7887 67.6807V124.11C78.7887 124.11 64.0287 125.096 65.083 134.632L65.2887 82.251Z" fill="#2564F4"/>
<path opacity="0.5" d="M119.897 113.287C119.897 113.287 73.0287 101.101 65.0916 80.4414V136.605C73.0373 157.264 119.897 169.45 119.897 169.45V113.287Z" fill="#2564F4"/>
<path d="M119.897 131.442C117.137 133.432 114.411 135.516 111.171 136.373C105.823 137.788 99.6686 135.147 97.0029 130.293C96.0172 128.501 95.3743 126.348 93.6515 125.233C91.1315 123.613 87.78 125.096 85.4143 126.931C83.0486 128.767 80.6743 131.082 77.6829 131.159C74.46 131.245 71.7943 128.672 70.0543 125.954C68.4343 123.415 67.2 120.56 65.0829 118.458V136.596C73.0286 157.256 119.889 169.442 119.889 169.442V131.442H119.897Z" fill="url(#paint12_linear_84_1093)"/>
<path d="M65.0916 80.4414V82.654C74.683 102.387 119.212 113.973 119.212 113.973V169.261C119.64 169.382 119.897 169.45 119.897 169.45V113.287C119.897 113.287 73.0287 101.101 65.0916 80.4414Z" fill="url(#paint13_linear_84_1093)"/>
<path opacity="0.5" d="M209.897 73.2637C209.897 73.2637 212.752 63.4014 196.663 58.9849V114.291C196.663 114.291 211.132 115.26 210.094 124.607L209.897 73.2637Z" fill="#2564F4"/>
<path opacity="0.5" d="M156.377 103.682C156.377 103.682 202.311 91.7359 210.094 71.4883V126.528C202.311 146.784 156.377 158.722 156.377 158.722V103.682Z" fill="#2564F4"/>
<path d="M168.36 108.905C168.36 108.905 204.043 99.6259 210.094 83.8892V86.9765C205.363 100.466 168.36 111.469 168.36 111.469V108.905Z" fill="url(#paint14_linear_84_1093)"/>
<path d="M168.36 117.515C168.36 117.515 204.043 108.236 210.094 92.4995V95.5868C205.363 109.077 168.36 120.079 168.36 120.079V117.515Z" fill="url(#paint15_linear_84_1093)"/>
<path d="M168.36 126.125C168.36 126.125 204.043 116.846 210.094 101.109V104.197C205.363 117.686 168.36 128.689 168.36 128.689V126.125Z" fill="url(#paint16_linear_84_1093)"/>
<path d="M168.36 134.735C168.36 134.735 204.043 125.456 210.094 109.72V112.807C205.363 126.297 168.36 137.3 168.36 137.3V134.735Z" fill="url(#paint17_linear_84_1093)"/>
<path d="M168.36 143.345C168.36 143.345 204.043 134.066 210.094 118.33V121.417C205.363 134.907 168.36 145.91 168.36 145.91V143.345Z" fill="url(#paint18_linear_84_1093)"/>
<path d="M210.094 71.4883V73.658C200.691 92.9965 157.046 104.351 157.046 104.351V158.542C156.626 158.662 156.377 158.722 156.377 158.722V103.682C156.377 103.682 202.303 91.7359 210.094 71.4883Z" fill="url(#paint19_linear_84_1093)"/>
<g opacity="0.2">
<path opacity="0.2" d="M64.8086 162.135C66.6 163.173 68.04 165.677 68.04 167.735L67.9543 197.519C67.9457 199.577 66.4971 200.409 64.7057 199.371L26.1343 178.069C24.3514 177.04 22.9028 174.527 22.9028 172.469L22.9885 142.685C22.9971 140.627 24.4543 139.795 26.2371 140.833L64.8086 162.135Z" fill="#2564F4"/>
</g>
<g opacity="0.5">
<path opacity="0.5" d="M138.84 203.762C140.091 204.483 141.094 206.232 141.094 207.664L141 240.741C141 242.174 139.98 242.757 138.729 242.036L88.6458 213.102C87.4029 212.381 86.3915 210.632 86.3915 209.2L86.4858 176.122C86.4858 174.69 87.5058 174.107 88.7572 174.827L138.84 203.762Z" fill="#2564F4"/>
</g>
<path d="M130.08 208.779C131.331 209.5 132.334 211.249 132.334 212.682L132.24 245.759C132.24 247.191 131.22 247.774 129.969 247.054L79.8858 218.119C78.6429 217.398 77.6315 215.649 77.6315 214.217L77.7258 181.14C77.7258 179.707 78.7458 179.124 79.9972 179.845L130.08 208.779Z" fill="#2564F4"/>
<path d="M98.2286 207.913L88.0029 193.875C87.9857 193.858 87.9771 193.84 87.96 193.823C87.9514 193.806 87.9343 193.798 87.9257 193.78L87.9171 193.772C87.9086 193.763 87.9 193.755 87.8829 193.746L87.8743 193.737C87.8657 193.729 87.8486 193.72 87.84 193.712H87.8314C87.8143 193.703 87.8057 193.695 87.7886 193.695H87.78C87.7714 193.695 87.7543 193.686 87.7457 193.686H87.7371C87.7286 193.686 87.7114 193.686 87.7029 193.686H87.6943C87.6771 193.686 87.6686 193.686 87.6514 193.686L85.5686 194.106C85.4486 194.132 85.38 194.261 85.38 194.449V210.778C85.38 210.966 85.4486 211.172 85.5686 211.335L87.6514 214.234C87.7114 214.32 87.78 214.38 87.84 214.414C87.9086 214.448 87.9686 214.465 88.0286 214.448L98.2543 212.09C98.2714 212.09 98.28 212.081 98.2886 212.073C98.2971 212.064 98.3057 212.064 98.3229 212.055L98.3314 212.047C98.34 212.038 98.3486 212.03 98.3571 212.021L98.3657 212.013C98.3743 212.004 98.3829 211.987 98.3914 211.978C98.4 211.961 98.4086 211.953 98.4086 211.935C98.4086 211.935 98.4086 211.927 98.4171 211.927C98.4171 211.918 98.4257 211.901 98.4257 211.884C98.4257 211.875 98.4257 211.875 98.4257 211.867C98.4257 211.85 98.4343 211.833 98.4343 211.815C98.4343 211.815 98.4343 211.815 98.4343 211.807C98.4343 211.79 98.4343 211.764 98.4343 211.747V208.505C98.4257 208.291 98.3486 208.076 98.2286 207.913ZM86.1171 195.152L87.4457 194.887V206.97C87.4457 207.159 87.5143 207.365 87.6343 207.527C87.6943 207.613 87.7629 207.673 87.8229 207.708C87.8829 207.742 87.9514 207.759 88.0029 207.75L91.9114 206.979L93.1543 208.711L86.1086 210.34V195.152H86.1171ZM90.2657 206.104V204.697L91.1657 205.932L90.2657 206.104ZM87.8229 213.256L86.5286 211.455L94.0886 209.706C94.2 209.68 94.2771 209.551 94.2771 209.363C94.2771 209.174 94.2086 208.968 94.0886 208.805L92.1943 206.172C92.1686 206.121 92.1429 206.078 92.1086 206.035L90.2572 203.505V201.404L97.2943 211.086L87.8229 213.256ZM97.6714 210.383L90.0771 199.929C89.9571 199.766 89.82 199.689 89.7 199.715C89.58 199.741 89.5114 199.869 89.5114 200.058V203.368C89.5114 203.385 89.5114 203.402 89.5114 203.42V206.258L88.1914 206.515V195.333L97.6629 208.342V210.383H97.6714Z" fill="url(#paint20_linear_84_1093)"/>
<path d="M106.834 212.553C106.723 212.338 106.603 212.15 106.457 211.978C106.311 211.807 106.157 211.678 105.994 211.584L101.623 209.054V214.577L105.994 217.106C106.157 217.201 106.311 217.244 106.457 217.244C106.603 217.244 106.731 217.201 106.834 217.106C106.946 217.021 107.031 216.892 107.091 216.729C107.151 216.566 107.186 216.369 107.186 216.137V213.925C107.186 213.702 107.151 213.47 107.091 213.23C107.031 212.99 106.946 212.758 106.834 212.553ZM106.389 215.674C106.389 215.829 106.354 215.932 106.269 215.992C106.191 216.052 106.097 216.052 105.986 215.992L102.403 213.925V210.615L105.986 212.681C106.097 212.741 106.191 212.853 106.269 213.007C106.346 213.162 106.389 213.316 106.389 213.462V215.674Z" fill="white"/>
<path d="M109.2 213.556C109.054 213.556 108.926 213.608 108.823 213.693C108.711 213.779 108.626 213.908 108.566 214.071C108.506 214.234 108.471 214.431 108.471 214.662V216.875C108.471 217.098 108.506 217.33 108.566 217.57C108.626 217.81 108.711 218.033 108.823 218.247C108.934 218.462 109.063 218.65 109.2 218.822C109.346 218.993 109.5 219.122 109.663 219.225L114.034 221.755V220.64L109.663 218.11C109.551 218.05 109.457 217.938 109.38 217.793C109.303 217.647 109.26 217.492 109.26 217.338V216.789L114.034 219.551V218.444L109.26 215.683V215.134C109.26 214.98 109.303 214.877 109.38 214.808C109.457 214.748 109.551 214.748 109.663 214.808L114.034 217.338V216.232L109.663 213.702C109.5 213.599 109.337 213.556 109.2 213.556Z" fill="white"/>
<path d="M120.531 220.469C120.429 220.254 120.3 220.066 120.154 219.894C120.009 219.723 119.854 219.594 119.691 219.5L115.32 216.97V222.493L116.117 222.956V221.301L119.117 223.033L119.914 225.151L120.866 225.7L120.034 223.487C120.163 223.513 120.274 223.505 120.377 223.462C120.48 223.419 120.566 223.35 120.643 223.256C120.72 223.161 120.78 223.041 120.823 222.896C120.866 222.75 120.883 222.587 120.883 222.398V221.849C120.883 221.626 120.849 221.386 120.789 221.155C120.72 220.906 120.634 220.683 120.531 220.469ZM120.086 221.935C120.086 222.09 120.051 222.192 119.966 222.261C119.889 222.321 119.794 222.321 119.683 222.261L116.1 220.194V218.539L119.683 220.606C119.794 220.666 119.889 220.777 119.966 220.932C120.043 221.086 120.086 221.24 120.086 221.386V221.935Z" fill="white"/>
<path d="M122.151 220.923V226.446L122.949 226.909V221.377L122.151 220.923Z" fill="white"/>
<path d="M130.269 203.197C133.517 205.075 136.131 209.611 136.123 213.342C136.114 217.072 133.474 218.582 130.226 216.704C126.986 214.834 124.363 210.289 124.371 206.558C124.38 202.828 127.02 201.327 130.269 203.197Z" fill="url(#paint21_linear_84_1093)"/>
<path d="M131.589 208.033C131.674 208.085 131.76 208.136 131.854 208.205C132.429 208.599 133.089 209.585 133.166 210.786V211.172C133.089 212.235 132.36 213.179 130.234 213.659C128.117 210.726 127.397 208.942 127.329 207.793V207.407C127.414 206.301 128.074 206.078 128.649 206.344C128.743 206.387 128.829 206.438 128.914 206.481C129.574 206.867 129.891 207.373 130.251 208.085C130.611 207.793 130.929 207.647 131.589 208.033Z" fill="#2564F4"/>
<g opacity="0.5">
<path opacity="0.5" d="M56.4772 94.9346C58.2686 95.9723 59.7086 98.4764 59.7086 100.535L59.6229 130.319C59.6143 132.377 58.1657 133.209 56.3743 132.171L30.4629 117.206C28.68 116.177 27.2314 113.664 27.2314 111.606L27.3172 81.8221C27.3257 79.7639 28.7829 78.9321 30.5657 79.9698L56.4772 94.9346Z" fill="#2564F4"/>
</g>
<path d="M49.1315 99.1541C50.9229 100.192 52.3629 102.696 52.3629 104.754L52.2772 134.538C52.2686 136.596 50.82 137.428 49.0286 136.39L23.1172 121.434C21.3343 120.405 19.8857 117.892 19.8857 115.834L19.9715 86.0502C19.98 83.992 21.4372 83.1601 23.22 84.1978L49.1315 99.1541Z" fill="#2564F4"/>
<path d="M34.5943 99.4715C34.6372 99.5486 34.6715 99.6344 34.7143 99.7116C36.3258 102.473 37.9458 105.243 39.5658 108.004C39.6086 108.073 39.6601 108.142 39.6943 108.193C38.9315 108.785 38.1943 109.351 37.4486 109.925C36.3943 108.107 35.3229 106.272 34.2429 104.428C32.9401 105.44 31.6715 106.426 30.4029 107.413C29.7515 106.298 29.1258 105.226 28.4829 104.102C28.5172 104.085 28.5858 104.068 28.6372 104.025C30.5658 102.542 32.4943 101.058 34.4229 99.5744C34.4658 99.5401 34.5086 99.4972 34.5515 99.4629C34.5686 99.4629 34.5858 99.4715 34.5943 99.4715Z" fill="url(#paint22_linear_84_1093)"/>
<path d="M24.7286 106.992C24.78 106.967 24.84 106.95 24.8914 106.907C25.5 106.435 26.1171 105.972 26.7257 105.5C26.7771 105.466 26.8114 105.406 26.8457 105.372C27.4886 106.469 28.1057 107.533 28.7143 108.57C27.9943 109.128 27.2571 109.694 26.5029 110.268C26.4857 110.243 26.4429 110.174 26.4 110.105C25.8771 109.214 25.3543 108.322 24.8314 107.43C24.7971 107.37 24.7457 107.31 24.7114 107.241C24.72 107.164 24.7286 107.078 24.7286 106.992Z" fill="url(#paint23_linear_84_1093)"/>
<path d="M39.0428 116.675C37.0371 118.227 35.0143 119.788 33 121.348C31.3028 118.441 29.6057 115.525 27.9171 112.627C28.6371 112.069 29.3743 111.495 30.12 110.912C31.1828 112.738 32.2543 114.574 33.3257 116.417C34.62 115.414 35.8971 114.428 37.1657 113.45C37.8171 114.556 38.4343 115.62 39.0428 116.675Z" fill="url(#paint24_linear_84_1093)"/>
<path d="M31.7314 109.668C32.4686 109.094 33.2143 108.519 33.9514 107.953C34.5772 109.034 35.2114 110.114 35.8286 111.186C35.1 111.744 34.3543 112.327 33.6086 112.901C32.9829 111.829 32.3572 110.749 31.7314 109.668Z" fill="url(#paint25_linear_84_1093)"/>
<path d="M41.0314 110.568C41.6486 111.623 42.2657 112.678 42.8657 113.716C42.1457 114.273 41.4086 114.848 40.6714 115.414C40.0714 114.385 39.4457 113.313 38.8372 112.266C39.5572 111.7 40.3029 111.134 41.0314 110.568Z" fill="url(#paint26_linear_84_1093)"/>
<path opacity="0.5" d="M214.911 137.96C216.454 137.068 217.714 137.788 217.723 139.564L217.92 210.143C217.929 211.918 216.677 214.088 215.134 214.98L176.1 237.526C174.557 238.417 173.297 237.706 173.289 235.922L173.091 165.343C173.083 163.567 174.334 161.398 175.877 160.506L214.911 137.96Z" fill="#2564F4"/>
<path d="M224.606 140.584C225.017 140.344 225.454 140.241 225.883 140.25C227.16 140.267 228.326 141.296 228.326 142.728L228.523 211.944C228.531 213.882 227.16 216.257 225.489 217.218L186.806 239.566C185.211 240.484 183.9 239.738 183.891 237.894L183.694 167.744C183.686 165.806 185.057 163.43 186.729 162.47L224.606 140.584Z" fill="#E9EEFF"/>
<path d="M229.603 141.536L225.806 140.267L222.849 141.63L225.806 142.796L229.603 141.536Z" fill="#E9EEFF"/>
<path d="M184.037 239.035L186.634 241.273L186.566 239.035H184.037Z" fill="url(#paint27_linear_84_1093)"/>
<path d="M227.554 141.596C229.097 140.704 230.357 141.425 230.366 143.2L230.563 213.779C230.571 215.554 229.32 217.724 227.777 218.616L188.743 241.162C187.2 242.054 185.94 241.342 185.931 239.558L185.734 168.979C185.726 167.204 186.977 165.034 188.52 164.142L227.554 141.596Z" fill="url(#paint28_linear_84_1093)"/>
<path d="M225.026 161.706C225.617 161.363 226.097 161.638 226.097 162.315C226.097 162.993 225.626 163.825 225.026 164.168L205.74 175.308C205.149 175.651 204.669 175.376 204.669 174.699C204.669 174.021 205.14 173.19 205.74 172.847L225.026 161.706Z" fill="#97B2F8"/>
<path d="M215.571 205.598C216.163 205.255 216.643 205.529 216.651 206.206C216.651 206.884 216.171 207.716 215.58 208.059L205.86 213.676C205.269 214.019 204.789 213.745 204.789 213.067C204.789 212.39 205.26 211.558 205.86 211.215L215.571 205.598Z" fill="#97B2F8"/>
<path d="M225.12 194.081C225.711 193.737 226.191 194.012 226.191 194.689C226.191 195.367 225.72 196.199 225.12 196.542L205.834 207.682C205.243 208.025 204.763 207.75 204.763 207.073C204.763 206.395 205.234 205.564 205.826 205.221L225.12 194.081Z" fill="#97B2F8"/>
<path d="M225.103 188.086C225.694 187.743 226.174 188.017 226.174 188.695C226.174 189.372 225.703 190.204 225.103 190.547L205.817 201.687C205.226 202.03 204.746 201.756 204.746 201.078C204.746 200.401 205.217 199.569 205.817 199.226L225.103 188.086Z" fill="#97B2F8"/>
<path d="M215.503 179.227C216.094 178.884 216.574 179.158 216.583 179.836C216.583 180.513 216.103 181.345 215.512 181.688L205.792 187.305C205.2 187.648 204.72 187.374 204.72 186.697C204.72 186.019 205.192 185.187 205.792 184.844L215.503 179.227Z" fill="#97B2F8"/>
<path d="M225.043 167.701C225.634 167.358 226.114 167.633 226.114 168.31C226.114 168.987 225.643 169.819 225.043 170.162L205.757 181.302C205.166 181.645 204.686 181.371 204.686 180.694C204.686 180.016 205.157 179.184 205.757 178.841L225.043 167.701Z" fill="#97B2F8"/>
<path d="M195.977 177.023L195.986 179.038C196.44 178.85 196.843 178.764 197.203 178.781C197.563 178.798 197.863 178.918 198.111 179.133C198.36 179.347 198.557 179.664 198.686 180.085C198.814 180.496 198.883 181.011 198.883 181.628L196.963 182.734C196.963 182.349 196.92 182.031 196.843 181.765C196.766 181.508 196.654 181.311 196.509 181.182C196.363 181.054 196.191 180.985 195.977 180.994C195.771 180.994 195.54 181.071 195.283 181.225C195 181.388 194.76 181.577 194.563 181.783C194.366 181.988 194.194 182.211 194.057 182.451C193.92 182.692 193.826 182.94 193.766 183.206C193.706 183.472 193.671 183.729 193.671 184.004C193.671 184.261 193.706 184.475 193.766 184.647C193.826 184.818 193.937 184.947 194.091 185.033C194.246 185.119 194.443 185.17 194.7 185.179C194.949 185.187 195.266 185.161 195.634 185.101C196.149 185.016 196.611 184.973 197.023 184.981C197.434 184.99 197.777 185.067 198.069 185.221C198.36 185.376 198.574 185.625 198.729 185.95C198.883 186.285 198.96 186.731 198.969 187.297C198.969 187.829 198.9 188.36 198.746 188.866C198.6 189.381 198.394 189.861 198.12 190.324C197.854 190.787 197.529 191.225 197.143 191.636C196.757 192.039 196.329 192.408 195.857 192.734L195.866 194.518L194.597 195.247L194.589 193.471C194.169 193.66 193.757 193.78 193.363 193.832C192.969 193.883 192.626 193.823 192.317 193.669C192.017 193.514 191.769 193.231 191.589 192.828C191.4 192.425 191.314 191.868 191.306 191.156L193.234 190.041C193.234 190.513 193.294 190.864 193.406 191.113C193.517 191.362 193.671 191.516 193.851 191.593C194.031 191.671 194.237 191.679 194.469 191.628C194.7 191.576 194.931 191.473 195.163 191.345C195.771 190.993 196.226 190.564 196.543 190.041C196.86 189.527 197.014 188.986 197.014 188.429C197.014 188.172 196.98 187.957 196.911 187.786C196.843 187.614 196.731 187.477 196.577 187.391C196.423 187.305 196.226 187.254 195.977 187.245C195.737 187.228 195.437 187.263 195.086 187.323C194.58 187.417 194.117 187.46 193.697 187.46C193.286 187.451 192.926 187.374 192.634 187.228C192.343 187.074 192.12 186.825 191.957 186.499C191.794 186.173 191.717 185.719 191.717 185.153C191.717 184.638 191.786 184.132 191.923 183.626C192.06 183.12 192.257 182.64 192.523 182.177C192.78 181.714 193.097 181.277 193.457 180.874C193.826 180.47 194.237 180.102 194.691 179.776L194.683 177.786L195.977 177.023Z" fill="#97B2F8"/>
<path d="M15.48 146.141L15.3257 146.355C15.0343 146.75 14.8715 147.239 14.8715 147.728V176.877C14.8715 178.112 15.7457 179.621 16.8086 180.239L53.9486 201.627C54.4457 201.918 55.0286 202.021 55.5943 201.927L55.6715 201.91C56.8543 201.713 57.7286 200.683 57.7286 199.483V169.913C57.7286 168.678 56.8543 167.169 55.7829 166.56L18.78 145.446C17.6572 144.803 16.2429 145.103 15.48 146.141Z" fill="#E9EEFF"/>
<path d="M16.8172 146.407C15.7457 145.798 14.8715 146.304 14.8715 147.539V176.731C14.8715 177.966 15.7457 179.475 16.8086 180.093L54 201.575C55.0629 202.193 55.9372 201.687 55.9372 200.452V171.037C55.9372 169.802 55.0629 168.292 53.9915 167.683L16.8172 146.407Z" fill="url(#paint29_linear_84_1093)"/>
<path d="M39.6857 169.553C40.3971 170.745 41.1685 172.032 41.9057 173.258C37.7228 175.282 33.5143 177.314 29.3485 179.33C28.62 178.121 27.8485 176.826 27.1285 175.616C31.2685 173.627 35.4771 171.586 39.6857 169.553Z" fill="#2564F4"/>
<path d="M43.2087 175.428C43.9372 176.654 44.7172 177.94 45.4458 179.158C41.2715 181.174 37.063 183.206 32.9058 185.221C32.1944 184.029 31.4144 182.726 30.6772 181.482C34.7915 179.501 38.9915 177.469 43.2087 175.428Z" fill="#2564F4"/>
<path d="M38.3486 167.409C35.7601 168.661 33.1372 169.931 30.5315 171.183C29.7858 169.931 29.0144 168.644 28.2772 167.426C30.8658 166.174 33.4972 164.905 36.0944 163.645C36.8144 164.837 37.5772 166.123 38.3486 167.409Z" fill="#2564F4"/>
<path d="M23.5972 169.639C24.54 169.185 25.5686 168.687 26.5629 168.207C27.3 169.433 28.0715 170.72 28.8 171.938C27.84 172.409 26.8115 172.907 25.8429 173.37C25.1229 172.195 24.3429 170.891 23.5972 169.639Z" fill="#2564F4"/>
<path d="M196.474 201.413L193.243 212.724L197.452 219.293L200.683 207.973L196.474 201.413ZM197.957 211.18L193.954 212.175L193.929 211.695L196.997 210.434L199.929 207.87L199.954 208.35L197.957 211.18Z" fill="#97B2F8"/>
<defs>
<linearGradient id="paint0_linear_84_1093" x1="103.569" y1="56.7723" x2="169.517" y2="56.7723" gradientUnits="userSpaceOnUse">
<stop stop-color="#E9EEFF"/>
<stop offset="0.2026" stop-color="#F4F7FF"/>
<stop offset="0.5018" stop-color="#FCFDFF"/>
<stop offset="1" stop-color="white"/>
</linearGradient>
<linearGradient id="paint1_linear_84_1093" x1="139.269" y1="46.2154" x2="165.72" y2="46.2154" gradientUnits="userSpaceOnUse">
<stop stop-color="#E9EEFF"/>
<stop offset="0.2026" stop-color="#F4F7FF"/>
<stop offset="0.5018" stop-color="#FCFDFF"/>
<stop offset="1" stop-color="white"/>
</linearGradient>
<linearGradient id="paint2_linear_84_1093" x1="139.269" y1="51.0865" x2="165.72" y2="51.0865" gradientUnits="userSpaceOnUse">
<stop stop-color="#E9EEFF"/>
<stop offset="0.2026" stop-color="#F4F7FF"/>
<stop offset="0.5018" stop-color="#FCFDFF"/>
<stop offset="1" stop-color="white"/>
</linearGradient>
<linearGradient id="paint3_linear_84_1093" x1="139.269" y1="55.9664" x2="165.72" y2="55.9664" gradientUnits="userSpaceOnUse">
<stop stop-color="#E9EEFF"/>
<stop offset="0.2026" stop-color="#F4F7FF"/>
<stop offset="0.5018" stop-color="#FCFDFF"/>
<stop offset="1" stop-color="white"/>
</linearGradient>
<linearGradient id="paint4_linear_84_1093" x1="139.269" y1="60.837" x2="165.72" y2="60.837" gradientUnits="userSpaceOnUse">
<stop stop-color="#E9EEFF"/>
<stop offset="0.2026" stop-color="#F4F7FF"/>
<stop offset="0.5018" stop-color="#FCFDFF"/>
<stop offset="1" stop-color="white"/>
</linearGradient>
<linearGradient id="paint5_linear_84_1093" x1="139.269" y1="63.8776" x2="151.774" y2="63.8776" gradientUnits="userSpaceOnUse">
<stop stop-color="#E9EEFF"/>
<stop offset="0.2026" stop-color="#F4F7FF"/>
<stop offset="0.5018" stop-color="#FCFDFF"/>
<stop offset="1" stop-color="white"/>
</linearGradient>
<linearGradient id="paint6_linear_84_1093" x1="135.934" y1="46.3785" x2="109.483" y2="46.3785" gradientUnits="userSpaceOnUse">
<stop stop-color="#E9EEFF"/>
<stop offset="0.2026" stop-color="#F4F7FF"/>
<stop offset="0.5018" stop-color="#FCFDFF"/>
<stop offset="1" stop-color="white"/>
</linearGradient>
<linearGradient id="paint7_linear_84_1093" x1="135.934" y1="51.2579" x2="109.483" y2="51.2579" gradientUnits="userSpaceOnUse">
<stop stop-color="#E9EEFF"/>
<stop offset="0.2026" stop-color="#F4F7FF"/>
<stop offset="0.5018" stop-color="#FCFDFF"/>
<stop offset="1" stop-color="white"/>
</linearGradient>
<linearGradient id="paint8_linear_84_1093" x1="135.934" y1="56.129" x2="109.483" y2="56.129" gradientUnits="userSpaceOnUse">
<stop stop-color="#E9EEFF"/>
<stop offset="0.2026" stop-color="#F4F7FF"/>
<stop offset="0.5018" stop-color="#FCFDFF"/>
<stop offset="1" stop-color="white"/>
</linearGradient>
<linearGradient id="paint9_linear_84_1093" x1="137.709" y1="97.7525" x2="166.089" y2="97.7525" gradientUnits="userSpaceOnUse">
<stop stop-color="white"/>
<stop offset="0.4982" stop-color="#FCFDFF"/>
<stop offset="0.7974" stop-color="#F4F7FF"/>
<stop offset="1" stop-color="#E9EEFF"/>
</linearGradient>
<linearGradient id="paint10_linear_84_1093" x1="117.463" y1="67.4365" x2="149.057" y2="67.4365" gradientUnits="userSpaceOnUse">
<stop stop-color="white"/>
<stop offset="0.4982" stop-color="#FCFDFF"/>
<stop offset="0.7974" stop-color="#F4F7FF"/>
<stop offset="1" stop-color="#E9EEFF"/>
</linearGradient>
<linearGradient id="paint11_linear_84_1093" x1="117.079" y1="68.53" x2="122.571" y2="68.53" gradientUnits="userSpaceOnUse">
<stop stop-color="white"/>
<stop offset="0.4982" stop-color="#FCFDFF"/>
<stop offset="0.7974" stop-color="#F4F7FF"/>
<stop offset="1" stop-color="#E9EEFF"/>
</linearGradient>
<linearGradient id="paint12_linear_84_1093" x1="65.0829" y1="143.95" x2="119.897" y2="143.95" gradientUnits="userSpaceOnUse">
<stop stop-color="#E9EEFF"/>
<stop offset="0.2026" stop-color="#F4F7FF"/>
<stop offset="0.5018" stop-color="#FCFDFF"/>
<stop offset="1" stop-color="white"/>
</linearGradient>
<linearGradient id="paint13_linear_84_1093" x1="65.0916" y1="124.946" x2="119.897" y2="124.946" gradientUnits="userSpaceOnUse">
<stop stop-color="#E9EEFF"/>
<stop offset="0.2026" stop-color="#F4F7FF"/>
<stop offset="0.5018" stop-color="#FCFDFF"/>
<stop offset="1" stop-color="white"/>
</linearGradient>
<linearGradient id="paint14_linear_84_1093" x1="168.36" y1="97.6791" x2="210.094" y2="97.6791" gradientUnits="userSpaceOnUse">
<stop stop-color="#E9EEFF"/>
<stop offset="0.2026" stop-color="#F4F7FF"/>
<stop offset="0.5018" stop-color="#FCFDFF"/>
<stop offset="1" stop-color="white"/>
</linearGradient>
<linearGradient id="paint15_linear_84_1093" x1="168.36" y1="106.289" x2="210.094" y2="106.289" gradientUnits="userSpaceOnUse">
<stop stop-color="#E9EEFF"/>
<stop offset="0.2026" stop-color="#F4F7FF"/>
<stop offset="0.5018" stop-color="#FCFDFF"/>
<stop offset="1" stop-color="white"/>
</linearGradient>
<linearGradient id="paint16_linear_84_1093" x1="168.36" y1="114.899" x2="210.094" y2="114.899" gradientUnits="userSpaceOnUse">
<stop stop-color="#E9EEFF"/>
<stop offset="0.2026" stop-color="#F4F7FF"/>
<stop offset="0.5018" stop-color="#FCFDFF"/>
<stop offset="1" stop-color="white"/>
</linearGradient>
<linearGradient id="paint17_linear_84_1093" x1="168.36" y1="123.51" x2="210.094" y2="123.51" gradientUnits="userSpaceOnUse">
<stop stop-color="#E9EEFF"/>
<stop offset="0.2026" stop-color="#F4F7FF"/>
<stop offset="0.5018" stop-color="#FCFDFF"/>
<stop offset="1" stop-color="white"/>
</linearGradient>
<linearGradient id="paint18_linear_84_1093" x1="168.36" y1="132.12" x2="210.094" y2="132.12" gradientUnits="userSpaceOnUse">
<stop stop-color="#E9EEFF"/>
<stop offset="0.2026" stop-color="#F4F7FF"/>
<stop offset="0.5018" stop-color="#FCFDFF"/>
<stop offset="1" stop-color="white"/>
</linearGradient>
<linearGradient id="paint19_linear_84_1093" x1="156.377" y1="115.105" x2="210.094" y2="115.105" gradientUnits="userSpaceOnUse">
<stop stop-color="#E9EEFF"/>
<stop offset="0.2026" stop-color="#F4F7FF"/>
<stop offset="0.5018" stop-color="#FCFDFF"/>
<stop offset="1" stop-color="white"/>
</linearGradient>
<linearGradient id="paint20_linear_84_1093" x1="85.3656" y1="204.07" x2="98.4199" y2="204.07" gradientUnits="userSpaceOnUse">
<stop stop-color="#E9EEFF"/>
<stop offset="0.2026" stop-color="#F4F7FF"/>
<stop offset="0.5018" stop-color="#FCFDFF"/>
<stop offset="1" stop-color="white"/>
</linearGradient>
<linearGradient id="paint21_linear_84_1093" x1="130.247" y1="202.393" x2="130.247" y2="217.511" gradientUnits="userSpaceOnUse">
<stop stop-color="white"/>
<stop offset="0.4982" stop-color="#FCFDFF"/>
<stop offset="0.7974" stop-color="#F4F7FF"/>
<stop offset="1" stop-color="#E9EEFF"/>
</linearGradient>
<linearGradient id="paint22_linear_84_1093" x1="28.4829" y1="104.694" x2="39.6943" y2="104.694" gradientUnits="userSpaceOnUse">
<stop stop-color="white"/>
<stop offset="0.7261" stop-color="#F0F3FF"/>
<stop offset="1" stop-color="#E9EEFF"/>
</linearGradient>
<linearGradient id="paint23_linear_84_1093" x1="24.7114" y1="107.82" x2="28.7143" y2="107.82" gradientUnits="userSpaceOnUse">
<stop stop-color="white"/>
<stop offset="0.7261" stop-color="#F0F3FF"/>
<stop offset="1" stop-color="#E9EEFF"/>
</linearGradient>
<linearGradient id="paint24_linear_84_1093" x1="27.9171" y1="116.13" x2="39.0428" y2="116.13" gradientUnits="userSpaceOnUse">
<stop stop-color="white"/>
<stop offset="0.7261" stop-color="#F0F3FF"/>
<stop offset="1" stop-color="#E9EEFF"/>
</linearGradient>
<linearGradient id="paint25_linear_84_1093" x1="31.7314" y1="110.427" x2="35.8286" y2="110.427" gradientUnits="userSpaceOnUse">
<stop stop-color="white"/>
<stop offset="0.7261" stop-color="#F0F3FF"/>
<stop offset="1" stop-color="#E9EEFF"/>
</linearGradient>
<linearGradient id="paint26_linear_84_1093" x1="38.8372" y1="112.991" x2="42.8657" y2="112.991" gradientUnits="userSpaceOnUse">
<stop stop-color="white"/>
<stop offset="0.7261" stop-color="#F0F3FF"/>
<stop offset="1" stop-color="#E9EEFF"/>
</linearGradient>
<linearGradient id="paint27_linear_84_1093" x1="184.037" y1="240.154" x2="186.634" y2="240.154" gradientUnits="userSpaceOnUse">
<stop stop-color="white"/>
<stop offset="0.4982" stop-color="#FCFDFF"/>
<stop offset="0.7974" stop-color="#F4F7FF"/>
<stop offset="1" stop-color="#E9EEFF"/>
</linearGradient>
<linearGradient id="paint28_linear_84_1093" x1="208.149" y1="241.546" x2="208.149" y2="141.213" gradientUnits="userSpaceOnUse">
<stop stop-color="white"/>
<stop offset="0.4982" stop-color="#FCFDFF"/>
<stop offset="0.7974" stop-color="#F4F7FF"/>
<stop offset="1" stop-color="#E9EEFF"/>
</linearGradient>
<linearGradient id="paint29_linear_84_1093" x1="55.5029" y1="201.993" x2="15.0242" y2="145.444" gradientUnits="userSpaceOnUse">
<stop stop-color="white"/>
<stop offset="0.4982" stop-color="#FCFDFF"/>
<stop offset="0.7974" stop-color="#F4F7FF"/>
<stop offset="1" stop-color="#E9EEFF"/>
</linearGradient>
</defs>
</svg>
