<svg width="28" height="12" viewBox="0 0 28 12" fill="none" xmlns="http://www.w3.org/2000/svg">
<path d="M0 2C0 0.895431 0.895431 0 2 0H26C27.1046 0 28 0.895431 28 2V10C28 11.1046 27.1046 12 26 12H0V2Z" fill="#CD7A37"/>
<path d="M7.64 5.35C7.6 5.37 7.6 5.39 7.64 5.41C8.32 5.73 8.66 6.28 8.66 7.06C8.66 7.69333 8.44667 8.17667 8.02 8.51C7.6 8.83667 7.05 9 6.37 9H3.85C3.81667 9 3.78667 8.99 3.76 8.97C3.74 8.94333 3.73 8.91333 3.73 8.88V2.12C3.73 2.08667 3.74 2.06 3.76 2.04C3.78667 2.01333 3.81667 2 3.85 2H6.29C7.01667 2 7.57667 2.15667 7.97 2.47C8.36333 2.78333 8.56 3.25667 8.56 3.89C8.56 4.59 8.25333 5.07667 7.64 5.35ZM4.94 3C4.90667 3 4.89 3.01667 4.89 3.05V4.9C4.89 4.93333 4.90667 4.95 4.94 4.95H6.29C6.64333 4.95 6.92 4.86667 7.12 4.7C7.32667 4.52667 7.43 4.29 7.43 3.99C7.43 3.68333 7.32667 3.44333 7.12 3.27C6.92 3.09 6.64333 3 6.29 3H4.94ZM6.37 7.99C6.71667 7.99 6.99 7.89667 7.19 7.71C7.39667 7.52333 7.5 7.27 7.5 6.95C7.5 6.62333 7.39667 6.37 7.19 6.19C6.98333 6.00333 6.70333 5.91 6.35 5.91H4.94C4.90667 5.91 4.89 5.92667 4.89 5.96V7.94C4.89 7.97333 4.90667 7.99 4.94 7.99H6.37ZM14.1507 5.87C14.1774 6.03667 14.1907 6.22333 14.1907 6.43L14.1807 6.74C14.1807 6.82 14.1407 6.86 14.0607 6.86H10.9307C10.8974 6.86 10.8807 6.87667 10.8807 6.91C10.9007 7.13 10.9307 7.28 10.9707 7.36C11.1307 7.84 11.5207 8.08333 12.1407 8.09C12.594 8.09 12.954 7.90333 13.2207 7.53C13.2474 7.49 13.2807 7.47 13.3207 7.47C13.3474 7.47 13.3707 7.48 13.3907 7.5L14.0107 8.01C14.0707 8.05667 14.0807 8.11 14.0407 8.17C13.834 8.46333 13.5574 8.69 13.2107 8.85C12.8707 9.01 12.4907 9.09 12.0707 9.09C11.5507 9.09 11.1074 8.97333 10.7407 8.74C10.3807 8.50667 10.1174 8.18 9.9507 7.76C9.79737 7.4 9.7207 6.9 9.7207 6.26C9.7207 5.87333 9.7607 5.56 9.8407 5.32C9.97404 4.85333 10.224 4.48667 10.5907 4.22C10.964 3.94667 11.4107 3.81 11.9307 3.81C13.244 3.81 13.984 4.49667 14.1507 5.87ZM11.9307 4.81C11.684 4.81 11.4774 4.87333 11.3107 5C11.1507 5.12 11.0374 5.29 10.9707 5.51C10.9307 5.62333 10.904 5.77 10.8907 5.95C10.8774 5.98333 10.8907 6 10.9307 6H12.9607C12.994 6 13.0107 5.98333 13.0107 5.95C12.9974 5.78333 12.9774 5.65667 12.9507 5.57C12.8907 5.33 12.7707 5.14333 12.5907 5.01C12.4174 4.87667 12.1974 4.81 11.9307 4.81ZM17.8632 4.71C17.8632 4.74333 17.8499 4.77333 17.8232 4.8C17.8032 4.82 17.7765 4.83 17.7432 4.83H16.7232C16.6899 4.83 16.6732 4.84667 16.6732 4.88V7.29C16.6732 7.54333 16.7265 7.72667 16.8332 7.84C16.9465 7.95333 17.1232 8.01 17.3632 8.01H17.6632C17.6965 8.01 17.7232 8.02333 17.7432 8.05C17.7699 8.07 17.7832 8.09667 17.7832 8.13V8.88C17.7832 8.95333 17.7432 8.99667 17.6632 9.01L17.1432 9.02C16.6165 9.02 16.2232 8.93 15.9632 8.75C15.7032 8.57 15.5699 8.23 15.5632 7.73V4.88C15.5632 4.84667 15.5465 4.83 15.5132 4.83H14.9432C14.9099 4.83 14.8799 4.82 14.8532 4.8C14.8332 4.77333 14.8232 4.74333 14.8232 4.71V4.01C14.8232 3.97667 14.8332 3.95 14.8532 3.93C14.8799 3.90333 14.9099 3.89 14.9432 3.89H15.5132C15.5465 3.89 15.5632 3.87333 15.5632 3.84V2.67C15.5632 2.63667 15.5732 2.61 15.5932 2.59C15.6199 2.56333 15.6499 2.55 15.6832 2.55H16.5532C16.5865 2.55 16.6132 2.56333 16.6332 2.59C16.6599 2.61 16.6732 2.63667 16.6732 2.67V3.84C16.6732 3.87333 16.6899 3.89 16.7232 3.89H17.7432C17.7765 3.89 17.8032 3.90333 17.8232 3.93C17.8499 3.95 17.8632 3.97667 17.8632 4.01V4.71ZM20.8434 3.81C21.2634 3.81 21.6334 3.88333 21.9534 4.03C22.2734 4.17667 22.5201 4.38 22.6934 4.64C22.8668 4.89333 22.9534 5.18333 22.9534 5.51V8.88C22.9534 8.91333 22.9401 8.94333 22.9134 8.97C22.8934 8.99 22.8668 9 22.8334 9H21.9134C21.8801 9 21.8501 8.99 21.8234 8.97C21.8034 8.94333 21.7934 8.91333 21.7934 8.88V8.56C21.7934 8.54 21.7868 8.53 21.7734 8.53C21.7601 8.52333 21.7468 8.52667 21.7334 8.54C21.4068 8.9 20.9334 9.08 20.3134 9.08C19.8134 9.08 19.4001 8.95333 19.0734 8.7C18.7534 8.44667 18.5934 8.07 18.5934 7.57C18.5934 7.05 18.7734 6.64667 19.1334 6.36C19.5001 6.06667 20.0134 5.92 20.6734 5.92H21.7434C21.7768 5.92 21.7934 5.90333 21.7934 5.87V5.63C21.7934 5.37 21.7168 5.17 21.5634 5.03C21.4101 4.88333 21.1801 4.81 20.8734 4.81C20.6201 4.81 20.4134 4.85667 20.2534 4.95C20.1001 5.03667 20.0034 5.16 19.9634 5.32C19.9434 5.4 19.8968 5.43333 19.8234 5.42L18.8534 5.3C18.8201 5.29333 18.7901 5.28333 18.7634 5.27C18.7434 5.25 18.7368 5.22667 18.7434 5.2C18.7968 4.79333 19.0134 4.46 19.3934 4.2C19.7801 3.94 20.2634 3.81 20.8434 3.81ZM20.6034 8.16C20.9301 8.16 21.2101 8.07333 21.4434 7.9C21.6768 7.72667 21.7934 7.50667 21.7934 7.24V6.77C21.7934 6.73667 21.7768 6.72 21.7434 6.72H20.9034C20.5501 6.72 20.2701 6.78667 20.0634 6.92C19.8634 7.05333 19.7634 7.24333 19.7634 7.49C19.7634 7.70333 19.8401 7.87 19.9934 7.99C20.1534 8.10333 20.3568 8.16 20.6034 8.16Z" fill="#E0ECFF"/>
</svg>
