<?xml version="1.0" encoding="UTF-8"?>
<svg width="520px" height="147px" viewBox="0 0 520 147" version="1.1" xmlns="http://www.w3.org/2000/svg" xmlns:xlink="http://www.w3.org/1999/xlink">
    <title>形状</title>
    <g id="页面-1" stroke="none" stroke-width="1" fill="none" fill-rule="evenodd">
        <g id="logo-使用请下载svg格式" transform="translate(-2732.000000, -846.000000)" fill="#0FDAAC">
            <path d="M2810.44336,846 C2850.79371,846 2883.50413,878.703585 2883.50413,919.045502 C2883.50413,959.38742 2850.79371,992.091005 2810.44336,992.091005 L2732.83658,992.091005 L2732.83658,846 L2810.44336,846 Z M3039.14655,846 L3039.14655,872.087679 L2935.38494,872.085361 L2935.38494,908.608112 L3018.39423,908.610431 L3018.39423,934.69811 L2935.38494,934.693472 L2935.38494,965.997528 L3039.14655,966.003325 L3039.14655,992.091005 L2909.44453,992.091005 L2909.44453,846 L3039.14655,846 Z M3252,846 L3252,992.091005 L3225.70425,992.091005 L3225.70425,846 L3252,846 Z M3155.66027,846 C3180.21426,846 3200.11919,865.855748 3200.11919,890.349055 C3200.11919,909.468815 3187.99003,925.762657 3170.98846,931.991759 C3173.74226,935.137598 3176.1067,938.86299 3178.07929,943.164335 L3179.03293,945.362987 L3200.11919,989.208909 L3169.17492,989.208909 L3164.69763,978.729939 C3157.28391,961.619535 3152.08334,950.955054 3149.09591,946.736496 L3148.08173,945.362987 L3148.08173,945.362987 C3144.27337,939.429497 3136.82645,935.87175 3125.74099,934.689747 L3090.75955,934.693472 L3090.76768,992.091005 L3064.73161,992.091005 L3064.73161,846 L3155.66027,846 Z M2810.56111,871.948037 L2758.77699,871.948037 L2758.77699,965.787515 L2810.56111,965.787515 C2836.51994,965.787515 2857.56373,944.780832 2857.56373,918.867776 C2857.56373,892.95472 2836.51994,871.948037 2810.56111,871.948037 Z M3155.63094,871.948037 L3091.02736,871.948037 L3091.02736,908.559652 L3155.63094,908.559652 C3165.67838,908.559652 3173.82344,900.363863 3173.82344,890.253845 C3173.82344,880.143826 3165.67838,871.948037 3155.63094,871.948037 Z" id="形状"></path>
        </g>
    </g>
</svg>