<svg t="1727331066970" class="icon" viewBox="0 0 1024 1024" version="1.1" xmlns="http://www.w3.org/2000/svg" p-id="5163" width="200" height="200"><path d="M497.464889 867.854222A240.256 240.256 0 0 1 426.666667 696.888889a240.256 240.256 0 0 1 70.812444-170.965333A240.256 240.256 0 0 1 668.444444 455.096889a240.213333 240.213333 0 0 1 170.951112 70.826667A240.213333 240.213333 0 0 1 910.222222 696.888889a240.213333 240.213333 0 0 1-70.826666 170.965333A240.213333 240.213333 0 0 1 668.444444 938.680889a240.256 240.256 0 0 1-170.979555-70.826667zM483.555556 696.888889c0.113778 102.058667 82.830222 184.775111 184.888888 184.888889 102.058667-0.113778 184.775111-82.830222 184.888889-184.888889-0.113778-102.058667-82.830222-184.775111-184.888889-184.888889-102.058667 0.113778-184.775111 82.830222-184.888888 184.888889z m-99.555556 241.777778H156.444444a56.888889 56.888889 0 0 1-56.888888-56.888889V142.222222a56.888889 56.888889 0 0 1 56.888888-56.888889h597.333334a56.888889 56.888889 0 0 1 56.888889 56.888889v227.555556a28.444444 28.444444 0 1 1-56.888889 0V142.222222H156.444444v739.555556h227.555556a28.444444 28.444444 0 1 1 0 56.888889z m353.763556-169.528889l-77.340445-36.067556a28.444444 28.444444 0 0 1-16.014222-20.977778c-2.887111-4.551111-4.408889-9.813333-4.408889-15.203555v-113.777778a28.444444 28.444444 0 0 1 56.888889 0v104.206222l64.910222 30.279111a28.444444 28.444444 0 1 1-24.049778 51.555556l0.014223-0.014222zM270.222222 497.777778a28.444444 28.444444 0 1 1 0-56.888889h113.777778a28.444444 28.444444 0 1 1 0 56.888889h-113.777778z m0-170.666667a28.444444 28.444444 0 1 1 0-56.888889h369.777778a28.444444 28.444444 0 1 1 0 56.888889H270.222222z" fill="#ffffff" p-id="5164"></path></svg>