<svg width="269" height="296" viewBox="0 0 269 296" fill="none" xmlns="http://www.w3.org/2000/svg">
<path d="M164.236 180.001L102.888 180.303L85.5311 228.552C84.973 230.523 85.8239 232.612 87.5989 233.638L164.246 277.956C166.35 279.175 168.949 279.175 171.053 277.956L247.7 233.638C249.466 232.612 250.317 230.523 249.768 228.552L232.411 180.303L171.062 180.001C168.93 178.782 166.341 178.782 164.236 180.001Z" fill="url(#paint0_linear_84_691)"/>
<path d="M237.214 193.417L170.778 231.833C168.829 232.96 166.432 232.96 164.492 231.833L98.0568 193.417L91.771 210.875C91.2586 212.689 92.0455 214.623 93.6741 215.567L164.483 256.512C166.432 257.639 168.829 257.639 170.769 256.512L241.578 215.567C243.216 214.623 243.994 212.689 243.481 210.875L237.214 193.417Z" fill="#2564F4"/>
<path d="M165.042 142.877L104.178 178.077C102.467 179.066 102.467 181.55 104.178 182.539L165.042 217.739C166.652 218.673 168.637 218.673 170.239 217.739L231.102 182.539C232.813 181.55 232.813 179.066 231.102 178.077L170.239 142.877C168.628 141.943 166.643 141.943 165.042 142.877Z" fill="#E9EDFC"/>
<path d="M165.508 149.604L115.588 178.471C114.178 179.286 114.178 181.311 115.588 182.127L165.508 210.994C166.826 211.754 168.454 211.754 169.772 210.994L219.692 182.127C221.101 181.311 221.101 179.286 219.692 178.471L169.772 149.604C168.454 148.843 166.826 148.843 165.508 149.604Z" fill="#2564F4"/>
<path d="M165.956 156.11L126.622 178.856C125.515 179.497 125.515 181.101 126.622 181.742L165.956 204.488C167 205.092 168.28 205.092 169.314 204.488L208.649 181.742C209.756 181.101 209.756 179.497 208.649 178.856L169.314 156.11C168.28 155.515 167 155.515 165.956 156.11Z" fill="#2564F4"/>
<path d="M126.622 179.817L165.956 157.072C167 156.467 168.28 156.467 169.314 157.072L208.649 179.817C209.042 180.047 209.289 180.395 209.399 180.78C209.609 180.083 209.353 179.277 208.649 178.864L169.314 156.119C168.271 155.514 166.99 155.514 165.956 156.119L126.622 178.864C125.908 179.277 125.661 180.083 125.872 180.78C125.982 180.395 126.229 180.047 126.622 179.817Z" fill="#05105D"/>
<path d="M219.692 180.697L169.772 209.564C168.454 210.325 166.826 210.325 165.508 209.564L115.588 180.697C115.13 180.431 114.828 180.028 114.673 179.588C114.352 180.496 114.645 181.586 115.588 182.136L165.508 211.003C166.826 211.763 168.454 211.763 169.772 211.003L219.692 182.136C220.635 181.586 220.928 180.496 220.607 179.588C220.443 180.028 220.15 180.431 219.692 180.697Z" fill="#0246AF"/>
<path d="M104.233 200.309L106.877 201.839L101.991 215.603L99.3562 214.11L104.233 200.309ZM103.638 216.557L106.273 218.05L110.043 207.337L107.399 205.807L103.638 216.557ZM107.929 219.013L110.565 220.506L113.282 212.863L110.638 211.333L107.929 219.013ZM112.221 221.459L114.856 222.953L119.156 210.875L116.512 209.344L112.221 221.459ZM116.512 223.906L119.147 225.4L121.343 219.278L118.699 217.748L116.512 223.906Z" fill="#97B2F8"/>
<path d="M199.527 220.653C199.527 220.845 198.63 221.643 198.475 221.844C198.136 222.275 197.779 222.706 197.459 223.136C196.846 223.961 196.663 225.116 196.105 226.014C195.565 226.894 194.787 227.682 193.817 228.03C193.149 228.277 192.427 228.314 191.713 228.369C190.999 228.433 190.276 228.525 189.654 228.873C188.373 229.588 188.245 231.485 187.861 232.759C187.678 233.363 187.495 233.977 187.092 234.463C186.699 234.931 186.141 235.233 185.592 235.499C185.07 235.755 184.53 235.994 183.963 236.122C182.865 236.378 181.712 236.195 180.587 236.323C178.913 236.516 177.339 237.423 176.323 238.77C175.948 239.274 175.646 239.824 175.326 240.365C174.823 241.217 174.255 242.024 173.642 242.793C173.121 243.453 173.148 243.756 173.167 244.553L174.859 249.245L203.617 232.337L199.527 220.653Z" fill="#97B2F8"/>
<path d="M129.23 214.788L139.212 220.561L138.535 222.449L128.553 216.676L129.23 214.788Z" fill="#E9EDFC"/>
<path d="M127.418 219.736L137.181 225.4L136.833 226.38L127.071 220.717L127.418 219.736Z" fill="#E9EDFC"/>
<path d="M138.059 225.895L140.722 227.452L140.374 228.433L137.702 226.875L138.059 225.895Z" fill="#97B2F8"/>
<path d="M143.137 231.723L144.29 232.41L143.943 233.391L142.79 232.695L143.137 231.723Z" fill="#97B2F8"/>
<path d="M144.903 232.795L146.065 233.491L145.709 234.472L144.556 233.775L144.903 232.795Z" fill="#97B2F8"/>
<path d="M126.558 222.091L131.737 225.088L131.38 226.069L126.201 223.072L126.558 222.091Z" fill="#E9EDFC"/>
<path d="M132.789 225.702L142.561 231.338L142.213 232.319L132.441 226.683L132.789 225.702Z" fill="#E9EDFC"/>
<path d="M137.254 231.164L147.026 236.8L146.678 237.781L136.906 232.145L137.254 231.164Z" fill="#E9EDFC"/>
<path d="M147.721 237.194L155.636 241.748L155.288 242.729L147.374 238.174L147.721 237.194Z" fill="#E9EDFC"/>
<path d="M146.742 233.886L156.514 239.522L156.166 240.502L146.395 234.866L146.742 233.886Z" fill="#E9EDFC"/>
<path d="M141.966 228.176L147.136 231.173L146.788 232.153L141.609 229.157L141.966 228.176Z" fill="#E9EDFC"/>
<path d="M147.904 231.659L157.31 237.066L156.963 238.046L147.557 232.639L147.904 231.659Z" fill="#97B2F8"/>
<path d="M125.698 224.456L127.83 225.702L127.482 226.683L125.341 225.437L125.698 224.456Z" fill="#E9EDFC"/>
<path d="M134.235 229.404L136.367 230.66L136.019 231.631L133.878 230.385L134.235 229.404Z" fill="#97B2F8"/>
<path d="M128.461 226.069L133.631 229.066L133.283 230.046L128.104 227.049L128.461 226.069Z" fill="#97B2F8"/>
<path d="M141.884 236.625L147.054 239.622L146.706 240.603L141.527 237.606L141.884 236.625Z" fill="#97B2F8"/>
<path d="M147.63 239.961L154.812 244.104L154.455 245.084L147.273 240.942L147.63 239.961Z" fill="#97B2F8"/>
<path d="M124.838 226.82L130.008 229.808L129.66 230.788L124.481 227.801L124.838 226.82Z" fill="#E9EDFC"/>
<path d="M130.95 230.33L140.896 236.021L140.548 237.002L130.602 231.311L130.95 230.33Z" fill="#E9EDFC"/>
<path d="M224.652 209.583L221.989 211.14L222.337 212.121L225.008 210.554L224.652 209.583Z" fill="#97B2F8"/>
<path d="M219.573 215.411L218.411 216.098L218.768 217.079L219.921 216.382L219.573 215.411Z" fill="#97B2F8"/>
<path d="M217.808 216.483L216.646 217.179L217.002 218.151L218.155 217.463L217.808 216.483Z" fill="#97B2F8"/>
<path d="M225.53 211.901L220.15 215.026L220.498 216.006L225.878 212.881L225.53 211.901Z" fill="#E9EDFC"/>
<path d="M226.408 214.348L215.685 220.478L216.033 221.459L226.756 215.319L226.408 214.348Z" fill="#E9EDFC"/>
<path d="M214.989 220.882L207.075 225.436L207.423 226.417L215.337 221.862L214.989 220.882Z" fill="#97B2F8"/>
<path d="M215.959 217.574L206.197 223.21L206.544 224.19L216.316 218.554L215.959 217.574Z" fill="#E9EDFC"/>
<path d="M220.744 211.864L215.575 214.861L215.923 215.842L221.101 212.845L220.744 211.864Z" fill="#E9EDFC"/>
<path d="M214.806 215.347L205.401 220.753L205.748 221.734L215.154 216.327L214.806 215.347Z" fill="#E9EDFC"/>
<path d="M221.312 220.03L218.896 221.45L219.253 222.431L221.66 221.01L221.312 220.03Z" fill="#97B2F8"/>
<path d="M218.329 221.789L217.716 222.137L218.064 223.118L218.677 222.77L218.329 221.789Z" fill="#97B2F8"/>
<path d="M216.902 222.559L207.898 227.792L208.255 228.772L217.249 223.54L216.902 222.559Z" fill="#E9EDFC"/>
<path d="M227.223 216.593L221.815 219.709L222.163 220.69L227.579 217.574L227.223 216.593Z" fill="#E9EDFC"/>
<path d="M233.207 214.825C232.575 214.825 231.953 214.669 231.377 214.358C230.279 213.771 229.464 212.672 229.153 211.334C228.549 208.786 229.894 206.028 232.154 205.194C233.234 204.8 234.378 204.873 235.375 205.404C236.473 205.991 237.287 207.091 237.598 208.429C238.202 210.976 236.857 213.735 234.597 214.569C234.14 214.743 233.673 214.825 233.207 214.825ZM233.545 206.651C233.28 206.651 233.014 206.697 232.749 206.797C231.267 207.347 230.407 209.198 230.818 210.94C231.02 211.792 231.523 212.488 232.191 212.846C232.758 213.148 233.39 213.194 234.012 212.965C235.485 212.415 236.354 210.564 235.942 208.823C235.741 207.97 235.238 207.274 234.57 206.917C234.24 206.742 233.893 206.651 233.545 206.651Z" fill="#E9EDFC"/>
<path d="M233.207 214.825C232.575 214.825 231.953 214.669 231.377 214.357C230.279 213.771 229.464 212.671 229.153 211.333C229.043 210.875 229.327 210.407 229.785 210.298C230.233 210.188 230.709 210.472 230.819 210.93C231.02 211.782 231.523 212.479 232.191 212.836C232.758 213.138 233.39 213.184 234.012 212.955C235.485 212.405 236.354 210.554 235.942 208.813C235.741 207.961 235.238 207.264 234.57 206.907C234.003 206.604 233.371 206.559 232.749 206.788C232.31 206.953 231.816 206.724 231.651 206.284C231.486 205.844 231.715 205.349 232.154 205.184C233.234 204.79 234.378 204.863 235.375 205.395C236.473 205.981 237.287 207.081 237.598 208.419C238.202 210.966 236.857 213.725 234.597 214.559C234.14 214.742 233.673 214.825 233.207 214.825Z" fill="#97B2F8"/>
<path opacity="0.1" d="M131.764 184.161L141.152 189.358L141.71 104.581H131.764V184.161Z" fill="url(#paint1_linear_84_691)"/>
<path d="M125.652 109.511V181.43L165.938 204.726C166.076 204.799 166.689 205.019 167.658 205.019C168.61 205.019 169.214 204.808 169.342 204.735L209.308 181.467V109.511H125.652Z" fill="url(#paint2_linear_84_691)"/>
<path opacity="0.1" d="M208.649 26.145H198.447V181.678H208.649V26.145Z" fill="url(#paint3_linear_84_691)"/>
<path opacity="0.1" d="M172.737 20.894H162.535V176.427H172.737V20.894Z" fill="url(#paint4_linear_84_691)"/>
<path opacity="0.1" d="M152.497 32.9722H145.663V188.505H152.497V32.9722Z" fill="url(#paint5_linear_84_691)"/>
<path opacity="0.1" d="M192.573 191.502L174.228 201.647L173.13 35.96H192.573V191.502Z" fill="url(#paint6_linear_84_691)"/>
<path opacity="0.1" d="M202.427 185.362L184.091 195.516L182.984 29.8291H202.427V185.362Z" fill="url(#paint7_linear_84_691)"/>
<path opacity="0.1" d="M141.316 189.981L159.661 200.134L160.769 34.4478H141.316V189.981Z" fill="url(#paint8_linear_84_691)"/>
<path d="M204.641 183.822C204.641 184.052 204.449 184.244 204.22 184.244C203.992 184.244 203.8 184.052 203.8 183.822C203.8 183.593 203.992 183.401 204.22 183.401C204.458 183.401 204.641 183.584 204.641 183.822Z" fill="#5577FD"/>
<path d="M206.087 173.852C206.087 174.072 205.913 174.246 205.693 174.246C205.474 174.246 205.3 174.072 205.3 173.852C205.3 173.641 205.474 173.458 205.693 173.458C205.913 173.458 206.087 173.641 206.087 173.852Z" fill="#5577FD"/>
<path d="M207.597 154.131C207.597 154.351 207.423 154.534 207.194 154.534C206.974 154.534 206.801 154.36 206.801 154.131C206.801 153.902 206.974 153.728 207.194 153.728C207.414 153.737 207.597 153.911 207.597 154.131Z" fill="#5577FD"/>
<path d="M209.692 134.254C209.692 134.483 209.509 134.667 209.28 134.667C209.051 134.667 208.868 134.483 208.868 134.254C208.868 134.025 209.051 133.842 209.28 133.842C209.509 133.851 209.692 134.025 209.692 134.254Z" fill="#5577FD"/>
<path d="M201.466 115.074C201.714 115.074 201.915 114.873 201.915 114.625C201.915 114.377 201.714 114.176 201.466 114.176C201.219 114.176 201.018 114.377 201.018 114.625C201.018 114.873 201.219 115.074 201.466 115.074Z" fill="#5577FD"/>
<path d="M205.776 76.1538C205.776 76.3738 205.602 76.5479 205.382 76.5479C205.163 76.5479 204.989 76.3738 204.989 76.1538C204.989 75.9339 205.163 75.7598 205.382 75.7598C205.602 75.7598 205.776 75.9339 205.776 76.1538Z" fill="#5577FD"/>
<path d="M205.675 62.8567C205.675 63.0675 205.511 63.2324 205.3 63.2324C205.09 63.2324 204.925 63.0675 204.925 62.8567C204.925 62.6459 205.09 62.481 205.3 62.481C205.501 62.481 205.675 62.6459 205.675 62.8567Z" fill="#5577FD"/>
<path d="M157.109 65.9451C157.109 66.1101 156.981 66.2383 156.816 66.2383C156.651 66.2383 156.523 66.1101 156.523 65.9451C156.523 65.7802 156.651 65.6519 156.816 65.6519C156.981 65.6519 157.109 65.7802 157.109 65.9451Z" fill="#5577FD"/>
<path d="M162.946 46.4255C162.946 46.6088 162.8 46.7646 162.608 46.7646C162.425 46.7646 162.269 46.6179 162.269 46.4255C162.269 46.2422 162.416 46.0864 162.608 46.0864C162.791 46.0864 162.946 46.2422 162.946 46.4255Z" fill="#5577FD"/>
<path d="M138.151 60.4558C138.151 60.6208 138.023 60.7491 137.858 60.7491C137.693 60.7491 137.565 60.6208 137.565 60.4558C137.565 60.2909 137.693 60.1626 137.858 60.1626C138.023 60.1626 138.151 60.2909 138.151 60.4558Z" fill="#5577FD"/>
<path d="M139.99 46.728C139.99 46.9296 139.834 47.0854 139.633 47.0854C139.432 47.0854 139.276 46.9296 139.276 46.728C139.276 46.5264 139.432 46.3706 139.633 46.3706C139.825 46.3706 139.99 46.5356 139.99 46.728Z" fill="#5577FD"/>
<path d="M131.279 95.7925C131.279 95.9941 131.115 96.1499 130.923 96.1499C130.721 96.1499 130.566 95.9849 130.566 95.7925C130.566 95.5908 130.73 95.4351 130.923 95.4351C131.115 95.4351 131.279 95.5908 131.279 95.7925Z" fill="#5577FD"/>
<path d="M136.467 127.555C136.467 127.784 136.284 127.958 136.065 127.958C135.836 127.958 135.662 127.775 135.662 127.555C135.662 127.335 135.845 127.152 136.065 127.152C136.284 127.152 136.467 127.335 136.467 127.555Z" fill="#5577FD"/>
<path d="M126.814 121.938C126.814 122.167 126.631 122.35 126.403 122.35C126.174 122.35 125.991 122.167 125.991 121.938C125.991 121.709 126.174 121.525 126.403 121.525C126.631 121.525 126.814 121.709 126.814 121.938Z" fill="#5577FD"/>
<path d="M127.253 165.742C127.253 165.971 127.07 166.154 126.842 166.154C126.613 166.154 126.43 165.971 126.43 165.742C126.43 165.513 126.613 165.33 126.842 165.33C127.07 165.33 127.253 165.513 127.253 165.742Z" fill="#5577FD"/>
<path d="M139.834 187.323C139.834 187.58 139.633 187.782 139.377 187.782C139.121 187.782 138.919 187.58 138.919 187.323C138.919 187.067 139.121 186.865 139.377 186.865C139.624 186.865 139.834 187.067 139.834 187.323Z" fill="#5577FD"/>
<path d="M138.242 175.273C138.242 175.483 138.068 175.657 137.858 175.657C137.647 175.657 137.474 175.483 137.474 175.273C137.474 175.062 137.647 174.888 137.858 174.888C138.068 174.888 138.242 175.062 138.242 175.273Z" fill="#5577FD"/>
<path d="M161.29 162.26C161.29 162.443 161.144 162.59 160.961 162.59C160.778 162.59 160.632 162.443 160.632 162.26C160.632 162.076 160.778 161.93 160.961 161.93C161.144 161.93 161.29 162.085 161.29 162.26Z" fill="#5577FD"/>
<path d="M165.691 152.014C165.691 152.197 165.545 152.353 165.353 152.353C165.17 152.353 165.014 152.206 165.014 152.014C165.014 151.831 165.161 151.675 165.353 151.675C165.536 151.675 165.691 151.831 165.691 152.014Z" fill="#5577FD"/>
<path d="M181.474 149.75C181.474 149.943 181.319 150.108 181.118 150.108C180.925 150.108 180.761 149.952 180.761 149.75C180.761 149.558 180.916 149.393 181.118 149.393C181.31 149.393 181.474 149.549 181.474 149.75Z" fill="#5577FD"/>
<path d="M184.283 133.09C184.283 133.301 184.109 133.475 183.899 133.475C183.688 133.475 183.515 133.301 183.515 133.09C183.515 132.88 183.688 132.706 183.899 132.706C184.109 132.706 184.283 132.88 184.283 133.09Z" fill="#5577FD"/>
<path d="M183.78 182.521C183.987 182.521 184.155 182.353 184.155 182.146C184.155 181.938 183.987 181.77 183.78 181.77C183.573 181.77 183.405 181.938 183.405 182.146C183.405 182.353 183.573 182.521 183.78 182.521Z" fill="#5577FD"/>
<path d="M170.714 130.176C170.927 130.176 171.099 130.004 171.099 129.791C171.099 129.579 170.927 129.406 170.714 129.406C170.502 129.406 170.33 129.579 170.33 129.791C170.33 130.004 170.502 130.176 170.714 130.176Z" fill="#5577FD"/>
<path d="M172.251 111.829C172.251 112.031 172.087 112.196 171.886 112.196C171.684 112.196 171.52 112.031 171.52 111.829C171.52 111.628 171.684 111.463 171.886 111.463C172.087 111.463 172.251 111.628 172.251 111.829Z" fill="#5577FD"/>
<path d="M152.04 118.455C152.04 118.666 151.866 118.831 151.665 118.831C151.454 118.831 151.29 118.657 151.29 118.455C151.29 118.245 151.463 118.08 151.665 118.08C151.875 118.08 152.04 118.245 152.04 118.455Z" fill="#5577FD"/>
<path d="M138.178 100.127C138.178 100.319 138.023 100.484 137.821 100.484C137.629 100.484 137.465 100.329 137.465 100.127C137.465 99.9253 137.62 99.7695 137.821 99.7695C138.023 99.7787 138.178 99.9345 138.178 100.127Z" fill="#5577FD"/>
<path d="M134.619 79.5904C134.619 79.7829 134.463 79.9387 134.271 79.9387C134.079 79.9387 133.924 79.7829 133.924 79.5904C133.924 79.398 134.079 79.2422 134.271 79.2422C134.463 79.2422 134.619 79.398 134.619 79.5904Z" fill="#5577FD"/>
<path d="M133.768 73.0745C133.768 73.2578 133.622 73.4044 133.439 73.4044C133.256 73.4044 133.109 73.2578 133.109 73.0745C133.109 72.8913 133.256 72.7446 133.439 72.7446C133.622 72.7446 133.768 72.8913 133.768 73.0745Z" fill="#5577FD"/>
<path d="M177.805 60.6664C177.805 60.8405 177.659 60.9871 177.485 60.9871C177.311 60.9871 177.165 60.8405 177.165 60.6664C177.165 60.4922 177.311 60.3456 177.485 60.3456C177.659 60.3365 177.805 60.4831 177.805 60.6664Z" fill="#5577FD"/>
<path d="M182.984 54.9572C182.984 55.1405 182.838 55.2963 182.645 55.2963C182.462 55.2963 182.307 55.1497 182.307 54.9572C182.307 54.774 182.453 54.6182 182.645 54.6182C182.828 54.6182 182.984 54.774 182.984 54.9572Z" fill="#5577FD"/>
<path d="M198.017 35.8044C198.017 36.0518 197.816 36.2626 197.56 36.2626C197.312 36.2626 197.102 36.061 197.102 35.8044C197.102 35.557 197.303 35.3462 197.56 35.3462C197.816 35.3462 198.017 35.5478 198.017 35.8044Z" fill="#5577FD"/>
<path d="M196.581 88.8827C196.581 89.1026 196.407 89.2767 196.187 89.2767C195.968 89.2767 195.794 89.1026 195.794 88.8827C195.794 88.6627 195.968 88.4886 196.187 88.4886C196.407 88.4794 196.581 88.6627 196.581 88.8827Z" fill="#5577FD"/>
<path d="M195.126 100.338C195.126 100.576 194.934 100.76 194.705 100.76C194.476 100.76 194.284 100.567 194.284 100.338C194.284 100.1 194.476 99.9165 194.705 99.9165C194.934 99.9165 195.126 100.109 195.126 100.338Z" fill="#5577FD"/>
<path d="M146.889 138.204C146.889 138.415 146.715 138.589 146.504 138.589C146.294 138.589 146.12 138.415 146.12 138.204C146.12 137.993 146.294 137.819 146.504 137.819C146.724 137.819 146.889 137.993 146.889 138.204Z" fill="#5577FD"/>
<path d="M153.541 138.534C153.541 138.745 153.367 138.919 153.156 138.919C152.946 138.919 152.772 138.745 152.772 138.534C152.772 138.323 152.946 138.149 153.156 138.149C153.367 138.149 153.541 138.323 153.541 138.534Z" fill="#5577FD"/>
<path d="M134.28 163.148C134.28 163.35 134.116 163.506 133.923 163.506C133.731 163.506 133.567 163.341 133.567 163.148C133.567 162.947 133.731 162.791 133.923 162.791C134.116 162.791 134.28 162.956 134.28 163.148Z" fill="#5577FD"/>
<path d="M177.458 121.424C177.458 121.654 177.266 121.846 177.037 121.846C176.808 121.846 176.616 121.654 176.616 121.424C176.616 121.195 176.808 121.003 177.037 121.003C177.275 121.003 177.458 121.195 177.458 121.424Z" fill="#5577FD"/>
<path d="M182.911 99.9529C183.133 99.9529 183.313 99.7724 183.313 99.5497C183.313 99.327 183.133 99.1465 182.911 99.1465C182.689 99.1465 182.508 99.327 182.508 99.5497C182.508 99.7724 182.689 99.9529 182.911 99.9529Z" fill="#5577FD"/>
<path d="M167.192 93.5016C167.192 93.7124 167.018 93.8865 166.807 93.8865C166.597 93.8865 166.423 93.7124 166.423 93.5016C166.423 93.2908 166.597 93.1167 166.807 93.1167C167.018 93.1167 167.192 93.2908 167.192 93.5016Z" fill="#5577FD"/>
<path d="M167.219 73.3773C167.219 73.5789 167.055 73.7439 166.853 73.7439C166.652 73.7439 166.487 73.5789 166.487 73.3773C166.487 73.1757 166.652 73.0107 166.853 73.0107C167.055 73.0107 167.219 73.1757 167.219 73.3773Z" fill="#5577FD"/>
<path d="M167.997 61.693C167.997 61.8854 167.841 62.0412 167.649 62.0412C167.457 62.0412 167.302 61.8854 167.302 61.693C167.302 61.5005 167.457 61.3447 167.649 61.3447C167.841 61.3447 167.997 61.5005 167.997 61.693Z" fill="#5577FD"/>
<path d="M144.885 34.9064C144.885 35.0714 144.748 35.2088 144.583 35.2088C144.418 35.2088 144.281 35.0714 144.281 34.9064C144.281 34.7415 144.418 34.604 144.583 34.604C144.757 34.604 144.885 34.7415 144.885 34.9064Z" fill="#5577FD"/>
<path d="M177.201 34.2371C177.201 34.4204 177.055 34.567 176.872 34.567C176.689 34.567 176.543 34.4204 176.543 34.2371C176.543 34.0539 176.689 33.9072 176.872 33.9072C177.055 33.9072 177.201 34.0539 177.201 34.2371Z" fill="#5577FD"/>
<path d="M207.405 99.1832C207.405 99.394 207.231 99.5681 207.02 99.5681C206.81 99.5681 206.636 99.394 206.636 99.1832C206.636 98.9725 206.81 98.7983 207.02 98.7983C207.231 98.7983 207.405 98.9725 207.405 99.1832Z" fill="#5577FD"/>
<path d="M209.216 109.145C209.216 109.355 209.042 109.53 208.832 109.53C208.621 109.53 208.448 109.355 208.448 109.145C208.448 108.934 208.621 108.76 208.832 108.76C209.042 108.769 209.216 108.934 209.216 109.145Z" fill="#5577FD"/>
<path d="M207.231 118.245C207.231 118.455 207.057 118.63 206.846 118.63C206.636 118.63 206.462 118.455 206.462 118.245C206.462 118.034 206.636 117.86 206.846 117.86C207.066 117.851 207.231 118.025 207.231 118.245Z" fill="#5577FD"/>
<path d="M209.234 121.544C209.234 121.754 209.061 121.928 208.85 121.928C208.64 121.928 208.466 121.754 208.466 121.544C208.466 121.333 208.64 121.159 208.85 121.159C209.061 121.159 209.234 121.333 209.234 121.544Z" fill="#5577FD"/>
<path d="M203.964 124.045C203.964 124.265 203.791 124.439 203.571 124.439C203.351 124.439 203.177 124.265 203.177 124.045C203.177 123.825 203.351 123.651 203.571 123.651C203.791 123.651 203.964 123.825 203.964 124.045Z" fill="#5577FD"/>
<path d="M162.397 122.726C162.397 122.955 162.214 123.147 161.977 123.147C161.748 123.147 161.556 122.964 161.556 122.726C161.556 122.497 161.739 122.304 161.977 122.304C162.205 122.304 162.397 122.487 162.397 122.726Z" fill="#5577FD"/>
<path d="M163.166 115.853C163.166 116.082 162.983 116.265 162.754 116.265C162.526 116.265 162.343 116.082 162.343 115.853C162.343 115.624 162.526 115.44 162.754 115.44C162.983 115.44 163.166 115.624 163.166 115.853Z" fill="#5577FD"/>
<path d="M124.829 100.063C124.829 100.283 124.646 100.466 124.426 100.466C124.207 100.466 124.024 100.283 124.024 100.063C124.024 99.843 124.207 99.6597 124.426 99.6597C124.646 99.6597 124.829 99.843 124.829 100.063Z" fill="#5577FD"/>
<path d="M174.118 105.461C174.118 105.69 173.935 105.873 173.706 105.873C173.478 105.873 173.295 105.69 173.295 105.461C173.295 105.232 173.478 105.048 173.706 105.048C173.935 105.048 174.118 105.232 174.118 105.461Z" fill="#5577FD"/>
<path d="M137.584 116.916C137.786 116.916 137.95 116.752 137.95 116.549C137.95 116.347 137.786 116.183 137.584 116.183C137.381 116.183 137.218 116.347 137.218 116.549C137.218 116.752 137.381 116.916 137.584 116.916Z" fill="#5577FD"/>
<path d="M133.384 116.659C133.384 116.852 133.228 117.017 133.027 117.017C132.835 117.017 132.67 116.861 132.67 116.659C132.67 116.458 132.826 116.302 133.027 116.302C133.228 116.302 133.384 116.467 133.384 116.659Z" fill="#5577FD"/>
<path d="M125.167 113.772C125.364 113.772 125.524 113.612 125.524 113.415C125.524 113.218 125.364 113.058 125.167 113.058C124.97 113.058 124.811 113.218 124.811 113.415C124.811 113.612 124.97 113.772 125.167 113.772Z" fill="#5577FD"/>
<path d="M133.21 109.053C133.21 109.245 133.054 109.401 132.862 109.401C132.67 109.401 132.515 109.245 132.515 109.053C132.515 108.86 132.67 108.705 132.862 108.705C133.045 108.705 133.21 108.86 133.21 109.053Z" fill="#5577FD"/>
<path d="M187.907 155.716C187.907 155.936 187.733 156.11 187.513 156.11C187.293 156.11 187.12 155.936 187.12 155.716C187.12 155.496 187.293 155.322 187.513 155.322C187.733 155.322 187.907 155.496 187.907 155.716Z" fill="#5577FD"/>
<path d="M195.455 153.233C195.455 153.453 195.281 153.627 195.062 153.627C194.842 153.627 194.668 153.453 194.668 153.233C194.668 153.013 194.842 152.839 195.062 152.839C195.281 152.839 195.455 153.013 195.455 153.233Z" fill="#5577FD"/>
<path d="M192.683 160.564C192.683 160.775 192.509 160.949 192.298 160.949C192.088 160.949 191.914 160.775 191.914 160.564C191.914 160.353 192.088 160.179 192.298 160.179C192.509 160.188 192.683 160.353 192.683 160.564Z" fill="#5577FD"/>
<path d="M199.783 159.932C199.783 160.143 199.609 160.317 199.398 160.317C199.188 160.317 199.014 160.143 199.014 159.932C199.014 159.721 199.188 159.547 199.398 159.547C199.609 159.547 199.783 159.721 199.783 159.932Z" fill="#5577FD"/>
<path d="M197.98 165.274C198.188 165.274 198.355 165.106 198.355 164.899C198.355 164.691 198.188 164.523 197.98 164.523C197.773 164.523 197.605 164.691 197.605 164.899C197.605 165.106 197.773 165.274 197.98 165.274Z" fill="#5577FD"/>
<path d="M202.51 167.602C202.712 167.602 202.876 167.438 202.876 167.236C202.876 167.033 202.712 166.869 202.51 166.869C202.307 166.869 202.144 167.033 202.144 167.236C202.144 167.438 202.307 167.602 202.51 167.602Z" fill="#5577FD"/>
<path d="M198.319 170.617C198.319 170.819 198.154 170.984 197.953 170.984C197.752 170.984 197.587 170.819 197.587 170.617C197.587 170.416 197.752 170.251 197.953 170.251C198.154 170.242 198.319 170.407 198.319 170.617Z" fill="#5577FD"/>
<path d="M141.051 163.936C141.051 164.138 140.887 164.303 140.685 164.303C140.484 164.303 140.319 164.138 140.319 163.936C140.319 163.735 140.484 163.57 140.685 163.57C140.887 163.57 141.051 163.735 141.051 163.936Z" fill="#5577FD"/>
<path d="M146.706 161.81C146.706 162.021 146.532 162.186 146.33 162.186C146.12 162.186 145.955 162.012 145.955 161.81C145.955 161.6 146.129 161.435 146.33 161.435C146.541 161.435 146.706 161.6 146.706 161.81Z" fill="#5577FD"/>
<path d="M142.982 158.567C142.982 158.777 142.817 158.942 142.607 158.942C142.396 158.942 142.231 158.777 142.231 158.567C142.231 158.356 142.396 158.191 142.607 158.191C142.817 158.191 142.982 158.356 142.982 158.567Z" fill="#5577FD"/>
<path d="M148.298 155.634C148.298 155.854 148.124 156.028 147.904 156.028C147.685 156.028 147.511 155.854 147.511 155.634C147.511 155.423 147.685 155.24 147.904 155.24C148.124 155.24 148.298 155.423 148.298 155.634Z" fill="#5577FD"/>
<path d="M136.906 156.056C136.906 156.257 136.742 156.422 136.54 156.422C136.339 156.422 136.174 156.257 136.174 156.056C136.174 155.854 136.339 155.689 136.54 155.689C136.742 155.689 136.906 155.854 136.906 156.056Z" fill="#5577FD"/>
<path d="M149.112 151.473C149.329 151.473 149.505 151.297 149.505 151.079C149.505 150.861 149.329 150.685 149.112 150.685C148.895 150.685 148.719 150.861 148.719 151.079C148.719 151.297 148.895 151.473 149.112 151.473Z" fill="#5577FD"/>
<path d="M172.306 141.75C172.306 141.988 172.114 142.172 171.885 142.172C171.648 142.172 171.465 141.979 171.465 141.75C171.465 141.512 171.657 141.329 171.885 141.329C172.114 141.338 172.306 141.521 172.306 141.75Z" fill="#5577FD"/>
<path d="M175.71 129.883C175.71 130.121 175.518 130.305 175.289 130.305C175.051 130.305 174.868 130.112 174.868 129.883C174.868 129.654 175.061 129.461 175.289 129.461C175.518 129.461 175.71 129.645 175.71 129.883Z" fill="#5577FD"/>
<path d="M146.44 69.6198C146.622 69.6198 146.77 69.4721 146.77 69.2899C146.77 69.1077 146.622 68.96 146.44 68.96C146.258 68.96 146.111 69.1077 146.111 69.2899C146.111 69.4721 146.258 69.6198 146.44 69.6198Z" fill="#5577FD"/>
<path d="M148.554 55.122C148.554 55.2961 148.407 55.4428 148.234 55.4428C148.06 55.4428 147.913 55.2961 147.913 55.122C147.913 54.9479 148.06 54.8013 148.234 54.8013C148.407 54.8013 148.554 54.9387 148.554 55.122Z" fill="#5577FD"/>
<path d="M128.535 48.1023C128.535 48.2673 128.406 48.3956 128.242 48.3956C128.077 48.3956 127.949 48.2673 127.949 48.1023C127.949 47.9374 128.077 47.8091 128.242 47.8091C128.406 47.8091 128.535 47.9465 128.535 48.1023Z" fill="#5577FD"/>
<path d="M198.045 47.6167C198.045 47.8091 197.889 47.9649 197.697 47.9649C197.505 47.9649 197.349 47.8091 197.349 47.6167C197.349 47.4242 197.505 47.2684 197.697 47.2684C197.88 47.2593 198.045 47.4242 198.045 47.6167Z" fill="#5577FD"/>
<path d="M193.278 107.541C193.278 107.77 193.095 107.953 192.866 107.953C192.637 107.953 192.454 107.77 192.454 107.541C192.454 107.312 192.637 107.128 192.866 107.128C193.095 107.138 193.278 107.321 193.278 107.541Z" fill="#5577FD"/>
<path d="M193.671 133.237C193.671 133.466 193.488 133.649 193.259 133.649C193.03 133.649 192.847 133.466 192.847 133.237C192.847 133.008 193.03 132.825 193.259 132.825C193.488 132.834 193.671 133.017 193.671 133.237Z" fill="#5577FD"/>
<path d="M192.454 143.748C192.454 143.968 192.271 144.151 192.051 144.151C191.832 144.151 191.649 143.968 191.649 143.748C191.649 143.528 191.832 143.345 192.051 143.345C192.271 143.345 192.454 143.528 192.454 143.748Z" fill="#5577FD"/>
<path d="M203.635 138.378C203.635 138.598 203.461 138.772 203.241 138.772C203.022 138.772 202.848 138.598 202.848 138.378C202.848 138.158 203.022 137.984 203.241 137.984C203.461 137.984 203.635 138.158 203.635 138.378Z" fill="#5577FD"/>
<path d="M197.642 139.707C197.864 139.707 198.044 139.526 198.044 139.304C198.044 139.081 197.864 138.9 197.642 138.9C197.419 138.9 197.239 139.081 197.239 139.304C197.239 139.526 197.419 139.707 197.642 139.707Z" fill="#5577FD"/>
<path d="M199.334 143.757C199.334 143.977 199.161 144.151 198.941 144.151C198.721 144.151 198.548 143.977 198.548 143.757C198.548 143.537 198.721 143.363 198.941 143.363C199.151 143.363 199.334 143.537 199.334 143.757Z" fill="#5577FD"/>
<path d="M131.966 140.257C131.966 140.458 131.801 140.614 131.609 140.614C131.407 140.614 131.252 140.449 131.252 140.257C131.252 140.055 131.417 139.899 131.609 139.899C131.81 139.899 131.966 140.055 131.966 140.257Z" fill="#5577FD"/>
<path d="M131.261 131.926C131.261 132.128 131.105 132.284 130.904 132.284C130.703 132.284 130.547 132.128 130.547 131.926C130.547 131.725 130.703 131.569 130.904 131.569C131.105 131.569 131.261 131.734 131.261 131.926Z" fill="#5577FD"/>
<path d="M126.613 139.505C126.613 139.698 126.458 139.863 126.256 139.863C126.064 139.863 125.899 139.707 125.899 139.505C125.899 139.313 126.055 139.148 126.256 139.148C126.458 139.148 126.613 139.304 126.613 139.505Z" fill="#5577FD"/>
<path d="M128.745 143.354C128.745 143.555 128.58 143.711 128.388 143.711C128.187 143.711 128.031 143.546 128.031 143.354C128.031 143.152 128.196 142.996 128.388 142.996C128.58 142.987 128.745 143.152 128.745 143.354Z" fill="#5577FD"/>
<path d="M190.917 71.1042C190.917 71.315 190.752 71.48 190.542 71.48C190.331 71.48 190.167 71.315 190.167 71.1042C190.167 70.8935 190.331 70.7285 190.542 70.7285C190.752 70.7285 190.917 70.8935 190.917 71.1042Z" fill="#5577FD"/>
<path d="M195.172 63.2964C195.379 63.2964 195.547 63.1282 195.547 62.9207C195.547 62.7131 195.379 62.5449 195.172 62.5449C194.964 62.5449 194.796 62.7131 194.796 62.9207C194.796 63.1282 194.964 63.2964 195.172 63.2964Z" fill="#5577FD"/>
<path d="M181.987 69.3359C182.194 69.3359 182.362 69.1677 182.362 68.9602C182.362 68.7527 182.194 68.5845 181.987 68.5845C181.78 68.5845 181.612 68.7527 181.612 68.9602C181.612 69.1677 181.78 69.3359 181.987 69.3359Z" fill="#5577FD"/>
<path d="M194.174 77.7573C194.381 77.7573 194.549 77.5891 194.549 77.3816C194.549 77.1741 194.381 77.0059 194.174 77.0059C193.967 77.0059 193.799 77.1741 193.799 77.3816C193.799 77.5891 193.967 77.7573 194.174 77.7573Z" fill="#5577FD"/>
<path d="M180.907 76.6394C180.907 76.8502 180.742 77.0151 180.532 77.0151C180.321 77.0151 180.157 76.8502 180.157 76.6394C180.157 76.4286 180.321 76.2637 180.532 76.2637C180.742 76.2637 180.907 76.4286 180.907 76.6394Z" fill="#5577FD"/>
<path d="M151.637 87.114C151.637 87.3156 151.473 87.4897 151.262 87.4897C151.061 87.4897 150.887 87.3248 150.887 87.114C150.887 86.9032 151.052 86.7383 151.262 86.7383C151.473 86.7474 151.637 86.9124 151.637 87.114Z" fill="#5577FD"/>
<path d="M156.112 75.9704C156.112 76.172 155.947 76.337 155.746 76.337C155.544 76.337 155.38 76.172 155.38 75.9704C155.38 75.7688 155.544 75.6039 155.746 75.6039C155.947 75.5947 156.112 75.7688 156.112 75.9704Z" fill="#5577FD"/>
<path d="M125.259 85.1073C125.259 85.3089 125.094 85.4738 124.893 85.4738C124.692 85.4738 124.527 85.3089 124.527 85.1073C124.527 84.9057 124.692 84.7407 124.893 84.7407C125.094 84.7407 125.259 84.9057 125.259 85.1073Z" fill="#5577FD"/>
<path d="M182.755 110.015C182.755 110.226 182.582 110.4 182.371 110.4C182.161 110.4 181.987 110.226 181.987 110.015C181.987 109.804 182.161 109.63 182.371 109.63C182.582 109.63 182.755 109.804 182.755 110.015Z" fill="#5577FD"/>
<path d="M184.073 36.73C184.073 36.9316 183.908 37.0874 183.716 37.0874C183.515 37.0874 183.359 36.9224 183.359 36.73C183.359 36.5284 183.524 36.3726 183.716 36.3726C183.908 36.3726 184.073 36.5284 184.073 36.73Z" fill="#5577FD"/>
<path d="M158.719 31.4697C158.719 31.6621 158.564 31.8179 158.371 31.8179C158.179 31.8179 158.024 31.6621 158.024 31.4697C158.024 31.2772 158.179 31.1215 158.371 31.1215C158.564 31.1123 158.719 31.2772 158.719 31.4697Z" fill="#5577FD"/>
<path d="M153.092 74.6232C155.087 77.8948 154.968 81.6062 152.827 82.9167C150.686 84.218 147.346 82.6234 145.351 79.3518C143.357 76.0803 143.476 72.3688 145.617 71.0583C147.758 69.7479 151.097 71.3516 153.092 74.6232Z" fill="#0246AF"/>
<path d="M153.952 74.1009C155.947 77.3725 155.828 81.0839 153.687 82.3944C151.546 83.6957 148.206 82.1012 146.212 78.8296C144.217 75.558 144.336 71.8466 146.477 70.5361C148.618 69.2256 151.958 70.8202 153.952 74.1009Z" fill="#2564F4"/>
<path d="M153.888 77.7392L150.942 73.8995C150.942 73.8903 150.933 73.8903 150.933 73.8812L150.924 73.872L150.915 73.8628C150.915 73.8628 150.905 73.8537 150.896 73.8537C150.887 73.8537 150.887 73.8445 150.878 73.8445C150.878 73.8445 150.878 73.8445 150.869 73.8445C150.86 73.8445 150.86 73.8445 150.851 73.8445C150.851 73.8445 150.851 73.8445 150.841 73.8445C150.832 73.8445 150.832 73.8445 150.823 73.8445C150.814 73.8445 150.814 73.8445 150.805 73.8445L149.798 73.8262C149.743 73.8262 149.689 73.8537 149.67 73.8995L147.639 77.7117C147.612 77.7576 147.621 77.8125 147.657 77.8492L148.252 78.6373C148.27 78.6556 148.289 78.674 148.316 78.6923C148.344 78.7015 148.371 78.7106 148.398 78.7106L153.385 78.7198C153.394 78.7198 153.394 78.7198 153.403 78.7198C153.412 78.7198 153.412 78.7198 153.422 78.7198H153.431C153.44 78.7198 153.44 78.7198 153.449 78.7106C153.458 78.7106 153.458 78.7015 153.467 78.7015L153.476 78.6923L153.486 78.6831C153.486 78.6831 153.495 78.674 153.495 78.6648L153.897 77.9042C153.925 77.8309 153.916 77.7759 153.888 77.7392ZM149.908 74.0919L150.549 74.1011L149.039 76.9236C149.011 76.9695 149.021 77.0244 149.057 77.0611C149.076 77.0794 149.094 77.0977 149.121 77.1161C149.149 77.1252 149.176 77.1344 149.204 77.1344L151.098 77.1711L151.454 77.6476L148.014 77.6384L149.908 74.0919ZM150.448 76.8778L150.622 76.5479L150.887 76.887L150.448 76.8778ZM148.435 78.4082L148.069 77.9133L151.765 77.9225C151.82 77.9225 151.866 77.895 151.894 77.8492C151.921 77.8034 151.912 77.7484 151.875 77.7117L151.335 76.9878C151.326 76.9786 151.326 76.9603 151.317 76.9511L150.777 76.2547L151.043 75.7598L153.065 78.4082H148.435ZM153.321 78.2799L151.134 75.4207C151.098 75.3749 151.043 75.3474 150.988 75.3474C150.933 75.3474 150.878 75.3749 150.86 75.4207L150.448 76.1905C150.448 76.1905 150.448 76.1997 150.439 76.1997L150.082 76.8595L149.441 76.8503L150.832 74.2386L153.559 77.8034L153.321 78.2799Z" fill="white"/>
<path d="M132.569 55.6719L123.145 47.7816C121.928 46.7644 120.108 47.0301 119.229 48.3498L111.324 60.2081L106.484 64.3044L106.328 67.9884C106.118 72.9737 112.019 75.7321 115.707 72.378L119.156 67.5119L119.897 68.1625C121.462 69.5371 123.841 69.3722 125.204 67.8143L127.098 65.6516L127.967 66.403C128.315 66.6963 128.846 66.4855 128.9 66.0273C129.093 64.2311 129.559 63.0765 129.925 62.4258L132.835 59.0901C133.713 58.0637 133.594 56.5241 132.569 55.6719Z" fill="#D5E0FC"/>
<path d="M117.582 60.2813C118.461 59.1541 119.348 58.0177 120.227 56.8906C121.096 55.7817 121.91 54.5995 122.871 53.5732C123.237 53.1883 123.429 53.5365 123.347 53.9031C123.237 54.3796 122.807 54.847 122.514 55.2227C121.791 56.1574 121.068 57.1013 120.345 58.0361C119.44 59.2091 119.266 60.7303 119.659 62.1691C119.879 62.9755 120.364 63.8186 121.096 64.2585C121.462 64.4784 121.883 64.5609 122.303 64.4784C122.807 64.3776 123.154 63.9927 123.63 63.8094C123.767 63.7545 123.905 63.7178 124.051 63.6995C124.344 63.6628 124.637 63.7453 124.902 63.8828C125.588 64.231 126.229 64.7167 126.732 65.294C126.952 65.5415 127.153 65.8255 127.171 66.1554C127.189 66.5403 126.933 66.8794 126.686 67.1727C125.762 68.2632 124.701 69.2254 123.539 70.0502C123.063 70.3893 122.551 70.71 121.974 70.8016C120.858 70.9941 119.952 70.2518 119.147 69.592C118.085 68.7214 117.125 67.695 116.521 66.467C115.926 65.2299 115.725 63.7636 116.192 62.4715C116.503 61.665 117.052 60.9686 117.582 60.2813Z" fill="#2564F4"/>
<path d="M91.707 61.8668C86.9857 58.6319 75.2925 66.064 71.9894 68.2084C66.8107 71.5716 64.3312 73.716 60.3511 78.3897C57.5696 81.6612 54.8796 85.0061 52.2719 88.4243C51.9242 88.4427 51.668 88.8001 51.3661 89.0017C51.0093 89.2491 50.5609 89.2766 50.14 89.2399C49.7192 89.1941 49.3074 89.0841 48.8865 89.0567C48.4657 89.0292 48.0173 89.1116 47.6879 89.4049C47.5232 89.5607 47.3951 89.7531 47.2762 89.9547C46.9011 90.5687 46.5442 91.2011 46.224 91.8517C46.1233 92.0533 46.0227 92.2641 45.9678 92.484C45.9312 92.6306 45.9404 92.8231 46.0501 92.8964C46.2057 92.9972 46.3978 92.8414 46.5076 92.6856C46.7272 92.4015 46.9285 92.0991 47.2305 91.9342C47.3311 91.8792 47.45 91.8425 47.5598 91.815C48.2552 91.6043 48.9597 91.4027 49.6551 91.1919C49.7375 91.1644 49.8656 91.1827 49.8564 91.2744C49.8564 91.3019 49.8381 91.3293 49.8198 91.3477C49.6551 91.531 49.3989 91.5951 49.1702 91.6409C48.8133 91.7234 48.4565 91.7967 48.0997 91.8792C47.8618 91.9342 47.6147 91.9892 47.4043 92.1358C47.3311 92.1908 47.2579 92.2549 47.2213 92.3466C47.1847 92.4382 47.203 92.5482 47.2762 92.6032C47.3311 92.649 47.4043 92.649 47.4775 92.6398C47.7886 92.6215 48.1088 92.5757 48.4199 92.5207C49.0512 92.4199 49.6826 92.3282 50.3047 92.2274C50.6524 92.1724 51.0093 92.1175 51.3478 91.9708C51.8053 91.7692 52.1896 91.4027 52.5556 91.0361L52.8758 90.6329C52.9947 90.4862 53.0771 90.3121 53.132 90.1288C60.1315 83.4024 67.5793 77.7757 76.2898 73.4594C78.934 72.1672 96.4556 65.1109 91.707 61.8668Z" fill="#D5E0FC"/>
<path d="M36.4979 155.716C39.0049 152.463 41.4753 149.146 43.3053 145.471C44.5954 142.868 45.5561 140.11 46.1508 137.26C46.3521 136.316 46.5077 135.326 46.224 134.401C46.0136 133.704 45.4829 133.063 44.8241 132.806C40.5512 144.069 31.6944 153.48 24.3106 161.334C20.9984 164.853 17.6405 168.647 16.0393 172.936C15.8197 173.531 16.1033 174.008 16.4419 174.246C16.7713 174.475 17.2928 174.585 17.7686 174.182C22.1787 170.452 26.0673 167.171 29.4893 164.257C31.9597 161.536 34.2654 158.631 36.4979 155.716Z" fill="#0246AF"/>
<path d="M63.4346 93.419C62.1811 92.585 60.3877 92.3926 58.5029 92.8691C58.4663 92.8783 58.4205 92.8875 58.3839 92.8966C52.4733 94.4728 49.3166 100.833 48.3376 106.249C47.7703 109.392 47.6788 112.673 47.5965 115.843C47.5142 118.767 47.441 121.791 46.9926 124.751C46.5717 127.537 45.8306 130.231 44.8516 132.815C45.5104 133.063 46.0411 133.704 46.2515 134.41C46.526 135.336 46.3704 136.325 46.1783 137.269C45.5836 140.11 44.6229 142.878 43.3328 145.48C41.5028 149.155 39.0233 152.472 36.5254 155.726C34.2929 158.631 30.3585 162.177 27.8973 164.917C27.879 164.936 19.26 173.962 19.2417 173.98L41.8231 153.902C44.6869 151.483 47.8161 148.834 50.2956 145.709C53.0863 142.786 54.6234 140.614 55.7305 138.323C57.0664 135.565 58.695 132.33 64.9809 105.873C65.8318 102.171 67.1127 95.8475 63.4346 93.419Z" fill="#0246AF"/>
<path d="M64.4316 164.303C65.8407 163.405 66.8746 162.04 67.8628 160.693C72.7761 154.049 77.4241 147.212 81.816 140.202C83.0786 138.195 84.3413 136.069 84.5517 133.704C84.6341 132.705 84.4968 131.624 83.8015 130.9C82.7858 129.837 80.9559 130.02 79.7848 130.9C79.126 131.395 78.6228 132.046 78.1927 132.76C77.5705 141.43 66.0328 151.492 62.6475 164.734C62.6658 164.743 62.6841 164.752 62.6932 164.752C63.2788 164.908 63.9101 164.642 64.4316 164.303Z" fill="#0246AF"/>
<path d="M80.6083 100.393C78.2569 95.7191 76.2988 96.159 72.9043 92.2826L73.5265 91.7419L72.5017 91.6777L72.8494 92.42C63.7181 96.7271 61.6594 101.153 66.6185 109.447C75.5211 124.329 78.0373 127.463 78.1928 131.67C78.2111 132.027 78.202 132.394 78.1745 132.76C78.6046 132.046 79.1078 131.395 79.7666 130.9C80.9469 130.02 82.7768 129.846 83.7833 130.9C84.4695 131.624 84.6159 132.715 84.5335 133.704C84.3322 136.069 83.0604 138.195 81.7978 140.202C77.4151 147.203 72.7579 154.049 67.8446 160.692C66.8472 162.04 65.8133 163.405 64.4134 164.303C63.8919 164.633 63.2697 164.908 62.6658 164.743C62.6475 164.734 62.6293 164.725 62.6201 164.725C62.2084 166.338 61.9156 167.996 61.7783 169.71C61.76 169.967 61.7417 170.232 61.8149 170.379C61.8515 170.443 61.9156 170.498 62.0162 170.535C62.1901 170.599 62.4188 170.581 62.5835 170.498C63.0135 170.278 63.3521 169.774 63.6998 169.243C68.0276 162.672 73.3069 156.752 78.4216 151.024C91.2585 136.637 92.3199 135.546 89.6848 127.115C87.498 120.077 83.0696 105.277 80.6083 100.393Z" fill="#0246AF"/>
<path d="M66.7833 175.831C66.5912 174.301 66.3533 172.78 66.0697 171.267C65.9782 170.782 65.8775 170.269 65.5847 169.865C65.42 169.636 65.2004 169.453 65.0358 169.224C64.5417 168.537 64.624 167.62 64.6789 166.777C64.7521 165.622 64.7247 164.431 64.3221 163.35C64.1116 162.772 63.7731 162.223 63.2516 161.893C62.9039 161.682 62.4738 161.59 62.0804 161.673C61.8334 161.874 61.5955 162.131 61.3576 162.461C60.3054 163.909 60.5982 165.742 60.9733 167.217C61.5497 169.517 62.1262 171.808 62.7026 174.108C63.1143 175.73 63.5901 177.462 64.8436 178.241C65.1181 178.415 65.4475 178.525 65.7952 178.48C66.2069 178.241 66.5363 177.921 66.7193 177.472C66.9114 176.958 66.8474 176.381 66.7833 175.831Z" fill="#97B2F8"/>
<path d="M62.0803 161.682C62.4738 161.599 62.9038 161.682 63.2515 161.902C63.773 162.223 64.1024 162.782 64.322 163.359C64.7246 164.44 64.752 165.632 64.6788 166.786C64.6239 167.629 64.5507 168.546 65.0357 169.233C65.2004 169.462 65.42 169.646 65.5846 169.875C65.8774 170.278 65.9781 170.782 66.0696 171.277C66.3532 172.789 66.5911 174.31 66.7833 175.84C66.8565 176.39 66.9114 176.968 66.7101 177.481C66.5362 177.93 66.1977 178.251 65.7859 178.489C65.9232 178.471 66.0513 178.434 66.1885 178.37C66.893 178.012 67.2682 177.023 67.3048 176.216C67.3414 175.41 67.1401 174.677 67.1858 173.861C67.3139 171.872 67.7257 169.462 67.6342 167.464C67.5793 166.172 67.8812 165.009 67.3871 163.945C66.6094 162.232 64.1847 159.932 62.0803 161.682Z" fill="#97B2F8"/>
<path d="M144.336 70.3709C144.345 70.3068 144.363 70.2426 144.372 70.1785C144.436 69.7569 144.51 69.317 144.757 68.9688C145.168 68.3731 145.955 68.1899 146.669 68.0891C147.2 68.0157 147.758 67.9791 148.279 68.1257C148.993 68.3365 149.56 68.8955 149.899 69.5553C150.228 70.2151 150.347 70.9757 150.338 71.7089C150.338 71.8372 150.329 71.9838 150.265 72.0938C150.192 72.2221 150.054 72.2954 149.926 72.3595C149.13 72.7536 148.06 72.6894 147.291 73.2118C146.266 73.9174 145.955 75.2279 145.452 76.2817C144.601 78.0596 143.887 79.8924 143.293 81.771C142.277 84.9785 141.499 88.2409 139.981 91.2742C138.956 93.3178 137.291 98.7063 135.031 99.3203C132.377 100.044 127.72 98.3855 127.601 95.8471C127.464 92.9054 127.921 93.4003 128.553 93.4827C128.772 93.5102 129.019 93.4827 129.266 93.2353C129.504 92.8962 129.87 92.603 130.136 92.2914C132.981 89.0107 135.195 85.1617 137.455 81.4778C138.69 79.4617 139.917 77.4456 141.207 75.457C142.241 73.8808 143.952 72.2221 144.336 70.3709Z" fill="#D5E0FC"/>
<path d="M132.908 93.1346C130.09 88.9925 122.239 77.2899 121.169 75.6404C121.123 75.5579 121.086 75.4846 121.041 75.393C120.272 73.9175 116.713 70.1969 114.078 68.5657C111.946 65.8806 108.35 64.5244 104.928 63.498C103.629 63.1039 102.421 62.884 101.277 62.774C95.5864 61.0328 88.898 60.9412 88.8888 60.9412C87.0223 60.7029 84.8172 61.6652 83.0147 62.0775C82.7585 62.1325 82.5024 62.1967 82.2919 62.3525C82.0815 62.5083 81.9351 62.774 81.99 63.0214C82.0449 63.2506 82.2553 63.4063 82.4475 63.5438C83.216 64.0936 83.9663 64.7168 84.4604 65.5324C84.8355 66.1464 85.8145 67.6676 85.8969 68.3366C86.025 69.3263 83.8291 70.2794 82.8958 70.8934C80.3247 72.5888 77.7628 74.2933 75.2101 76.0253C72.8403 77.629 70.2052 79.1136 68.1282 81.0747C66.0055 83.0633 64.0109 85.1069 62.2816 87.4529C61.5954 88.3876 60.9366 89.359 60.1314 90.2021C58.5394 91.8608 56.4899 92.6123 54.6874 93.9044C52.9764 95.1232 50.3779 97.0569 50.4694 99.3571C50.7164 105.589 62.2725 108.952 66.8198 110.473C69.2628 111.289 71.7515 111.949 74.2768 112.443C76.125 112.801 77.7628 112.682 79.5928 112.672C81.505 112.663 83.1245 112.911 84.9545 112.104C88.3398 110.601 89.1359 107.22 89.7946 103.893C90.3894 100.897 94.0675 98.1016 96.4098 96.2779C99.0815 94.1977 101.836 92.2182 104.553 90.1838C106.456 88.7634 108.204 87.1322 110.226 85.8767C111.223 85.2535 112.275 84.722 113.401 84.3921C114.846 83.9706 115.139 84.3005 116.018 85.4826C119.147 89.7348 122.587 93.3363 126.21 96.168C128.141 97.68 130.309 98.9905 132.313 97.9916C133.063 97.6159 133.85 96.6262 133.768 95.279C133.704 94.3901 133.292 93.712 132.908 93.1346Z" fill="#97B2F8"/>
<path d="M15.7007 182.906C16.268 181.531 16.7987 180.157 17.2836 178.773C17.4392 178.324 17.5947 177.857 17.5032 177.426C17.4575 177.178 17.3294 176.958 17.2745 176.711C17.1281 175.987 17.6679 175.208 18.1437 174.502C18.7933 173.531 19.3698 172.496 19.507 171.451C19.5802 170.892 19.5253 170.324 19.1776 169.893C18.9397 169.609 18.5554 169.416 18.1254 169.371C17.7777 169.481 17.4026 169.627 17.0091 169.838C15.2433 170.782 14.6119 172.45 14.2368 173.824C13.6604 175.969 13.0839 178.104 12.4984 180.248C12.0866 181.76 11.6932 183.392 12.5533 184.418C12.7454 184.647 13.0107 184.84 13.3767 184.895C13.9074 184.803 14.4015 184.629 14.8041 184.29C15.2616 183.914 15.4903 183.401 15.7007 182.906Z" fill="#97B2F8"/>
<path d="M18.1255 169.38C18.5555 169.426 18.949 169.618 19.1777 169.902C19.5346 170.333 19.5895 170.901 19.5071 171.46C19.3607 172.514 18.7934 173.54 18.1438 174.512C17.668 175.217 17.1282 175.987 17.2746 176.72C17.3203 176.968 17.4484 177.188 17.5033 177.435C17.5948 177.866 17.4393 178.333 17.2837 178.782C16.7988 180.166 16.2773 181.541 15.7008 182.915C15.4996 183.41 15.2708 183.923 14.8133 184.308C14.4107 184.647 13.9167 184.821 13.386 184.913C13.5232 184.94 13.6788 184.94 13.8435 184.922C14.7218 184.812 15.6002 184.07 16.0394 183.382C16.4786 182.695 16.6524 182.008 17.1099 181.321C18.2353 179.644 19.8548 177.682 20.7698 175.95C21.3645 174.823 22.2429 173.907 22.2886 172.853C22.3526 171.158 21.0991 168.482 18.1255 169.38Z" fill="#97B2F8"/>
<path d="M135.955 52.0061C134.18 50.4116 132.762 48.4229 130.593 47.085C127.052 44.9039 121.498 42.7229 117.884 45.8937C116.356 47.2316 115.103 49.1011 114.609 51.0805C114.124 53.0142 113.474 54.9111 112.943 56.8539C112.834 57.2663 112.092 59.5482 113.254 58.9158C114.343 58.3293 115.359 57.6145 116.265 56.7623C116.997 56.075 117.591 54.9936 118.323 54.3338C118.451 54.3521 118.58 54.3613 118.717 54.3613C118.973 54.7278 119.22 55.0852 119.522 55.4152C119.769 55.6901 120.062 55.9558 120.428 56.0017C120.995 56.075 121.471 55.6076 121.846 55.1769C122.102 54.8836 122.468 54.233 122.88 53.9214C123.145 54.8286 123.658 55.6717 124.426 56.3407C125.725 57.4771 127.427 57.8436 128.992 57.4771C129.019 57.4862 129.038 57.4862 129.065 57.4954C129.394 58.2652 129.907 58.98 130.575 59.5665C132.213 61.0052 134.811 61.5184 136.76 60.4004C137.702 59.8597 138.434 58.76 138.956 57.8161C139.111 57.5229 140.374 54.3521 139.944 54.2421C138.297 53.8298 137.053 52.9958 135.955 52.0061Z" fill="#2564F4"/>
<path d="M162.132 106.386C163.925 111.481 159.561 117.667 152.378 120.206C145.196 122.744 137.922 120.682 136.129 115.587C134.335 110.492 138.7 104.306 145.882 101.767C153.065 99.229 160.339 101.3 162.132 106.386Z" fill="#0246AF"/>
<path d="M161.51 105.113C163.303 110.208 158.939 116.394 151.756 118.932C144.574 121.47 137.3 119.408 135.506 114.313C133.713 109.218 138.077 103.032 145.26 100.494C152.433 97.9462 159.707 100.017 161.51 105.113Z" fill="#2564F4"/>
<path d="M153.842 109.649C153.577 108.897 152.726 108.448 151.655 108.393C151.811 107.972 151.848 107.55 151.701 107.147C151.354 106.148 150.091 105.653 148.7 105.873L148.243 104.572L146.312 105.259L146.742 106.478L146.102 106.707L145.672 105.488L143.741 106.175L144.171 107.394L143.201 107.733L143.686 109.099L144.656 108.76L146.23 113.232L145.26 113.571L145.745 114.936L146.715 114.597L147.026 115.468L148.956 114.781L148.645 113.91L149.286 113.681L149.597 114.551L151.527 113.864L151.216 112.994C153.083 112.334 154.263 110.831 153.842 109.649ZM148.38 107.431C148.993 107.211 149.615 107.394 149.771 107.825C149.89 108.173 149.679 108.576 149.267 108.833L147.126 109.594L146.587 108.063L148.38 107.431ZM150.722 111.637L148.179 112.535L147.639 111.005L149.432 110.373C149.643 110.299 149.835 110.208 150.027 110.116L150.173 110.061C150.969 109.777 151.765 109.905 151.921 110.327C152.058 110.758 151.518 111.362 150.722 111.637Z" fill="white"/>
<path d="M149.295 147.304C144.153 147.688 142.323 151.492 145.223 155.753C148.124 160.014 154.702 163.194 159.835 162.809C164.977 162.424 166.807 158.621 163.907 154.36C161.016 150.099 154.437 146.919 149.295 147.304Z" fill="#0246AF"/>
<path d="M148.352 147.945C143.21 148.33 141.38 152.133 144.281 156.394C147.181 160.656 153.76 163.836 158.893 163.451C164.035 163.066 165.865 159.263 162.964 155.001C160.073 150.74 153.495 147.56 148.352 147.945Z" fill="#2564F4"/>
<path d="M153.531 152.399C153.723 152.426 153.925 152.472 154.135 152.555C154.565 152.719 154.894 152.967 155.041 153.269C155.196 153.59 155.288 153.902 155.398 154.213C155.48 154.433 155.544 154.644 155.608 154.864C155.626 154.937 155.672 154.965 155.773 154.992C156.203 155.148 156.642 155.295 157.063 155.487C157.969 155.89 158.637 156.504 159.003 157.155C159.414 157.87 159.46 158.456 158.984 158.914C158.554 159.327 157.923 159.574 157.173 159.712C156.615 159.822 156.029 159.877 155.389 159.849C154.391 159.822 153.357 159.675 152.278 159.336C151.436 159.07 150.64 158.704 149.99 158.163C148.929 157.274 148.59 156.074 149.277 155.478C149.478 155.304 149.734 155.157 149.981 155.01C150.054 154.965 150.073 154.928 150.009 154.846C149.67 154.433 149.341 154.012 148.984 153.599C148.718 153.278 148.645 152.93 148.773 152.683C149.139 151.968 150.96 152.481 151.436 153.37C151.601 153.682 151.784 154.002 151.967 154.314C152.003 154.387 152.049 154.461 152.095 154.543C152.461 154.543 152.808 154.543 153.174 154.543C153.156 154.506 153.138 154.47 153.119 154.424C152.9 154.039 152.68 153.654 152.479 153.269C152.333 152.994 152.342 152.756 152.543 152.591C152.763 152.426 153.129 152.353 153.531 152.399Z" fill="white"/>
<path d="M156.102 156.77C156.166 156.963 156.239 157.137 156.13 157.265C156.011 157.393 155.782 157.384 155.535 157.228C155.169 156.999 154.922 156.587 155.032 156.358C155.141 156.129 155.489 156.184 155.819 156.468C155.947 156.569 156.02 156.688 156.102 156.77Z" fill="white"/>
<path d="M152.653 156.806C152.644 156.834 152.68 156.88 152.698 156.907C152.717 156.944 152.726 156.99 152.735 157.026C152.744 157.109 152.735 157.182 152.698 157.246C152.607 157.402 152.387 157.402 152.113 157.246C151.71 157.026 151.463 156.55 151.619 156.33C151.747 156.147 152.058 156.22 152.278 156.394C152.424 156.513 152.543 156.632 152.653 156.761C152.662 156.77 152.662 156.77 152.662 156.779C152.662 156.788 152.662 156.788 152.653 156.806C152.662 156.797 152.653 156.797 152.653 156.806Z" fill="white"/>
<path d="M152.688 157.265C152.839 157.095 152.714 156.736 152.409 156.463C152.103 156.19 151.733 156.107 151.581 156.277C151.43 156.447 151.555 156.806 151.86 157.079C152.166 157.352 152.536 157.435 152.688 157.265Z" fill="#2564F4"/>
<path d="M156.15 157.277C156.301 157.107 156.176 156.748 155.871 156.475C155.566 156.202 155.195 156.119 155.044 156.288C154.892 156.458 155.017 156.817 155.323 157.09C155.628 157.363 155.999 157.447 156.15 157.277Z" fill="#2564F4"/>
<path d="M194.604 167.245C196.516 162.159 195.501 157.054 192.362 155.57V155.561L192.271 155.533C192.198 155.496 192.125 155.46 192.051 155.432C191.813 155.341 191.566 155.277 191.31 155.231L191.264 155.222V155.231C188.016 154.663 184.164 157.778 182.334 162.635C180.459 167.639 181.41 172.67 184.43 174.237L184.311 174.283L184.841 174.429C184.86 174.439 184.869 174.448 184.887 174.448C185.134 174.539 185.381 174.604 185.628 174.649L185.683 174.668V174.659C188.94 175.208 192.783 172.093 194.604 167.245Z" fill="#0246AF"/>
<path d="M193.515 166.906C191.539 172.157 187.193 175.383 183.808 174.1C180.422 172.826 179.278 167.529 181.246 162.278C183.222 157.027 187.568 153.801 190.953 155.084C194.348 156.358 195.492 161.655 193.515 166.906Z" fill="#2564F4"/>
<path d="M186.242 160.839C185.811 161.315 185.354 161.838 184.915 162.333C185.994 164.523 187.074 166.731 188.154 168.922C188.593 168.436 189.05 167.914 189.48 167.428C188.41 165.247 187.321 163.038 186.242 160.839Z" fill="white"/>
<path d="M184.128 163.204C183.689 163.698 183.222 164.221 182.792 164.707C183.872 166.897 184.951 169.105 186.022 171.286C186.452 170.801 186.918 170.278 187.358 169.774C186.296 167.621 185.217 165.412 184.128 163.204Z" fill="white"/>
<path d="M188.19 162.425C188.858 163.781 189.535 165.165 190.203 166.521C190.651 166.017 191.109 165.495 191.548 165.009C190.88 163.653 190.203 162.269 189.535 160.903C189.114 161.38 188.648 161.902 188.19 162.425Z" fill="white"/>
<path d="M189.069 160.152C188.822 159.657 188.556 159.116 188.309 158.603C187.87 159.098 187.413 159.62 186.973 160.106C187.22 160.61 187.486 161.151 187.733 161.664C188.154 161.178 188.611 160.656 189.069 160.152Z" fill="white"/>
<path d="M199.435 119.527C197.687 123.303 191.219 124.018 184.979 121.122C178.738 118.226 175.097 112.819 176.844 109.044C178.592 105.268 185.061 104.553 191.301 107.449C197.541 110.336 201.173 115.743 199.435 119.527Z" fill="#0246AF"/>
<path d="M200.103 117.511C198.355 121.287 191.887 122.002 185.646 119.106C179.406 116.21 175.765 110.803 177.512 107.027C179.26 103.252 185.738 102.537 191.969 105.433C198.209 108.32 201.851 113.726 200.103 117.511Z" fill="#2564F4"/>
<path d="M193.341 110.666C193.68 111.243 194.046 111.866 194.394 112.453C191.42 112.929 188.419 113.396 185.454 113.873C185.107 113.286 184.75 112.663 184.402 112.077C187.348 111.619 190.349 111.142 193.341 110.666Z" fill="white"/>
<path d="M195.007 113.506C195.354 114.102 195.72 114.725 196.068 115.312C193.094 115.779 190.102 116.256 187.138 116.723C186.799 116.146 186.433 115.522 186.086 114.918C189.014 114.459 192.015 113.983 195.007 113.506Z" fill="white"/>
<path d="M192.701 109.63C190.862 109.923 188.986 110.216 187.138 110.51C186.781 109.905 186.415 109.282 186.076 108.695C187.915 108.402 189.791 108.109 191.639 107.815C191.978 108.384 192.335 109.007 192.701 109.63Z" fill="white"/>
<path d="M182.737 109.199C183.405 109.089 184.146 108.979 184.841 108.869C185.189 109.465 185.555 110.079 185.903 110.674C185.216 110.784 184.484 110.904 183.798 111.014C183.469 110.427 183.094 109.804 182.737 109.199Z" fill="white"/>
<path d="M158.179 174.75C157.072 177.884 159.762 181.696 164.191 183.263C168.619 184.83 173.102 183.557 174.21 180.423C175.317 177.288 172.627 173.476 168.198 171.909C163.77 170.333 159.286 171.607 158.179 174.75Z" fill="#E9EEFF"/>
<path d="M158.564 173.953C157.456 177.087 160.146 180.899 164.575 182.466C169.003 184.033 173.487 182.759 174.594 179.625C175.701 176.491 173.011 172.679 168.582 171.112C164.154 169.545 159.671 170.819 158.564 173.953Z" fill="url(#paint9_linear_84_691)"/>
<path d="M169.781 176.757C169.616 176.29 169.095 176.015 168.436 175.987C168.537 175.731 168.555 175.465 168.464 175.218C168.244 174.604 167.466 174.301 166.615 174.429L166.332 173.623L165.142 174.045L165.408 174.796L165.014 174.934L164.749 174.182L163.559 174.604L163.825 175.355L163.23 175.566L163.532 176.409L164.127 176.198L165.097 178.957L164.502 179.167L164.804 180.01L165.398 179.8L165.591 180.331L166.78 179.91L166.588 179.378L166.981 179.241L167.173 179.772L168.363 179.351L168.171 178.81C169.315 178.407 170.046 177.481 169.781 176.757ZM166.423 175.392C166.798 175.254 167.183 175.364 167.274 175.639C167.347 175.85 167.219 176.107 166.963 176.262L165.645 176.73L165.316 175.786L166.423 175.392ZM167.86 177.985L166.286 178.544L165.957 177.6L167.064 177.206C167.192 177.16 167.311 177.105 167.43 177.05L167.521 177.023C168.015 176.849 168.509 176.922 168.601 177.188C168.683 177.435 168.354 177.811 167.86 177.985Z" fill="#2564F4"/>
<path d="M176.872 90.7615C178.391 86.711 177.586 82.633 175.079 81.4508V81.4416L175.006 81.4141C174.942 81.3866 174.887 81.35 174.832 81.3317C174.64 81.2583 174.438 81.2125 174.246 81.1759L174.21 81.1667V81.1759C171.62 80.7177 168.546 83.2011 167.091 87.0775C165.591 91.0639 166.35 95.0778 168.756 96.3333L168.665 96.3699L169.095 96.489C169.104 96.4982 169.122 96.4982 169.132 96.5074C169.324 96.5807 169.525 96.6265 169.726 96.6632L169.772 96.6723V96.6632C172.352 97.103 175.417 94.6287 176.872 90.7615Z" fill="#E9EEFF"/>
<path d="M176.003 90.4864C174.429 94.6744 170.961 97.2495 168.262 96.2231C165.563 95.2059 164.648 90.9813 166.222 86.7933C167.796 82.6053 171.263 80.0302 173.963 81.0566C176.662 82.0738 177.577 86.2984 176.003 90.4864Z" fill="url(#paint10_linear_84_691)"/>
<path d="M170.129 83.8793C170.239 83.806 170.358 83.7694 170.476 83.7602C170.733 83.751 170.961 83.8885 171.089 84.2001C171.227 84.53 171.337 84.8782 171.455 85.2264C171.538 85.4647 171.611 85.703 171.684 85.9504C171.712 86.0329 171.739 86.042 171.794 86.0329C172.05 86.0054 172.316 85.9687 172.572 85.9871C173.13 86.0329 173.596 86.4636 173.908 87.1051C174.255 87.8107 174.393 88.5347 174.219 89.3778C174.063 90.1384 173.77 90.7799 173.395 91.3664C173.121 91.7971 172.81 92.182 172.462 92.4936C171.922 92.9793 171.346 93.3367 170.705 93.4741C170.202 93.5749 169.717 93.5291 169.269 93.1717C168.537 92.5852 168.143 91.2289 168.399 90.0926C168.473 89.7627 168.582 89.4419 168.692 89.1212C168.72 89.0295 168.72 88.9654 168.674 88.8921C168.418 88.5347 168.162 88.1773 167.905 87.829C167.704 87.5633 167.603 87.1509 167.622 86.766C167.686 85.648 168.756 85.3547 169.168 86.2345C169.314 86.5552 169.47 86.8577 169.626 87.1692C169.662 87.2425 169.699 87.3159 169.735 87.3983C169.927 87.2059 170.12 87.0226 170.312 86.8302C170.293 86.7935 170.275 86.7477 170.257 86.711C170.074 86.3261 169.882 85.9504 169.699 85.5655C169.571 85.2906 169.534 84.979 169.616 84.6583C169.717 84.3192 169.9 84.026 170.129 83.8793Z" fill="#2564F4"/>
<path d="M172.297 88.1499C172.37 88.3607 172.434 88.544 172.398 88.7639C172.361 88.993 172.233 89.103 172.078 89.0297C171.84 88.9289 171.638 88.5257 171.648 88.1774C171.666 87.82 171.858 87.7192 172.087 87.8934C172.169 87.9667 172.233 88.0766 172.297 88.1499Z" fill="#2564F4"/>
<path d="M170.458 90.0101C170.458 90.0559 170.486 90.0834 170.504 90.12C170.522 90.1567 170.531 90.2025 170.54 90.2483C170.559 90.3491 170.568 90.4499 170.559 90.5507C170.54 90.8073 170.421 90.9173 170.248 90.8623C169.991 90.789 169.772 90.3125 169.818 89.9459C169.854 89.6435 170.028 89.5702 170.184 89.6801C170.284 89.7535 170.367 89.8543 170.449 89.9551C170.449 89.9642 170.458 89.9642 170.458 89.9734C170.458 89.9826 170.458 89.9917 170.458 90.0009C170.458 90.0009 170.458 90.0009 170.458 90.0101Z" fill="#2564F4"/>
<path d="M169.992 89.616C170.184 89.5611 170.422 89.7902 170.522 90.1384C170.623 90.4866 170.559 90.8074 170.367 90.8624C170.175 90.9173 169.937 90.6882 169.836 90.34C169.735 89.9918 169.799 89.671 169.992 89.616Z" fill="url(#paint11_linear_84_691)"/>
<path d="M171.849 87.7923C172.041 87.7373 172.279 87.9664 172.379 88.3147C172.48 88.6629 172.416 88.9837 172.224 89.0386C172.032 89.0936 171.794 88.8645 171.693 88.5163C171.593 88.168 171.657 87.8565 171.849 87.7923Z" fill="url(#paint12_linear_84_691)"/>
<path d="M175.637 141.2C169.388 143.372 163.175 141.824 161.757 137.736C160.339 133.649 164.255 128.572 170.495 126.391C176.744 124.219 182.957 125.768 184.375 129.855C185.793 133.952 181.877 139.028 175.637 141.2Z" fill="#E9EEFF"/>
<path d="M176.415 142.886C170.165 145.058 163.953 143.51 162.535 139.422C161.116 135.335 165.033 130.258 171.273 128.077C177.522 125.905 183.734 127.454 185.153 131.541C186.571 135.628 182.664 140.705 176.415 142.886Z" fill="url(#paint13_linear_84_691)"/>
<path d="M178.876 137.828L177.311 131.78C177.311 131.771 177.302 131.762 177.302 131.762C177.302 131.752 177.293 131.752 177.293 131.743C177.293 131.743 177.293 131.743 177.293 131.734L177.284 131.725C177.284 131.725 177.284 131.725 177.275 131.716C177.266 131.716 177.266 131.707 177.256 131.707C177.247 131.707 177.238 131.697 177.229 131.697H177.22C177.211 131.697 177.201 131.688 177.201 131.688H177.192C177.183 131.688 177.174 131.688 177.165 131.679C177.165 131.679 177.165 131.679 177.156 131.679C177.147 131.679 177.137 131.679 177.119 131.679L175.298 131.633C175.198 131.633 175.079 131.67 174.987 131.743L167.494 137.663C167.411 137.727 167.366 137.81 167.384 137.883L167.686 139.13C167.695 139.166 167.713 139.194 167.75 139.212C167.786 139.23 167.832 139.239 167.878 139.239L176.964 139.34C176.973 139.34 176.991 139.34 177 139.34C177.009 139.34 177.018 139.34 177.037 139.34H177.046C177.055 139.34 177.064 139.34 177.073 139.331H177.083C177.092 139.331 177.11 139.322 177.119 139.322C177.128 139.322 177.147 139.313 177.156 139.304H177.165C177.174 139.304 177.183 139.294 177.192 139.294C177.192 139.294 177.201 139.294 177.201 139.285C177.211 139.276 177.22 139.276 177.229 139.267C177.238 139.258 177.247 139.249 177.256 139.249L178.748 138.076C178.848 137.984 178.894 137.892 178.876 137.828ZM175.234 132.073L176.396 132.101L170.852 136.481C170.769 136.545 170.724 136.628 170.742 136.701C170.751 136.738 170.769 136.765 170.806 136.784C170.842 136.802 170.879 136.811 170.934 136.811L174.347 136.893L174.53 137.636L168.262 137.572L175.234 132.073ZM173.459 136.426L174.109 135.913L174.246 136.444L173.459 136.426ZM168.271 138.79L168.088 138.012L174.813 138.085C174.914 138.085 175.033 138.048 175.115 137.975C175.198 137.911 175.243 137.828 175.225 137.755L174.951 136.619C174.951 136.6 174.951 136.582 174.951 136.564L174.658 135.473L175.628 134.712L176.698 138.882L168.271 138.79ZM177.302 138.671L176.149 134.172C176.131 134.098 176.058 134.062 175.957 134.062C175.856 134.062 175.738 134.098 175.655 134.172L174.136 135.372C174.127 135.381 174.118 135.381 174.118 135.391L172.81 136.417L171.657 136.389L176.79 132.339L178.235 137.938L177.302 138.671Z" fill="#2564F4"/>
<defs>
<linearGradient id="paint0_linear_84_691" x1="85.3613" y1="228.979" x2="249.933" y2="228.979" gradientUnits="userSpaceOnUse">
<stop stop-color="#92A6F1"/>
<stop offset="0.4563" stop-color="#A7B7F4"/>
<stop offset="0.4724" stop-color="#B7C4F6"/>
<stop offset="0.5019" stop-color="#DDE3FB"/>
</linearGradient>
<linearGradient id="paint1_linear_84_691" x1="136.627" y1="100.645" x2="136.895" y2="207.089" gradientUnits="userSpaceOnUse">
<stop offset="0.1657" stop-color="#0A172B"/>
<stop offset="0.2115" stop-color="#0A1930"/>
<stop offset="0.2648" stop-color="#0B203E"/>
<stop offset="0.3219" stop-color="#0B2A55"/>
<stop offset="0.3816" stop-color="#0D3976"/>
<stop offset="0.4433" stop-color="#0E4CA0"/>
<stop offset="0.506" stop-color="#1063D3"/>
<stop offset="0.5151" stop-color="#1067DB"/>
</linearGradient>
<linearGradient id="paint2_linear_84_691" x1="167.48" y1="205.019" x2="167.48" y2="109.511" gradientUnits="userSpaceOnUse">
<stop stop-color="#DBE2FD"/>
<stop offset="0.0976" stop-color="#BACBFB" stop-opacity="0.9024"/>
<stop offset="0.2506" stop-color="#8DACF9" stop-opacity="0.7494"/>
<stop offset="0.4046" stop-color="#6792F7" stop-opacity="0.5954"/>
<stop offset="0.5572" stop-color="#4A7EF6" stop-opacity="0.4428"/>
<stop offset="0.7082" stop-color="#3670F5" stop-opacity="0.2918"/>
<stop offset="0.8567" stop-color="#2967F4" stop-opacity="0.1433"/>
<stop offset="1" stop-color="#2564F4" stop-opacity="0"/>
</linearGradient>
<linearGradient id="paint3_linear_84_691" x1="203.761" y1="18.928" x2="203.27" y2="214.197" gradientUnits="userSpaceOnUse">
<stop offset="0.1657" stop-color="#0A172B"/>
<stop offset="0.2082" stop-color="#0B1930"/>
<stop offset="0.2576" stop-color="#0D1E3E"/>
<stop offset="0.3105" stop-color="#102755"/>
<stop offset="0.366" stop-color="#143476"/>
<stop offset="0.4233" stop-color="#1A44A0"/>
<stop offset="0.4814" stop-color="#2157D3"/>
<stop offset="0.5151" stop-color="#2564F4"/>
</linearGradient>
<linearGradient id="paint4_linear_84_691" x1="167.849" y1="13.6803" x2="167.357" y2="208.949" gradientUnits="userSpaceOnUse">
<stop offset="0.1657" stop-color="#0A172B"/>
<stop offset="0.2115" stop-color="#0A1930"/>
<stop offset="0.2648" stop-color="#0B203E"/>
<stop offset="0.3219" stop-color="#0B2A55"/>
<stop offset="0.3816" stop-color="#0D3976"/>
<stop offset="0.4433" stop-color="#0E4CA0"/>
<stop offset="0.506" stop-color="#1063D3"/>
<stop offset="0.5151" stop-color="#1067DB"/>
</linearGradient>
<linearGradient id="paint5_linear_84_691" x1="149.293" y1="25.76" x2="148.802" y2="221.018" gradientUnits="userSpaceOnUse">
<stop offset="0.1657" stop-color="#0A172B"/>
<stop offset="0.2115" stop-color="#0A1930"/>
<stop offset="0.2648" stop-color="#0B203E"/>
<stop offset="0.3219" stop-color="#0B2A55"/>
<stop offset="0.3816" stop-color="#0D3976"/>
<stop offset="0.4433" stop-color="#0E4CA0"/>
<stop offset="0.506" stop-color="#1063D3"/>
<stop offset="0.5151" stop-color="#1067DB"/>
</linearGradient>
<linearGradient id="paint6_linear_84_691" x1="183.066" y1="28.268" x2="182.542" y2="236.303" gradientUnits="userSpaceOnUse">
<stop offset="0.1657" stop-color="#0A172B"/>
<stop offset="0.2115" stop-color="#0A1930"/>
<stop offset="0.2648" stop-color="#0B203E"/>
<stop offset="0.3219" stop-color="#0B2A55"/>
<stop offset="0.3816" stop-color="#0D3976"/>
<stop offset="0.4433" stop-color="#0E4CA0"/>
<stop offset="0.506" stop-color="#1063D3"/>
<stop offset="0.5151" stop-color="#1067DB"/>
</linearGradient>
<linearGradient id="paint7_linear_84_691" x1="192.92" y1="22.1307" x2="192.396" y2="230.166" gradientUnits="userSpaceOnUse">
<stop offset="0.1657" stop-color="#0A172B"/>
<stop offset="0.2082" stop-color="#0B1930"/>
<stop offset="0.2576" stop-color="#0D1E3E"/>
<stop offset="0.3105" stop-color="#102755"/>
<stop offset="0.366" stop-color="#143476"/>
<stop offset="0.4233" stop-color="#1A44A0"/>
<stop offset="0.4814" stop-color="#2157D3"/>
<stop offset="0.5151" stop-color="#2564F4"/>
</linearGradient>
<linearGradient id="paint8_linear_84_691" x1="150.828" y1="26.7504" x2="151.352" y2="234.786" gradientUnits="userSpaceOnUse">
<stop offset="0.1657" stop-color="#0A172B"/>
<stop offset="0.2115" stop-color="#0A1930"/>
<stop offset="0.2648" stop-color="#0B203E"/>
<stop offset="0.3219" stop-color="#0B2A55"/>
<stop offset="0.3816" stop-color="#0D3976"/>
<stop offset="0.4433" stop-color="#0E4CA0"/>
<stop offset="0.506" stop-color="#1063D3"/>
<stop offset="0.5151" stop-color="#1067DB"/>
</linearGradient>
<linearGradient id="paint9_linear_84_691" x1="166.579" y1="183.252" x2="165.857" y2="170.366" gradientUnits="userSpaceOnUse">
<stop stop-color="white"/>
<stop offset="0.4982" stop-color="#FCFDFF"/>
<stop offset="0.7974" stop-color="#F4F7FF"/>
<stop offset="1" stop-color="#E9EEFF"/>
</linearGradient>
<linearGradient id="paint10_linear_84_691" x1="171.112" y1="96.4487" x2="171.112" y2="80.831" gradientUnits="userSpaceOnUse">
<stop stop-color="white"/>
<stop offset="0.7261" stop-color="#F0F3FF"/>
<stop offset="1" stop-color="#E9EEFF"/>
</linearGradient>
<linearGradient id="paint11_linear_84_691" x1="169.787" y1="90.2348" x2="170.567" y2="90.2348" gradientUnits="userSpaceOnUse">
<stop stop-color="white"/>
<stop offset="0.7261" stop-color="#F0F3FF"/>
<stop offset="1" stop-color="#E9EEFF"/>
</linearGradient>
<linearGradient id="paint12_linear_84_691" x1="171.644" y1="88.4192" x2="172.424" y2="88.4192" gradientUnits="userSpaceOnUse">
<stop stop-color="white"/>
<stop offset="0.7261" stop-color="#F0F3FF"/>
<stop offset="1" stop-color="#E9EEFF"/>
</linearGradient>
<linearGradient id="paint13_linear_84_691" x1="162.244" y1="135.482" x2="185.443" y2="135.482" gradientUnits="userSpaceOnUse">
<stop stop-color="white"/>
<stop offset="0.4982" stop-color="#FCFDFF"/>
<stop offset="0.7974" stop-color="#F4F7FF"/>
<stop offset="1" stop-color="#E9EEFF"/>
</linearGradient>
</defs>
</svg>
