<?xml version="1.0" encoding="UTF-8"?>
<svg width="519px" height="604px" viewBox="0 0 519 604" version="1.1" xmlns="http://www.w3.org/2000/svg" xmlns:xlink="http://www.w3.org/1999/xlink">
    <title>形状</title>
    <defs>
        <linearGradient x1="15.9352778%" y1="25.2257588%" x2="85.4735648%" y2="71.8946154%" id="linearGradient-1">
            <stop stop-color="#08E6A0" offset="0%"></stop>
            <stop stop-color="#2C9DE1" offset="100%"></stop>
        </linearGradient>
    </defs>
    <g id="页面-1" stroke="none" stroke-width="1" fill="none" fill-rule="evenodd">
        <g id="logo-使用请下载svg格式" transform="translate(-2167.000000, -846.000000)" fill="url(#linearGradient-1)" fill-rule="nonzero">
            <path d="M2726.9298,1304.8332 L2486.64935,895.544294 C2484.23356,891.386072 2479.40463,889.009761 2474.57437,889.009761 L2378.58213,889.009761 C2373.75319,889.009761 2368.92294,891.386072 2366.50847,895.544294 L2126.83032,1304.8332 C2124.41586,1308.99142 2124.41586,1314.33715 2126.83032,1318.49537 L2175.12891,1400.47229 C2177.54338,1404.63051 2182.37364,1407.00682 2187.20257,1407.00682 L2667.16116,1407.00682 C2671.99142,1407.00682 2676.82167,1404.63051 2679.23614,1400.47229 L2727.53341,1318.49537 C2729.34558,1314.33715 2729.34558,1308.99142 2726.9298,1304.8332 Z M2387.03541,916.335401 L2451.02936,916.335401 L2271.11984,1222.85628 C2268.70537,1227.0145 2268.70537,1232.36152 2271.11984,1236.51975 C2273.53563,1240.67797 2278.36456,1243.05428 2283.19482,1243.05428 L2467.32965,1243.05428 L2499.32663,1297.70426 L2163.05394,1297.70426 L2387.03541,916.335401 Z M2426.88072,1175.33393 L2451.02936,1216.32174 L2402.73208,1216.32174 L2426.88072,1175.33393 Z M2163.05394,1325.0299 L2522.87165,1325.0299 C2527.7019,1325.0299 2532.53216,1322.65359 2534.94662,1318.49537 C2537.36109,1314.33715 2537.36109,1308.99142 2534.94662,1304.8332 L2443.18102,1148.00829 L2475.17799,1093.35701 L2643.01253,1379.68118 L2195.05091,1379.68118 L2163.05394,1325.0299 Z M2667.16116,1366.01901 L2486.64935,1059.49684 C2484.23356,1055.33862 2479.40463,1052.9636 2474.57437,1052.9636 C2469.74412,1052.9636 2464.91518,1055.33862 2462.4994,1059.49684 L2370.73379,1216.32174 L2306.73984,1216.32174 L2475.17799,929.997573 L2699.15946,1311.96084 L2667.16116,1366.01901 Z" id="形状" transform="translate(2426.922334, 1148.008292) rotate(90.000000) translate(-2426.922334, -1148.008292) "></path>
        </g>
    </g>
</svg>