<svg width="158" height="68" viewBox="0 0 158 68" fill="none" xmlns="http://www.w3.org/2000/svg">
<path d="M148.688 67.7608H9.2517C4.1302 67.7608 0 63.6243 0 58.4952V20.6055H157.774V58.4952C157.774 63.6243 153.644 67.7608 148.688 67.7608Z" fill="#0A172B"/>
<path d="M148.688 0.75H9.2517C4.1302 0.75 0 4.8864 0 10.0156V20.6049H157.774V10.0156C157.774 4.8864 153.644 0.75 148.688 0.75Z" fill="#1A2D4A"/>
<path d="M18.5257 10.3468C18.5257 12.0014 17.0389 13.4905 15.3868 13.4905C13.7347 13.4905 12.2478 12.0014 12.2478 10.3468C12.2478 8.69223 13.7347 7.20312 15.3868 7.20312C17.0389 7.20312 18.5257 8.69223 18.5257 10.3468Z" fill="#FFC3D0"/>
<path d="M32.2381 10.3468C32.2381 12.0014 30.7512 13.4905 29.0991 13.4905C27.4471 13.4905 25.9602 12.0014 25.9602 10.3468C25.9602 8.69223 27.4471 7.20312 29.0991 7.20312C30.7512 7.20312 32.2381 8.69223 32.2381 10.3468Z" fill="#F5D79B"/>
<path d="M45.785 10.3468C45.785 12.0014 44.2982 13.4905 42.6461 13.4905C40.994 13.4905 39.5071 12.0014 39.5071 10.3468C39.5071 8.69223 40.994 7.20312 42.6461 7.20312C44.4634 7.20312 45.785 8.69223 45.785 10.3468Z" fill="#6AEBE7"/>
<path d="M46.433 36.3758C46.433 36.3291 46.447 36.2918 46.475 36.2638C46.5124 36.2265 46.5544 36.2078 46.601 36.2078H47.889C47.9357 36.2078 47.973 36.2265 48.001 36.2638C48.0384 36.2918 48.057 36.3291 48.057 36.3758V45.8398C48.057 45.8865 48.0384 45.9285 48.001 45.9658C47.973 45.9938 47.9357 46.0078 47.889 46.0078H46.531C46.447 46.0078 46.3817 45.9658 46.335 45.8818L43.283 39.6098C43.2644 39.5818 43.2457 39.5725 43.227 39.5818C43.2084 39.5818 43.199 39.6005 43.199 39.6378L43.213 45.8398C43.213 45.8865 43.1944 45.9285 43.157 45.9658C43.129 45.9938 43.0917 46.0078 43.045 46.0078H41.757C41.7104 46.0078 41.6684 45.9938 41.631 45.9658C41.603 45.9285 41.589 45.8865 41.589 45.8398V36.3758C41.589 36.3291 41.603 36.2918 41.631 36.2638C41.6684 36.2265 41.7104 36.2078 41.757 36.2078H43.101C43.1944 36.2078 43.2597 36.2498 43.297 36.3338L46.363 42.6338C46.3817 42.6618 46.4004 42.6758 46.419 42.6758C46.4377 42.6665 46.447 42.6431 46.447 42.6058L46.433 36.3758ZM52.7315 46.1338C52.1155 46.1338 51.5695 46.0078 51.0935 45.7558C50.6268 45.5038 50.2628 45.1491 50.0015 44.6918C49.7495 44.2251 49.6235 43.6885 49.6235 43.0818V39.1338C49.6235 38.5365 49.7495 38.0091 50.0015 37.5518C50.2628 37.0851 50.6268 36.7258 51.0935 36.4738C51.5695 36.2218 52.1155 36.0958 52.7315 36.0958C53.3568 36.0958 53.9028 36.2218 54.3695 36.4738C54.8455 36.7258 55.2142 37.0851 55.4755 37.5518C55.7368 38.0091 55.8675 38.5365 55.8675 39.1338V43.0818C55.8675 43.6885 55.7368 44.2251 55.4755 44.6918C55.2142 45.1491 54.8455 45.5038 54.3695 45.7558C53.9028 46.0078 53.3568 46.1338 52.7315 46.1338ZM52.7315 44.7338C53.1888 44.7338 53.5528 44.5891 53.8235 44.2998C54.1035 44.0011 54.2435 43.6185 54.2435 43.1518V39.0918C54.2435 38.6158 54.1035 38.2331 53.8235 37.9438C53.5528 37.6451 53.1888 37.4958 52.7315 37.4958C52.2835 37.4958 51.9242 37.6451 51.6535 37.9438C51.3828 38.2331 51.2475 38.6158 51.2475 39.0918V43.1518C51.2475 43.6185 51.3828 44.0011 51.6535 44.2998C51.9242 44.5891 52.2835 44.7338 52.7315 44.7338ZM66.4002 36.1938C66.9415 36.1938 67.4175 36.3151 67.8282 36.5578C68.2482 36.8005 68.5702 37.1458 68.7942 37.5938C69.0275 38.0325 69.1442 38.5365 69.1442 39.1058C69.1442 39.6658 69.0275 40.1605 68.7942 40.5898C68.5702 41.0191 68.2482 41.3551 67.8282 41.5978C67.4175 41.8311 66.9462 41.9478 66.4142 41.9478H64.6922C64.6455 41.9478 64.6222 41.9711 64.6222 42.0178V45.8398C64.6222 45.8865 64.6035 45.9285 64.5662 45.9658C64.5382 45.9938 64.5009 46.0078 64.4542 46.0078H63.1662C63.1195 46.0078 63.0775 45.9938 63.0402 45.9658C63.0122 45.9285 62.9982 45.8865 62.9982 45.8398V36.3618C62.9982 36.3151 63.0122 36.2778 63.0402 36.2498C63.0775 36.2125 63.1195 36.1938 63.1662 36.1938H66.4002ZM66.1622 40.6458C66.5729 40.6458 66.8995 40.5105 67.1422 40.2398C67.3942 39.9598 67.5202 39.5911 67.5202 39.1338C67.5202 38.6671 67.3942 38.2938 67.1422 38.0138C66.8995 37.7338 66.5729 37.5938 66.1622 37.5938H64.6922C64.6455 37.5938 64.6222 37.6171 64.6222 37.6638V40.5758C64.6222 40.6225 64.6455 40.6458 64.6922 40.6458H66.1622ZM73.3213 46.1338C72.7053 46.1338 72.1593 46.0078 71.6833 45.7558C71.2167 45.5038 70.8527 45.1491 70.5913 44.6918C70.3393 44.2251 70.2133 43.6885 70.2133 43.0818V39.1338C70.2133 38.5365 70.3393 38.0091 70.5913 37.5518C70.8527 37.0851 71.2167 36.7258 71.6833 36.4738C72.1593 36.2218 72.7053 36.0958 73.3213 36.0958C73.9467 36.0958 74.4927 36.2218 74.9593 36.4738C75.4353 36.7258 75.804 37.0851 76.0653 37.5518C76.3267 38.0091 76.4573 38.5365 76.4573 39.1338V43.0818C76.4573 43.6885 76.3267 44.2251 76.0653 44.6918C75.804 45.1491 75.4353 45.5038 74.9593 45.7558C74.4927 46.0078 73.9467 46.1338 73.3213 46.1338ZM73.3213 44.7338C73.7787 44.7338 74.1427 44.5891 74.4133 44.2998C74.6933 44.0011 74.8333 43.6185 74.8333 43.1518V39.0918C74.8333 38.6158 74.6933 38.2331 74.4133 37.9438C74.1427 37.6451 73.7787 37.4958 73.3213 37.4958C72.8733 37.4958 72.514 37.6451 72.2433 37.9438C71.9727 38.2331 71.8373 38.6158 71.8373 39.0918V43.1518C71.8373 43.6185 71.9727 44.0011 72.2433 44.2998C72.514 44.5891 72.8733 44.7338 73.3213 44.7338ZM80.7686 46.1198C80.1526 46.1198 79.6112 46.0125 79.1446 45.7978C78.6779 45.5738 78.3139 45.2611 78.0526 44.8598C77.8006 44.4491 77.6746 43.9778 77.6746 43.4458V43.0818C77.6746 43.0351 77.6886 42.9978 77.7166 42.9698C77.7539 42.9325 77.7959 42.9138 77.8426 42.9138H79.1026C79.1492 42.9138 79.1866 42.9325 79.2146 42.9698C79.2519 42.9978 79.2706 43.0351 79.2706 43.0818V43.3618C79.2706 43.7631 79.4106 44.0898 79.6906 44.3418C79.9706 44.5938 80.3486 44.7198 80.8246 44.7198C81.2632 44.7198 81.5992 44.6078 81.8326 44.3838C82.0659 44.1598 82.1826 43.8658 82.1826 43.5018C82.1826 43.2498 82.1172 43.0351 81.9866 42.8578C81.8559 42.6711 81.6692 42.5031 81.4266 42.3538C81.1932 42.1951 80.8292 41.9851 80.3346 41.7238C79.7652 41.4251 79.3079 41.1591 78.9626 40.9258C78.6172 40.6925 78.3232 40.3938 78.0806 40.0298C77.8472 39.6658 77.7306 39.2225 77.7306 38.6998C77.7306 37.8971 77.9966 37.2625 78.5286 36.7958C79.0699 36.3291 79.7792 36.0958 80.6566 36.0958C81.2632 36.0958 81.7999 36.2125 82.2666 36.4458C82.7332 36.6698 83.0926 36.9918 83.3446 37.4118C83.5966 37.8318 83.7226 38.3125 83.7226 38.8538V39.1478C83.7226 39.1945 83.7039 39.2365 83.6666 39.2738C83.6386 39.3018 83.6012 39.3158 83.5546 39.3158H82.2946C82.2479 39.3158 82.2059 39.3018 82.1686 39.2738C82.1406 39.2365 82.1266 39.1945 82.1266 39.1478V38.8818C82.1266 38.4805 81.9912 38.1491 81.7206 37.8878C81.4499 37.6265 81.0859 37.4958 80.6286 37.4958C80.2272 37.4958 79.9099 37.6031 79.6766 37.8178C79.4432 38.0231 79.3266 38.3125 79.3266 38.6858C79.3266 38.9378 79.3872 39.1525 79.5086 39.3298C79.6299 39.5071 79.8119 39.6751 80.0546 39.8338C80.3066 39.9925 80.6846 40.1978 81.1886 40.4498C81.8606 40.8325 82.3552 41.1311 82.6726 41.3458C82.9899 41.5605 83.2559 41.8405 83.4706 42.1858C83.6946 42.5218 83.8066 42.9371 83.8066 43.4318C83.8066 44.2531 83.5312 44.9065 82.9806 45.3918C82.4299 45.8771 81.6926 46.1198 80.7686 46.1198ZM85.3843 46.0078C85.3376 46.0078 85.2956 45.9938 85.2583 45.9658C85.2303 45.9285 85.2163 45.8865 85.2163 45.8398V36.3758C85.2163 36.3291 85.2303 36.2918 85.2583 36.2638C85.2956 36.2265 85.3376 36.2078 85.3843 36.2078H86.6723C86.719 36.2078 86.7563 36.2265 86.7843 36.2638C86.8216 36.2918 86.8403 36.3291 86.8403 36.3758V45.8398C86.8403 45.8865 86.8216 45.9285 86.7843 45.9658C86.7563 45.9938 86.719 46.0078 86.6723 46.0078H85.3843ZM94.3466 36.2078C94.3933 36.2078 94.4306 36.2265 94.4586 36.2638C94.4959 36.2918 94.5146 36.3291 94.5146 36.3758V37.4538C94.5146 37.5005 94.4959 37.5425 94.4586 37.5798C94.4306 37.6078 94.3933 37.6218 94.3466 37.6218H92.1766C92.1299 37.6218 92.1066 37.6451 92.1066 37.6918V45.8398C92.1066 45.8865 92.0879 45.9285 92.0506 45.9658C92.0226 45.9938 91.9853 46.0078 91.9386 46.0078H90.6506C90.6039 46.0078 90.5619 45.9938 90.5246 45.9658C90.4966 45.9285 90.4826 45.8865 90.4826 45.8398V37.6918C90.4826 37.6451 90.4593 37.6218 90.4126 37.6218H88.3266C88.2799 37.6218 88.2379 37.6078 88.2006 37.5798C88.1726 37.5425 88.1586 37.5005 88.1586 37.4538V36.3758C88.1586 36.3291 88.1726 36.2918 88.2006 36.2638C88.2379 36.2265 88.2799 36.2078 88.3266 36.2078H94.3466ZM96.0074 46.0078C95.9607 46.0078 95.9187 45.9938 95.8814 45.9658C95.8534 45.9285 95.8394 45.8865 95.8394 45.8398V36.3758C95.8394 36.3291 95.8534 36.2918 95.8814 36.2638C95.9187 36.2265 95.9607 36.2078 96.0074 36.2078H97.2954C97.342 36.2078 97.3794 36.2265 97.4074 36.2638C97.4447 36.2918 97.4634 36.3291 97.4634 36.3758V45.8398C97.4634 45.8865 97.4447 45.9285 97.4074 45.9658C97.3794 45.9938 97.342 46.0078 97.2954 46.0078H96.0074ZM102.142 46.1338C101.526 46.1338 100.98 46.0078 100.504 45.7558C100.037 45.5038 99.673 45.1491 99.4117 44.6918C99.1597 44.2251 99.0337 43.6885 99.0337 43.0818V39.1338C99.0337 38.5365 99.1597 38.0091 99.4117 37.5518C99.673 37.0851 100.037 36.7258 100.504 36.4738C100.98 36.2218 101.526 36.0958 102.142 36.0958C102.767 36.0958 103.313 36.2218 103.78 36.4738C104.256 36.7258 104.624 37.0851 104.886 37.5518C105.147 38.0091 105.278 38.5365 105.278 39.1338V43.0818C105.278 43.6885 105.147 44.2251 104.886 44.6918C104.624 45.1491 104.256 45.5038 103.78 45.7558C103.313 46.0078 102.767 46.1338 102.142 46.1338ZM102.142 44.7338C102.599 44.7338 102.963 44.5891 103.234 44.2998C103.514 44.0011 103.654 43.6185 103.654 43.1518V39.0918C103.654 38.6158 103.514 38.2331 103.234 37.9438C102.963 37.6451 102.599 37.4958 102.142 37.4958C101.694 37.4958 101.334 37.6451 101.064 37.9438C100.793 38.2331 100.658 38.6158 100.658 39.0918V43.1518C100.658 43.6185 100.793 44.0011 101.064 44.2998C101.334 44.5891 101.694 44.7338 102.142 44.7338ZM111.689 36.3758C111.689 36.3291 111.703 36.2918 111.731 36.2638C111.768 36.2265 111.81 36.2078 111.857 36.2078H113.145C113.192 36.2078 113.229 36.2265 113.257 36.2638C113.294 36.2918 113.313 36.3291 113.313 36.3758V45.8398C113.313 45.8865 113.294 45.9285 113.257 45.9658C113.229 45.9938 113.192 46.0078 113.145 46.0078H111.787C111.703 46.0078 111.638 45.9658 111.591 45.8818L108.539 39.6098C108.52 39.5818 108.502 39.5725 108.483 39.5818C108.464 39.5818 108.455 39.6005 108.455 39.6378L108.469 45.8398C108.469 45.8865 108.45 45.9285 108.413 45.9658C108.385 45.9938 108.348 46.0078 108.301 46.0078H107.013C106.966 46.0078 106.924 45.9938 106.887 45.9658C106.859 45.9285 106.845 45.8865 106.845 45.8398V36.3758C106.845 36.3291 106.859 36.2918 106.887 36.2638C106.924 36.2265 106.966 36.2078 107.013 36.2078H108.357C108.45 36.2078 108.516 36.2498 108.553 36.3338L111.619 42.6338C111.638 42.6618 111.656 42.6758 111.675 42.6758C111.694 42.6665 111.703 42.6431 111.703 42.6058L111.689 36.3758Z" fill="#E0ECFF"/>
</svg>
