<svg width="251" height="276" viewBox="0 0 251 276" fill="none" xmlns="http://www.w3.org/2000/svg">
<g clip-path="url(#clip0_84_1210)">
<g filter="url(#filter0_d_84_1210)">
<path d="M95.175 69.0854C95.1323 69.0598 95.0811 69.0427 95.0384 69.017C95.0128 69.0085 94.9957 69 94.9787 68.9829C94.936 68.9658 94.8933 68.9401 94.8591 68.923C94.8421 68.9145 94.825 68.906 94.8079 68.8974C94.7567 68.8718 94.714 68.8461 94.6713 68.8291C94.6286 68.8034 94.5859 68.7863 94.5518 68.7692C94.5433 68.7607 94.5347 68.7607 94.5176 68.7521C94.492 68.7436 94.475 68.7265 94.4579 68.718C94.4493 68.7094 94.4408 68.7094 94.4323 68.7009C94.4152 68.6923 94.3981 68.6838 94.3896 68.6752C94.381 68.6752 94.3811 68.6667 94.3725 68.6667C94.3554 68.6582 94.3469 68.6496 94.3384 68.6496L82.6592 61.8564C82.6677 61.8564 82.6763 61.865 82.6933 61.8735C82.7019 61.8735 82.7019 61.8821 82.7104 61.8821C82.7189 61.8906 82.736 61.8991 82.7531 61.9077C82.7616 61.9162 82.7702 61.9162 82.7787 61.9248C82.7958 61.9333 82.8129 61.9419 82.8385 61.959C82.847 61.9675 82.8641 61.9675 82.8726 61.9761C82.9068 61.9931 82.9495 62.0188 82.9921 62.0359H83.0007C83.0434 62.0615 83.086 62.0786 83.1373 62.1042C83.1543 62.1128 83.1714 62.1213 83.1885 62.1299C83.2227 62.1469 83.2653 62.164 83.2995 62.1897C83.3251 62.1982 83.3422 62.2153 83.3678 62.2239C83.4105 62.2409 83.4532 62.2666 83.5044 62.2922C83.53 62.3008 83.5471 62.3093 83.5727 62.3264C83.641 62.3606 83.7178 62.3947 83.7947 62.4289C83.8032 62.4289 83.8117 62.4375 83.8203 62.4375C83.8886 62.4717 83.9569 62.5058 84.0337 62.54C84.0593 62.5486 84.0935 62.5657 84.1191 62.5742C84.1788 62.5998 84.2386 62.6255 84.3069 62.6511C84.3411 62.6682 84.3752 62.6767 84.4008 62.6938C84.4691 62.7195 84.5374 62.7536 84.6057 62.7793C84.6399 62.7964 84.6655 62.8049 84.6996 62.822C84.8021 62.8647 84.9045 62.9074 85.0155 62.9502C85.1265 62.9929 85.2375 63.0356 85.3485 63.0783C85.3826 63.0954 85.4168 63.104 85.4595 63.1211C85.5448 63.1552 85.6217 63.1809 85.707 63.2151C85.7497 63.2322 85.7924 63.2492 85.8351 63.2663C85.9205 63.3005 86.0058 63.3261 86.0998 63.3603C86.1424 63.3774 86.1851 63.386 86.2278 63.403C86.3559 63.4458 86.4839 63.4885 86.612 63.5312C86.6205 63.5312 86.6291 63.5398 86.6291 63.5398C86.6376 63.5398 86.6547 63.5483 86.6632 63.5483C86.7657 63.5825 86.8681 63.6167 86.9791 63.6508C87.0218 63.6594 87.0559 63.6765 87.0986 63.685C87.1755 63.7107 87.2608 63.7363 87.3377 63.7619C87.3889 63.779 87.4316 63.7876 87.4828 63.8047C87.5597 63.8303 87.6365 63.8474 87.7133 63.873C87.7646 63.8901 87.8158 63.8987 87.867 63.9157C87.9438 63.9414 88.0207 63.9585 88.106 63.9841C88.1573 64.0012 88.2085 64.0097 88.2683 64.0268C88.3536 64.0525 88.439 64.0696 88.5244 64.0952C88.5756 64.1123 88.6268 64.1208 88.6781 64.1379C88.7805 64.1635 88.883 64.1892 88.9854 64.2148C89.0196 64.2234 89.0622 64.2319 89.0964 64.2404C89.233 64.2746 89.3781 64.3088 89.5233 64.3344C89.7111 64.3772 89.8989 64.4113 90.0867 64.4541C90.138 64.4626 90.1977 64.4712 90.2489 64.4883C90.3941 64.5139 90.5478 64.5481 90.6929 64.5737C90.7527 64.5822 90.8124 64.5993 90.8722 64.6079C91.06 64.6421 91.2564 64.6762 91.4527 64.7019C91.4613 64.7019 91.4698 64.7019 91.4869 64.7104C91.6918 64.7446 91.9052 64.7702 92.1186 64.8044C92.1955 64.813 92.2723 64.8215 92.3491 64.83C92.4516 64.8471 92.5626 64.8557 92.665 64.8728C92.7504 64.8813 92.8272 64.8899 92.9126 64.8984C93.0236 64.9069 93.126 64.924 93.237 64.9326C93.3224 64.9411 93.4078 64.9497 93.4932 64.9582C93.6041 64.9668 93.7151 64.9753 93.8261 64.9839C93.9115 64.9924 93.9969 65.0009 94.0908 65.0009C94.2018 65.0095 94.3127 65.018 94.4237 65.0266C94.5006 65.0351 94.5774 65.0351 94.6542 65.0437C94.9616 65.0608 95.2775 65.0693 95.6019 65.0778C95.6531 65.0778 95.7129 65.0778 95.7641 65.0778C96.0885 65.0864 96.413 65.0864 96.7459 65.0778C96.8057 65.0778 96.8569 65.0778 96.9167 65.0778C97.1984 65.0693 97.4716 65.0608 97.7619 65.0522C97.7875 65.0522 97.8131 65.0522 97.8387 65.0522C98.1375 65.0351 98.4449 65.018 98.7522 64.9924C98.8205 64.9839 98.8973 64.9839 98.9656 64.9753C99.2218 64.9582 99.4779 64.9326 99.7425 64.8984C99.7682 64.8984 99.7852 64.8899 99.8108 64.8899C100.093 64.8557 100.374 64.8215 100.665 64.7873C100.75 64.7788 100.827 64.7617 100.912 64.7531C101.1 64.7275 101.296 64.6933 101.493 64.6677C101.578 64.6506 101.663 64.6421 101.749 64.625C102.005 64.5822 102.261 64.5395 102.517 64.4883C102.534 64.4883 102.551 64.4797 102.568 64.4797C102.833 64.4284 103.089 64.3772 103.354 64.3173C103.431 64.3003 103.516 64.2832 103.593 64.2575C103.781 64.2148 103.969 64.1721 104.156 64.1208C104.259 64.0952 104.361 64.0695 104.472 64.0439C104.617 64.0097 104.771 63.967 104.916 63.9243C105.027 63.8986 105.138 63.8645 105.249 63.8303C105.403 63.7876 105.548 63.7448 105.702 63.7021C105.813 63.6679 105.924 63.6338 106.035 63.5996C106.171 63.5569 106.316 63.5141 106.453 63.4714C106.572 63.4372 106.683 63.3945 106.803 63.3603C106.948 63.3091 107.085 63.2663 107.23 63.2151C107.349 63.1723 107.46 63.1382 107.58 63.0954C107.716 63.0442 107.845 63.0014 107.981 62.9502C108.101 62.9074 108.229 62.8562 108.348 62.8135C108.485 62.7622 108.621 62.7109 108.758 62.6511C108.878 62.5998 109.006 62.5571 109.134 62.5058C109.253 62.4546 109.373 62.4033 109.501 62.352C109.637 62.2922 109.765 62.2409 109.902 62.1811C110.022 62.1299 110.15 62.07 110.269 62.0188C110.406 61.959 110.534 61.8991 110.67 61.8393C110.79 61.7795 110.918 61.7197 111.038 61.6684C111.174 61.6001 111.311 61.5403 111.439 61.4719C111.558 61.4121 111.686 61.3523 111.806 61.2839C111.943 61.2156 112.079 61.1472 112.216 61.0788C112.335 61.019 112.463 60.9507 112.583 60.8823C112.719 60.8054 112.856 60.737 113.001 60.6601C113.121 60.5918 113.249 60.5234 113.368 60.4551C113.556 60.3525 113.744 60.2414 113.94 60.1389L120.138 56.5586L131.818 63.3518L125.619 66.9321C125.517 66.9919 125.415 67.0517 125.312 67.1115C125.227 67.1628 125.141 67.2055 125.056 67.2568C124.936 67.3252 124.808 67.3935 124.689 67.4619C124.552 67.5388 124.416 67.6071 124.271 67.684C124.151 67.7524 124.023 67.8122 123.903 67.8806C123.861 67.9062 123.818 67.9233 123.775 67.9489C123.681 68.0002 123.588 68.0429 123.494 68.0856C123.374 68.1455 123.246 68.2138 123.127 68.2736C122.99 68.342 122.853 68.4018 122.717 68.4702C122.597 68.53 122.469 68.5898 122.35 68.6411C122.315 68.6582 122.281 68.6752 122.247 68.6923C122.145 68.7351 122.051 68.7778 121.948 68.8205C121.829 68.8718 121.701 68.9316 121.581 68.9829C121.445 69.0427 121.317 69.0939 121.18 69.1538C121.06 69.205 120.941 69.2563 120.813 69.3076C120.787 69.3161 120.753 69.3332 120.728 69.3417C120.634 69.3759 120.54 69.4186 120.446 69.4528C120.309 69.5041 120.173 69.5639 120.036 69.6152C119.916 69.6579 119.788 69.7092 119.669 69.7519C119.532 69.8032 119.396 69.8544 119.268 69.8972C119.233 69.9057 119.199 69.9228 119.165 69.9313C119.08 69.957 119.003 69.9912 118.918 70.0168C118.772 70.0681 118.636 70.1193 118.491 70.1621C118.371 70.2048 118.26 70.239 118.141 70.2731C118.004 70.3159 117.859 70.3586 117.722 70.4013C117.68 70.4184 117.628 70.4355 117.586 70.444C117.517 70.4611 117.458 70.4782 117.389 70.5039C117.236 70.5466 117.091 70.5893 116.937 70.632C116.826 70.6662 116.715 70.6918 116.604 70.726C116.459 70.7687 116.305 70.8029 116.16 70.8457C116.092 70.8627 116.032 70.8798 115.964 70.8969C115.921 70.9055 115.887 70.914 115.844 70.9226C115.656 70.9653 115.468 71.0165 115.289 71.0507C115.204 71.0678 115.127 71.0934 115.042 71.1105C114.777 71.1704 114.512 71.2216 114.256 71.2729H114.248C114.231 71.2729 114.222 71.2814 114.205 71.2814C113.949 71.3327 113.693 71.3754 113.437 71.4182C113.351 71.4352 113.266 71.4438 113.189 71.4609C112.993 71.4951 112.805 71.5207 112.608 71.5463C112.557 71.5549 112.506 71.5634 112.455 71.572C112.421 71.5805 112.386 71.5805 112.361 71.5805C112.079 71.6232 111.789 71.6574 111.507 71.683C111.481 71.683 111.464 71.6916 111.439 71.6916C111.174 71.7172 110.918 71.7429 110.662 71.7685C110.628 71.7685 110.585 71.777 110.551 71.777C110.517 71.777 110.483 71.777 110.448 71.7856C110.141 71.8112 109.842 71.8283 109.535 71.8454C109.509 71.8454 109.484 71.8454 109.458 71.8454C109.176 71.8539 108.895 71.8625 108.621 71.871C108.587 71.871 108.545 71.871 108.51 71.871C108.485 71.871 108.468 71.871 108.451 71.871C108.118 71.8796 107.793 71.871 107.469 71.871C107.418 71.871 107.358 71.871 107.307 71.871C106.991 71.8625 106.675 71.8539 106.359 71.8369C106.342 71.8369 106.316 71.8369 106.299 71.8369C106.24 71.8369 106.188 71.8283 106.129 71.8283C106.018 71.8198 105.907 71.8112 105.796 71.8027C105.71 71.7941 105.616 71.7856 105.531 71.7856C105.42 71.777 105.309 71.7685 105.206 71.76C105.121 71.7514 105.036 71.7429 104.95 71.7343C104.839 71.7258 104.737 71.7087 104.634 71.7001C104.549 71.6916 104.464 71.683 104.378 71.6745C104.276 71.666 104.165 71.6489 104.062 71.6403C104.011 71.6318 103.951 71.6318 103.9 71.6232C103.875 71.6232 103.858 71.6147 103.832 71.6147C103.619 71.5891 103.414 71.5549 103.2 71.5207C103.192 71.5207 103.175 71.5207 103.166 71.5122C102.97 71.478 102.782 71.4523 102.586 71.4182C102.526 71.4096 102.466 71.3925 102.406 71.384C102.261 71.3583 102.107 71.3327 101.962 71.2985C101.911 71.29 101.851 71.2814 101.8 71.2643C101.612 71.2216 101.424 71.1874 101.237 71.1447H101.228C101.091 71.1105 100.946 71.0849 100.81 71.0507C100.776 71.0422 100.741 71.0336 100.707 71.0251C100.605 70.9995 100.494 70.9738 100.391 70.9482C100.34 70.9396 100.289 70.9225 100.238 70.914C100.152 70.8884 100.067 70.8713 99.9816 70.8457C99.9304 70.8286 99.8791 70.82 99.8194 70.8029C99.7425 70.7773 99.6572 70.7602 99.5803 70.7346C99.5291 70.7175 99.4779 70.7089 99.4267 70.6918C99.3498 70.6662 99.273 70.6491 99.1962 70.6235C99.1449 70.6064 99.1022 70.5978 99.051 70.5808C98.9656 70.5551 98.8888 70.5295 98.812 70.5039C98.7693 70.4953 98.7266 70.4782 98.6924 70.4697C98.5815 70.4355 98.479 70.4013 98.368 70.3671C98.3595 70.3671 98.3509 70.3586 98.3424 70.3586C98.3339 70.3586 98.3253 70.35 98.3168 70.35C98.1887 70.3073 98.0607 70.2646 97.9326 70.2219C97.8899 70.2048 97.8472 70.1962 97.8046 70.1791C97.7192 70.145 97.6253 70.1193 97.5399 70.0851C97.4972 70.0681 97.4545 70.051 97.4033 70.0339C97.3179 69.9997 97.2325 69.9741 97.1557 69.9399C97.1216 69.9228 97.0789 69.9143 97.0447 69.8972C96.9337 69.8544 96.8228 69.8117 96.7203 69.769H96.7118C96.6008 69.7263 96.4983 69.6835 96.3959 69.6408C96.3617 69.6237 96.3361 69.6152 96.302 69.5981C96.2337 69.5725 96.1654 69.5383 96.0971 69.5126C96.0629 69.4956 96.0288 69.487 95.9946 69.4699C95.9349 69.4443 95.8751 69.4186 95.8153 69.393C95.7897 69.3845 95.7556 69.3674 95.73 69.3588C95.6531 69.3247 95.5763 69.2905 95.508 69.2563C95.4995 69.2563 95.4994 69.2478 95.4909 69.2478C95.4141 69.2136 95.3372 69.1794 95.2689 69.1452C95.2177 69.1025 95.2006 69.0939 95.175 69.0854Z" fill="#0246AF"/>
<path d="M34.4485 123.354C34.44 123.234 34.44 123.123 34.4315 123.003C34.4315 122.926 34.4229 122.85 34.4229 122.773C34.4229 122.662 34.4144 122.55 34.4144 122.439C34.4144 122.362 34.4058 122.286 34.4058 122.217C34.4058 122.106 34.3973 121.995 34.3973 121.884C34.3973 121.816 34.3888 121.739 34.3888 121.67C34.3888 121.551 34.3802 121.431 34.3802 121.32C34.3802 121.26 34.3802 121.2 34.3717 121.141C34.3717 120.978 34.3632 120.824 34.3632 120.671C34.3632 120.654 34.3632 120.645 34.3632 120.628C34.3632 120.457 34.3546 120.286 34.3546 120.124C34.3546 120.072 34.3546 120.03 34.3546 119.978C34.3546 119.859 34.3546 119.748 34.3546 119.628C34.3546 119.611 34.3546 119.594 34.3546 119.585C34.3546 119.543 34.3546 119.508 34.3546 119.466C34.3546 119.355 34.3546 119.244 34.3546 119.141C34.3546 119.081 34.3546 119.021 34.3546 118.962C34.3546 118.859 34.3546 118.757 34.3546 118.663C34.3546 118.603 34.3546 118.551 34.3546 118.492C34.3546 118.389 34.3546 118.287 34.3546 118.184C34.3546 118.141 34.3546 118.09 34.3546 118.047C34.3546 117.928 34.3546 117.808 34.3632 117.688C34.3632 117.663 34.3632 117.637 34.3632 117.603C34.3632 117.458 34.3717 117.321 34.3717 117.184C34.3717 117.15 34.3717 117.116 34.3717 117.09C34.3717 116.988 34.3802 116.885 34.3802 116.791C34.3802 116.74 34.3802 116.697 34.3802 116.655C34.3802 116.569 34.3888 116.492 34.3888 116.407C34.3888 116.355 34.3888 116.313 34.3888 116.27C34.3888 116.193 34.3973 116.116 34.3973 116.048C34.3973 116.022 34.3973 115.997 34.3973 115.962C34.3973 115.945 34.3973 115.928 34.3973 115.911C34.3973 115.817 34.4058 115.732 34.4058 115.638C34.4058 115.612 34.4058 115.586 34.4058 115.561C34.4144 115.45 34.4144 115.339 34.4229 115.228C34.4229 115.202 34.4229 115.185 34.4229 115.159C34.4229 115.074 34.4315 114.997 34.4315 114.911C34.4315 114.877 34.4314 114.852 34.44 114.817C34.44 114.749 34.4485 114.681 34.4485 114.612C34.4485 114.587 34.4485 114.561 34.4485 114.535C34.4571 114.458 34.4571 114.382 34.4571 114.313C34.4571 114.305 34.4571 114.288 34.4571 114.279C34.4656 114.194 34.4656 114.117 34.4741 114.04C34.4741 114.031 34.4741 114.014 34.4741 114.006C34.4741 113.946 34.4827 113.886 34.4827 113.826C34.4827 113.809 34.4827 113.792 34.4827 113.766C34.4827 113.715 34.4912 113.672 34.4912 113.63C34.4912 113.621 34.4912 113.613 34.4912 113.604C34.4912 113.595 34.4912 113.587 34.4912 113.578C34.4912 113.561 34.4912 113.536 34.4912 113.519C34.4912 113.493 34.4912 113.467 34.4997 113.45C34.4997 113.433 34.4997 113.416 34.4997 113.399C34.4997 113.365 34.5083 113.339 34.5083 113.313C34.5083 113.313 34.5083 113.305 34.5083 113.296C34.5083 113.262 34.5168 113.237 34.5168 113.211C34.5168 113.202 34.5168 113.194 34.5168 113.185C34.5168 113.168 34.5168 113.151 34.5168 113.134C34.5168 113.125 34.5168 113.125 34.5168 113.117C34.5168 113.1 34.5168 113.083 34.5168 113.074V113.066C34.5168 113.049 34.5168 113.04 34.5168 113.031L35.2169 105.538L46.9558 112.322L46.2558 119.816C46.2558 119.825 46.2558 119.833 46.2558 119.85V119.859C46.2558 119.876 46.2558 119.884 46.2558 119.902V119.91C46.2558 119.927 46.2558 119.944 46.2472 119.97C46.2472 119.978 46.2472 119.978 46.2472 119.987C46.2387 120.038 46.2387 120.107 46.2302 120.184C46.2302 120.192 46.2302 120.201 46.2302 120.201C46.2302 120.235 46.2216 120.269 46.2216 120.303C46.2216 120.312 46.2216 120.32 46.2216 120.329C46.2216 120.354 46.2216 120.389 46.2131 120.423C46.2131 120.457 46.2045 120.491 46.2045 120.525C46.2045 120.551 46.2045 120.585 46.196 120.611C46.196 120.654 46.1875 120.696 46.1875 120.739C46.1875 120.765 46.1875 120.79 46.1789 120.824C46.1704 120.893 46.1704 120.97 46.1619 121.047C46.1619 121.072 46.1619 121.098 46.1533 121.123C46.1533 121.183 46.1448 121.235 46.1448 121.303C46.1448 121.337 46.1448 121.371 46.1362 121.405C46.1362 121.465 46.1277 121.525 46.1277 121.585C46.1277 121.619 46.1277 121.653 46.1192 121.696C46.1192 121.764 46.1106 121.841 46.1106 121.918C46.1106 121.944 46.1106 121.978 46.1106 122.004C46.1021 122.106 46.1021 122.217 46.0936 122.328C46.0936 122.354 46.0936 122.38 46.0936 122.405C46.0936 122.491 46.085 122.585 46.085 122.679C46.085 122.721 46.085 122.764 46.0765 122.815C46.0765 122.884 46.0679 122.961 46.0679 123.038C46.0679 123.089 46.0679 123.14 46.0594 123.183C46.0594 123.26 46.0509 123.337 46.0509 123.414C46.0509 123.465 46.0509 123.516 46.0509 123.567C46.0509 123.653 46.0509 123.747 46.0423 123.841C46.0423 123.883 46.0423 123.926 46.0423 123.969C46.0423 124.106 46.0338 124.242 46.0338 124.379C46.0338 124.413 46.0338 124.456 46.0338 124.49C46.0338 124.593 46.0338 124.704 46.0338 124.815C46.0338 124.866 46.0338 124.926 46.0338 124.986C46.0338 125.08 46.0338 125.174 46.0338 125.268C46.0338 125.328 46.0338 125.396 46.0338 125.456C46.0338 125.55 46.0338 125.644 46.0338 125.738C46.0338 125.806 46.0338 125.866 46.0338 125.934C46.0338 126.037 46.0338 126.131 46.0338 126.233C46.0338 126.293 46.0338 126.361 46.0338 126.421C46.0338 126.524 46.0338 126.626 46.0338 126.737C46.0338 126.797 46.0338 126.857 46.0338 126.917C46.0338 127.079 46.0338 127.242 46.0423 127.404C46.0423 127.438 46.0423 127.481 46.0423 127.524C46.0423 127.66 46.0509 127.788 46.0509 127.934C46.0509 128.002 46.0509 128.07 46.0594 128.139C46.0594 128.25 46.0679 128.352 46.0679 128.464C46.0679 128.54 46.0765 128.617 46.0765 128.694C46.0765 128.797 46.085 128.908 46.085 129.01C46.085 129.087 46.0936 129.173 46.0936 129.25C46.0936 129.352 46.1021 129.463 46.1021 129.566C46.1021 129.651 46.1106 129.728 46.1106 129.814C46.1192 129.925 46.1192 130.036 46.1277 130.147C46.1277 130.232 46.1362 130.309 46.1362 130.395C46.1448 130.506 46.1448 130.625 46.1533 130.745C46.1533 130.83 46.1619 130.907 46.1619 130.993C46.1704 131.112 46.1704 131.232 46.1789 131.343C46.1875 131.42 46.1875 131.497 46.196 131.582C46.2045 131.728 46.2131 131.873 46.2216 132.027C46.2216 132.078 46.2302 132.129 46.2302 132.189C46.2472 132.394 46.2558 132.591 46.2728 132.796C46.2728 132.856 46.2814 132.915 46.2899 132.975C46.2985 133.121 46.307 133.274 46.3241 133.42C46.3326 133.505 46.3411 133.582 46.3411 133.667C46.3497 133.796 46.3582 133.924 46.3753 134.06C46.3838 134.146 46.3924 134.24 46.4009 134.325C46.4094 134.454 46.4265 134.573 46.4351 134.701C46.4436 134.795 46.4521 134.889 46.4607 134.983C46.4692 135.111 46.4863 135.24 46.4948 135.359C46.5034 135.453 46.5119 135.547 46.5204 135.641C46.529 135.769 46.546 135.898 46.5546 136.026C46.5631 136.103 46.5717 136.18 46.5802 136.248C46.6229 136.675 46.6741 137.102 46.7253 137.538C46.7339 137.572 46.7339 137.615 46.7424 137.649C46.7936 138.111 46.8534 138.581 46.9217 139.059C46.9217 139.068 46.9217 139.076 46.9217 139.076C46.9814 139.555 47.0583 140.042 47.1266 140.529C47.1351 140.563 47.1351 140.597 47.1437 140.631C47.212 141.093 47.2888 141.554 47.3656 142.024C47.3742 142.076 47.3827 142.118 47.3912 142.17C47.4766 142.665 47.562 143.161 47.6474 143.656C47.6559 143.699 47.6644 143.742 47.673 143.776C47.7669 144.306 47.8779 144.844 47.9803 145.382C47.9803 145.4 47.9889 145.408 47.9889 145.425C48.0998 145.955 48.2108 146.485 48.3304 147.015C48.3389 147.066 48.356 147.117 48.3645 147.168C48.484 147.681 48.6036 148.202 48.7231 148.715C48.7316 148.758 48.7487 148.809 48.7572 148.852C48.8938 149.39 49.0304 149.937 49.1756 150.484C49.3292 151.048 49.4829 151.612 49.6451 152.167C49.6963 152.355 49.7561 152.535 49.8159 152.722C49.9269 153.09 50.0378 153.457 50.1488 153.825C50.2171 154.047 50.2854 154.261 50.3623 154.474C50.4647 154.799 50.5757 155.132 50.6782 155.457C50.755 155.688 50.8404 155.91 50.9172 156.14C51.0282 156.457 51.1306 156.764 51.2502 157.08C51.3014 157.217 51.3441 157.345 51.3953 157.473C51.5319 157.832 51.6685 158.191 51.8051 158.55C51.8649 158.704 51.9246 158.858 51.9844 159.012C52.1295 159.388 52.2832 159.755 52.4369 160.131C52.4795 160.233 52.5222 160.345 52.5649 160.447C52.7613 160.917 52.9576 161.378 53.1625 161.831C53.2138 161.942 53.265 162.054 53.3162 162.165C53.4784 162.515 53.6406 162.865 53.8028 163.216C53.8711 163.361 53.9394 163.506 54.0077 163.651C54.17 163.993 54.3407 164.326 54.5029 164.66C54.5627 164.771 54.6139 164.89 54.6737 165.002C54.8956 165.437 55.1261 165.873 55.3566 166.3C55.3993 166.386 55.4506 166.471 55.5018 166.557C55.6896 166.907 55.886 167.249 56.0823 167.591C56.1592 167.727 56.236 167.856 56.3128 167.992C56.4921 168.3 56.6714 168.607 56.8592 168.915C56.9275 169.035 57.0044 169.154 57.0727 169.265C57.3203 169.676 57.5764 170.086 57.841 170.479C57.8752 170.53 57.9093 170.581 57.9435 170.633C58.174 170.983 58.4045 171.333 58.6436 171.675C58.7289 171.795 58.8143 171.923 58.8997 172.043C59.096 172.324 59.3009 172.606 59.4973 172.888C59.5827 173.008 59.6595 173.119 59.7449 173.239C60.0266 173.623 60.3084 173.999 60.5901 174.367C64.799 179.801 69.8703 184.253 75.7355 187.663L64.0563 180.869C58.1825 177.451 53.1113 173.008 48.9109 167.574C48.6206 167.206 48.3389 166.822 48.0657 166.446C47.9803 166.335 47.895 166.215 47.8181 166.104C47.6132 165.822 47.4169 165.54 47.2205 165.258C47.1351 165.138 47.0497 165.019 46.9644 164.89C46.7253 164.549 46.4948 164.198 46.2643 163.848C46.2302 163.797 46.196 163.745 46.1619 163.694C45.9057 163.293 45.6496 162.891 45.3935 162.481C45.3252 162.361 45.2484 162.242 45.1801 162.13C44.9922 161.823 44.8129 161.515 44.6337 161.208C44.5568 161.071 44.48 160.943 44.4031 160.806C44.2068 160.464 44.019 160.122 43.8226 159.772C43.7799 159.687 43.7287 159.601 43.6775 159.516C43.447 159.088 43.2164 158.653 42.9945 158.217C42.9347 158.106 42.8835 157.986 42.8237 157.875C42.653 157.542 42.4908 157.209 42.3286 156.867C42.2603 156.722 42.192 156.576 42.1237 156.431C41.9614 156.081 41.7992 155.73 41.637 155.38C41.5858 155.269 41.5346 155.158 41.4834 155.047C41.2785 154.585 41.0821 154.124 40.8857 153.662C40.843 153.56 40.8004 153.449 40.7577 153.346C40.604 152.979 40.4503 152.603 40.3052 152.227C40.2454 152.073 40.1857 151.919 40.1259 151.765C39.9893 151.407 39.8527 151.048 39.7161 150.689C39.6649 150.561 39.6137 150.424 39.571 150.296C39.5539 150.244 39.5283 150.185 39.5112 150.133C39.4173 149.877 39.3319 149.621 39.2466 149.364C39.1697 149.134 39.0843 148.911 39.0075 148.681C38.8965 148.356 38.7941 148.031 38.6916 147.698C38.6233 147.484 38.5465 147.271 38.4782 147.049C38.3672 146.681 38.2562 146.314 38.1452 145.938C38.094 145.758 38.0342 145.57 37.983 145.391C37.8208 144.836 37.6671 144.272 37.5135 143.708C37.3683 143.161 37.2317 142.614 37.0951 142.076C37.0866 142.058 37.0866 142.041 37.078 142.024C37.0695 141.999 37.0695 141.973 37.061 141.947C36.9329 141.426 36.8134 140.905 36.6939 140.392C36.6853 140.341 36.6683 140.29 36.6597 140.238C36.5402 139.7 36.4292 139.17 36.3182 138.649C36.3182 138.632 36.3097 138.623 36.3097 138.606C36.1987 138.068 36.0962 137.53 36.0023 137C35.9938 136.957 35.9853 136.914 35.9767 136.872C35.8828 136.376 35.7974 135.872 35.7206 135.385C35.7121 135.359 35.7121 135.334 35.7035 135.308C35.7035 135.282 35.695 135.257 35.695 135.24C35.6182 134.77 35.5413 134.308 35.473 133.847C35.4645 133.813 35.4645 133.778 35.4559 133.744C35.3791 133.257 35.3108 132.77 35.251 132.292C35.251 132.283 35.251 132.283 35.251 132.275C35.1913 131.796 35.1315 131.326 35.0718 130.865C35.0632 130.83 35.0632 130.788 35.0632 130.754C35.012 130.318 34.9608 129.882 34.9181 129.463C34.9181 129.438 34.9095 129.421 34.9095 129.395C34.901 129.344 34.901 129.292 34.8925 129.233C34.8754 129.104 34.8669 128.976 34.8498 128.848C34.8412 128.754 34.8327 128.66 34.8242 128.566C34.8156 128.438 34.7986 128.31 34.79 128.182C34.7815 128.088 34.7729 128.002 34.7644 127.908C34.7559 127.78 34.7388 127.652 34.7303 127.524C34.7217 127.438 34.7132 127.353 34.7046 127.267C34.6961 127.131 34.679 127.002 34.6705 126.866C34.662 126.789 34.662 126.712 34.6534 126.635C34.6449 126.481 34.6278 126.319 34.6193 126.165C34.6193 126.114 34.6107 126.062 34.6107 126.011C34.5937 125.806 34.5851 125.601 34.568 125.396C34.568 125.353 34.5595 125.31 34.5595 125.268C34.551 125.105 34.5424 124.952 34.5339 124.789C34.5339 124.721 34.5254 124.653 34.5254 124.576C34.5168 124.447 34.5083 124.319 34.5083 124.191C34.5083 124.174 34.5083 124.148 34.5083 124.131C34.5083 124.08 34.4997 124.02 34.4997 123.969C34.4912 123.849 34.4912 123.721 34.4827 123.601C34.4571 123.508 34.4485 123.431 34.4485 123.354Z" fill="#0246AF"/>
<path d="M41.4662 101.949C41.7138 101.804 41.9614 101.659 42.209 101.513C42.2858 101.462 42.3712 101.419 42.448 101.368C42.6103 101.274 42.7639 101.171 42.9261 101.069C43.0969 100.966 43.2591 100.855 43.4298 100.744C43.5408 100.676 43.6518 100.599 43.7628 100.531C43.9421 100.411 44.1214 100.291 44.3092 100.163C44.4031 100.103 44.497 100.035 44.5909 99.9752C44.8897 99.7701 45.18 99.565 45.4703 99.3514C45.5386 99.3002 45.6154 99.2489 45.6837 99.1976C45.9057 99.0353 46.1277 98.8729 46.3496 98.7106C46.435 98.6422 46.5289 98.5824 46.6143 98.514C46.9046 98.2919 47.1948 98.0697 47.4851 97.839C47.5363 97.7963 47.5876 97.7535 47.6473 97.7194C47.9803 97.4545 48.3047 97.1896 48.6291 96.9247C48.6974 96.8649 48.7657 96.805 48.8426 96.7538C49.2353 96.4291 49.628 96.0958 50.0122 95.7626C50.0549 95.7284 50.089 95.6942 50.1317 95.66C50.5244 95.3182 50.9086 94.9764 51.2928 94.6261C51.3184 94.6005 51.344 94.5834 51.3696 94.5577C51.6258 94.3185 51.8904 94.0792 52.138 93.84C52.2063 93.7802 52.2661 93.7118 52.3344 93.652C52.5222 93.4725 52.71 93.2931 52.8978 93.1137C52.9917 93.0282 53.0857 92.9342 53.1796 92.8402C53.3418 92.6864 53.4955 92.5326 53.6577 92.3702C53.7601 92.2763 53.854 92.1737 53.9565 92.0797C54.1101 91.9259 54.2638 91.7807 54.409 91.6268C54.4943 91.5414 54.5797 91.4559 54.6651 91.3705C54.9895 91.0372 55.3139 90.704 55.6298 90.3707C55.681 90.3195 55.7323 90.2597 55.7835 90.2084C56.0908 89.8922 56.3896 89.5675 56.6884 89.2428C56.7226 89.2001 56.7653 89.1574 56.7994 89.1232C57.1153 88.7814 57.4227 88.4396 57.73 88.0978C57.7898 88.0294 57.8581 87.9611 57.9178 87.8842C58.2252 87.5424 58.524 87.2006 58.8143 86.8588C58.9935 86.6537 59.1643 86.4486 59.3436 86.2436C59.3692 86.2179 59.3863 86.1923 59.4119 86.1667C59.5741 85.9787 59.7363 85.7907 59.8985 85.5941C59.9583 85.5258 60.0095 85.4574 60.0693 85.3891C60.1973 85.2353 60.3168 85.09 60.4449 84.9362C60.5047 84.8678 60.5644 84.7909 60.6242 84.7226C60.7608 84.5602 60.8974 84.3979 61.0255 84.2355C61.0681 84.1842 61.1108 84.133 61.1535 84.0817C61.3243 83.8681 61.495 83.663 61.6658 83.4494C61.7084 83.3981 61.7426 83.3468 61.7853 83.2956C61.9133 83.1332 62.0414 82.9709 62.1695 82.8085C62.2292 82.7402 62.2804 82.6633 62.3402 82.5949C62.4597 82.4496 62.5707 82.3044 62.6817 82.1591C62.7329 82.0907 62.7842 82.0224 62.8354 81.9626C62.9805 81.7746 63.1257 81.5866 63.2708 81.4071C63.2879 81.3901 63.3049 81.3644 63.322 81.3473C63.4842 81.1423 63.6379 80.9372 63.7916 80.7321C63.8343 80.6723 63.8855 80.6125 63.9282 80.5527C64.0392 80.4074 64.1501 80.2621 64.2611 80.1169C64.3124 80.0485 64.3636 79.9802 64.4148 79.9118C64.5258 79.7665 64.6368 79.6213 64.7392 79.476C64.7819 79.4247 64.8246 79.3649 64.8587 79.3137C65.0039 79.1171 65.149 78.9206 65.2942 78.7241C65.3198 78.6984 65.3368 78.6642 65.3539 78.6386C65.4734 78.4677 65.6015 78.3054 65.721 78.143C65.7637 78.0832 65.8064 78.0234 65.8576 77.955C65.9601 77.8183 66.054 77.6816 66.1479 77.5534C66.1906 77.4936 66.2333 77.4252 66.2845 77.3654C66.3955 77.2116 66.4979 77.0663 66.6089 76.9125C66.6345 76.8784 66.6601 76.8356 66.6858 76.8015C66.8138 76.6135 66.9504 76.434 67.0785 76.246C67.1126 76.2033 67.1382 76.1606 67.1724 76.1093C67.2663 75.9726 67.3687 75.8359 67.4627 75.6992C67.5053 75.6393 67.548 75.5795 67.5822 75.5197C67.6676 75.3915 67.7529 75.2719 67.8383 75.1437C67.8725 75.0925 67.9151 75.0412 67.9493 74.9814C68.0688 74.8105 68.1798 74.6396 68.2993 74.4772C68.4188 74.3063 68.5298 74.1354 68.6408 73.9731C68.675 73.9218 68.7006 73.8791 68.7347 73.8364C68.8116 73.7168 68.8969 73.5971 68.9738 73.486C69.0079 73.4348 69.0421 73.3835 69.0762 73.3322C69.1531 73.2126 69.2299 73.093 69.3067 72.9819C69.3324 72.9392 69.358 72.905 69.3836 72.8623C69.486 72.7084 69.5799 72.5546 69.6824 72.4094C69.6995 72.3837 69.708 72.3667 69.7251 72.341C69.8104 72.2129 69.8873 72.0932 69.9641 71.9736C69.9897 71.9309 70.0154 71.8881 70.0495 71.8454C70.1178 71.7429 70.1861 71.6403 70.2459 71.5378C70.2715 71.4951 70.2971 71.4609 70.3227 71.4182C70.391 71.3156 70.4593 71.2045 70.5191 71.102C70.5361 71.0678 70.5617 71.0422 70.5788 71.008C70.6642 70.8798 70.741 70.7517 70.8179 70.6235C70.8349 70.5979 70.852 70.5722 70.8605 70.5466C70.9203 70.4526 70.9801 70.3501 71.0398 70.2646C71.0654 70.2219 71.0911 70.1877 71.1167 70.145C71.1679 70.0681 71.2106 69.9912 71.2618 69.9143C71.2874 69.8801 71.3045 69.8374 71.3301 69.8032C71.3813 69.7263 71.424 69.6494 71.4752 69.5725C71.4923 69.5468 71.5094 69.5127 71.5265 69.487C71.646 69.2819 71.7655 69.1025 71.868 68.9316C71.885 68.906 71.9021 68.8803 71.9107 68.8547C71.9448 68.7949 71.979 68.7351 72.0131 68.6838C72.0302 68.6582 72.0473 68.6325 72.0558 68.6069C72.0899 68.5556 72.1156 68.5044 72.1497 68.4531C72.1582 68.436 72.1753 68.4104 72.1839 68.3933C72.218 68.3335 72.2522 68.2822 72.2778 68.2309C72.2863 68.2224 72.2863 68.2138 72.2948 68.2053C72.329 68.1455 72.3631 68.0857 72.3973 68.0344C72.4058 68.0259 72.4058 68.0173 72.4144 68.0088C72.44 67.966 72.4571 67.9319 72.4827 67.8977C72.4912 67.8806 72.4997 67.872 72.5083 67.855C72.5253 67.8293 72.5339 67.8037 72.551 67.7866C72.5595 67.778 72.568 67.761 72.568 67.7524C72.5766 67.7268 72.5936 67.7097 72.6022 67.6926C72.6022 67.6841 72.6107 67.6755 72.6107 67.6755C72.6193 67.6584 72.6278 67.6413 72.6363 67.6328L77.6136 58.6094L89.2928 65.4026L84.3155 74.426C84.307 74.4345 84.2984 74.4516 84.2899 74.4687C84.2899 74.4772 84.2814 74.4772 84.2814 74.4858C84.2728 74.4943 84.2643 74.5114 84.2558 74.5285C84.2558 74.5371 84.2472 74.5371 84.2472 74.5456C84.2387 74.5541 84.2387 74.5627 84.2301 74.5712C84.2216 74.5883 84.2045 74.614 84.1875 74.6396C84.1789 74.6567 84.1704 74.6738 84.1618 74.6909C84.1448 74.7165 84.1277 74.7507 84.1106 74.7849C84.1021 74.8019 84.0935 74.8105 84.085 74.8276C84.0594 74.8789 84.0252 74.9301 83.9911 74.9899C83.9911 74.9985 83.9826 75.007 83.974 75.0156C83.9399 75.0668 83.9143 75.1181 83.8801 75.1779C83.863 75.2036 83.8545 75.2206 83.8374 75.2463C83.8118 75.289 83.7777 75.3403 83.752 75.3916C83.735 75.4172 83.7179 75.4514 83.7008 75.477C83.6667 75.5283 83.6325 75.5881 83.5984 75.6393C83.5813 75.665 83.5642 75.6906 83.5471 75.7248C83.4959 75.8017 83.4532 75.8872 83.402 75.9641C83.3935 75.9726 83.3935 75.9811 83.3849 75.9897C83.3252 76.0837 83.2654 76.1777 83.2057 76.2802C83.1886 76.3058 83.1715 76.34 83.1459 76.3742C83.1032 76.4426 83.052 76.5195 83.0093 76.5964C82.9837 76.6306 82.9581 76.6733 82.941 76.716C82.8983 76.7929 82.8471 76.8613 82.8044 76.9382C82.7788 76.9809 82.7532 77.0151 82.7276 77.0578C82.6763 77.1433 82.6166 77.2372 82.5568 77.3312C82.5397 77.3654 82.5227 77.3911 82.497 77.4167C82.4202 77.5363 82.3434 77.6645 82.258 77.7927C82.2324 77.8268 82.2153 77.861 82.1897 77.8952C82.147 77.9721 82.0958 78.0405 82.0446 78.1174C82.0275 78.143 82.0104 78.1686 82.0019 78.1943C81.9763 78.237 81.9421 78.2797 81.9165 78.331C81.8567 78.425 81.797 78.519 81.7287 78.6215C81.6945 78.6642 81.6689 78.7155 81.6348 78.7582C81.5579 78.8693 81.4896 78.9889 81.4128 79.1086C81.3957 79.1342 81.3786 79.1684 81.353 79.194C81.2591 79.3393 81.1567 79.4845 81.0628 79.6384C81.0371 79.6811 81.003 79.7238 80.9774 79.7665C80.9005 79.8776 80.8322 79.9887 80.7554 80.1083C80.7213 80.1596 80.6871 80.2194 80.6444 80.2707C80.5676 80.3818 80.4908 80.4928 80.4139 80.6125C80.3798 80.6637 80.3456 80.715 80.3115 80.7577C80.2005 80.9201 80.0895 81.091 79.9785 81.2533C79.97 81.2619 79.9614 81.2704 79.9614 81.279C79.8504 81.4413 79.748 81.5951 79.6285 81.7575C79.5943 81.8088 79.5516 81.8686 79.5175 81.9198C79.4321 82.0395 79.3467 82.1677 79.2614 82.2873C79.2187 82.3471 79.176 82.4069 79.1333 82.4667C79.0394 82.6034 78.9455 82.7316 78.8516 82.8683C78.8174 82.9196 78.7833 82.9623 78.7491 83.0136C78.6211 83.193 78.493 83.381 78.3649 83.5605C78.3393 83.6032 78.3052 83.6374 78.2796 83.6801C78.1771 83.8254 78.0661 83.9792 77.9637 84.1244C77.921 84.1842 77.8698 84.2526 77.8271 84.3124C77.7332 84.4406 77.6393 84.5773 77.5368 84.7055C77.4941 84.7738 77.4429 84.8337 77.4002 84.902C77.2807 85.0644 77.1612 85.2267 77.0416 85.3891C77.016 85.4233 76.999 85.4489 76.9733 85.4831C76.8282 85.6796 76.6831 85.8761 76.5379 86.0727C76.4952 86.1325 76.4526 86.1837 76.4099 86.2436C76.2989 86.3888 76.1964 86.5341 76.0854 86.6794C76.0342 86.7477 75.983 86.8161 75.9232 86.893C75.8123 87.0382 75.7098 87.175 75.5988 87.3202C75.5476 87.38 75.5049 87.4484 75.4537 87.5082C75.3 87.7133 75.1378 87.9184 74.9841 88.1234C74.967 88.1405 74.95 88.1662 74.9329 88.1832C74.7878 88.3712 74.6426 88.5507 74.4975 88.7387C74.4463 88.807 74.395 88.8754 74.3438 88.9352C74.2328 89.0805 74.1133 89.2257 74.0023 89.371C73.9426 89.4393 73.8913 89.5163 73.8316 89.5846C73.7035 89.747 73.5754 89.9008 73.4474 90.0631C73.4047 90.1144 73.362 90.1657 73.3193 90.2169C73.1486 90.4306 72.9778 90.6356 72.8071 90.8493C72.7644 90.9005 72.7217 90.9518 72.6876 91.0031C72.551 91.1654 72.4229 91.3278 72.2863 91.4901C72.2265 91.5585 72.1668 91.6354 72.107 91.7037C71.979 91.8576 71.8594 92.0028 71.7314 92.1566C71.6716 92.225 71.6204 92.2933 71.5606 92.3617C71.3984 92.5497 71.2362 92.7462 71.074 92.9342C71.0569 92.9599 71.0313 92.9769 71.0142 93.0026C70.852 93.1906 70.6898 93.3785 70.5276 93.5665C70.5105 93.5836 70.502 93.5922 70.4849 93.6093C70.1861 93.9511 69.8873 94.2928 69.5885 94.6261C69.5287 94.6945 69.4604 94.7714 69.4007 94.8397C69.0933 95.1815 68.786 95.5233 68.4701 95.8651C68.4359 95.9078 68.3932 95.942 68.3591 95.9847C68.0603 96.3094 67.7615 96.6256 67.4541 96.9503C67.4029 97.0016 67.3517 97.0529 67.3004 97.1127C66.9846 97.4459 66.6601 97.7792 66.3357 98.1124C66.3016 98.1466 66.2674 98.1808 66.2418 98.215C66.1906 98.2662 66.1394 98.3175 66.0796 98.3773C65.9259 98.5311 65.7808 98.6849 65.6271 98.8302C65.5247 98.9242 65.4308 99.0267 65.3283 99.1207C65.1661 99.2745 65.0124 99.4369 64.8502 99.5907C64.7563 99.6847 64.6624 99.7701 64.5685 99.8641C64.3807 100.044 64.1928 100.223 64.005 100.402C63.9367 100.462 63.8769 100.531 63.8086 100.59C63.5525 100.83 63.2964 101.069 63.0403 101.308C63.0317 101.317 63.0232 101.325 63.0147 101.334C62.9976 101.351 62.9805 101.359 62.9634 101.377C62.5793 101.727 62.1951 102.069 61.8024 102.41C61.7597 102.445 61.7255 102.479 61.6828 102.513C61.2986 102.846 60.9059 103.18 60.5132 103.504C60.4705 103.538 60.4364 103.573 60.3937 103.607C60.3595 103.632 60.3339 103.658 60.2998 103.684C59.9753 103.949 59.6509 104.213 59.318 104.478C59.2667 104.521 59.2155 104.564 59.1558 104.607C58.8655 104.837 58.5752 105.059 58.2849 105.273C58.2337 105.307 58.191 105.35 58.1398 105.384C58.0971 105.41 58.063 105.444 58.0203 105.47C57.7983 105.632 57.5763 105.794 57.3544 105.957C57.2861 106.008 57.2092 106.059 57.1409 106.11C56.8507 106.324 56.5518 106.529 56.2616 106.734C56.2445 106.743 56.236 106.751 56.2189 106.76C56.142 106.811 56.0567 106.871 55.9798 106.922C55.8006 107.042 55.6213 107.161 55.442 107.281C55.331 107.358 55.22 107.426 55.109 107.495C54.9383 107.606 54.7761 107.708 54.6053 107.819C54.5626 107.845 54.5285 107.871 54.4858 107.896C54.3663 107.973 54.2467 108.042 54.1272 108.118C54.0504 108.17 53.9735 108.212 53.8882 108.264C53.6406 108.409 53.393 108.563 53.1454 108.7L46.9558 112.323L35.2766 105.529L41.4662 101.949Z" fill="#2564F4"/>
<path d="M46.2471 119.816L46.9472 112.323L53.1454 108.742C70.2543 98.8558 83.8801 75.1694 84.2984 74.4431L89.2757 65.4197L94.3469 68.6326C94.7226 68.8547 108.459 76.7758 125.594 66.8723L131.792 63.292L132.535 69.9485C132.595 70.4782 133.935 83.1503 129.794 103.897C127.387 115.971 123.613 128.413 118.568 140.863C112.293 156.346 104.045 171.872 94.0481 186.996L89.677 193.61L85.2802 192.064C75.2317 188.517 66.9247 182.562 60.5815 174.367C55.4846 167.779 51.6513 159.738 49.184 150.484C44.9324 134.591 46.1959 120.415 46.2471 119.816Z" fill="#2564F4"/>
<path d="M85.212 191.654C75.2659 188.142 67.0358 182.254 60.7608 174.137C55.7323 167.634 51.9417 159.713 49.5085 150.587C45.3337 134.933 46.5887 121.03 46.6485 120.449L47.3827 112.63L53.8711 108.879C70.2032 99.4371 83.1459 76.9641 83.6838 76.0241L89.0624 66.2744L94.9276 69.9914C95.6532 70.4101 108.272 77.4426 124.143 68.2739L131.57 63.9844L132.467 72.0764C132.526 72.5976 133.85 85.0219 129.803 105.342C127.455 117.125 123.767 129.25 118.849 141.393C112.737 156.483 104.694 171.607 94.9617 186.339L90.2576 193.457L85.212 191.654ZM125.218 70.1282C108.152 79.989 94.4068 72.1704 93.8348 71.8286L89.8478 69.2993L85.562 77.0666C85.0071 78.0407 71.7826 101.009 54.9468 110.733L49.4146 113.929L48.7828 120.646C48.7316 121.218 47.5108 134.745 51.5831 150.031C53.9394 158.875 57.602 166.549 62.4512 172.821C68.4786 180.605 76.3758 186.262 85.9206 189.628L89.3953 190.859L93.1774 185.134C102.833 170.522 110.807 155.526 116.869 140.564C121.735 128.55 125.381 116.553 127.703 104.906C131.69 84.9108 130.401 72.8112 130.341 72.2986L129.803 67.4707L125.218 70.1282Z" fill="white"/>
<path d="M89.4551 67.7866L94.3726 70.9055C94.7397 71.1191 108.067 78.801 124.68 69.2051L130.691 65.7358L131.408 72.1958C131.468 72.7085 132.765 85.0046 128.753 105.128C126.414 116.843 122.751 128.908 117.859 140.982C111.772 156.004 103.772 171.06 94.0738 185.74L89.8307 192.157L85.5705 190.654C75.8208 187.219 67.7615 181.442 61.606 173.487C56.6628 167.095 52.9405 159.302 50.5415 150.322C46.4265 134.89 47.6559 121.141 47.7071 120.56L48.3901 113.288L54.4004 109.819C70.9972 100.232 84.2216 77.2458 84.6143 76.5537L89.4551 67.7866Z" fill="#2564F4"/>
<path d="M89.6174 180.366C80.7982 177.256 73.5073 172.043 67.9665 164.874C63.5356 159.149 60.206 152.176 58.0716 144.153C54.4347 130.515 55.5189 118.356 55.5275 118.236L55.5531 117.963L55.7921 117.826C74.5147 107.008 88.9002 81.5955 89.0454 81.3391L89.3186 80.852L89.7967 81.1511C89.9418 81.2366 104.216 89.8413 122.802 79.1089L123.511 78.6987L123.605 79.5105C123.613 79.6216 124.766 90.4821 121.223 108.23C117.962 124.585 109.936 150.348 90.2406 180.152L90.0101 180.503L89.6174 180.366ZM99.0683 85.2441C94.202 84.5434 90.9065 82.9626 89.7198 82.3303C87.6538 85.8593 74.0195 108.392 56.5776 118.612C56.441 120.466 55.8178 131.549 59.1047 143.879C62.383 156.175 70.3314 172.248 89.5747 179.212C108.989 149.724 116.92 124.26 120.156 108.076C123.118 93.2336 122.785 83.2702 122.597 80.4504C112.925 85.8081 104.49 86.0303 99.0683 85.2441Z" fill="url(#paint0_linear_84_1210)"/>
<path d="M89.5149 81.5957C89.5149 81.5957 103.994 90.5849 123.067 79.562C123.067 79.562 127.831 122.286 89.7881 179.853C51.549 166.361 56.0568 118.279 56.0568 118.279C75.1379 107.265 89.5149 81.5957 89.5149 81.5957Z" fill="#2564F4"/>
<path d="M87.5171 134.198C87.5171 135.65 88.1574 136.573 89.1136 136.787L89.1222 140.837C89.1222 141.512 89.3697 141.991 89.7539 142.204C90.1381 142.426 90.676 142.392 91.265 142.05C92.4432 141.375 93.3909 139.726 93.3823 138.368L93.3738 134.317C94.3385 132.984 94.9617 131.344 94.9532 129.891C94.9447 127.524 93.2799 126.576 91.2224 127.763C89.1648 128.96 87.5086 131.831 87.5171 134.198ZM88.166 133.822C88.1574 131.873 89.532 129.498 91.2309 128.515C92.9213 127.541 94.3044 128.327 94.3129 130.267C94.3129 131.421 93.8263 132.788 93.0067 133.924L92.7335 134.309L92.742 138.752C92.742 139.692 92.0846 140.837 91.265 141.307C90.8723 141.538 90.4967 141.572 90.2149 141.41C89.9332 141.247 89.7795 140.914 89.7795 140.453L89.771 136.009L89.4893 135.949C88.6611 135.778 88.166 134.975 88.166 133.822Z" fill="white"/>
<path d="M85.8952 117.834L85.9122 123.328L96.4986 117.21L96.4816 111.716C96.473 108.358 94.0911 106.999 91.1713 108.682C88.2515 110.374 85.8866 114.476 85.8952 117.834ZM86.544 117.458C86.5355 114.51 88.6101 110.913 91.1713 109.434C93.7325 107.956 95.8242 109.152 95.8327 112.092L95.8498 116.843L86.5611 122.209L86.544 117.458Z" fill="white"/>
<path d="M77.8272 132.488L77.8784 151.151C77.8869 154.03 79.9359 155.192 82.4374 153.748L100.127 143.528C102.628 142.084 104.66 138.564 104.652 135.684L104.601 117.022C104.592 114.279 102.731 113.083 100.392 114.237L100.374 109.469C100.357 103.641 96.2253 101.283 91.1541 104.213C86.0914 107.144 81.9764 114.262 81.9934 120.09L82.0105 124.858C79.6627 126.405 77.8186 129.737 77.8272 132.488ZM78.476 132.113C78.4675 129.643 80.2091 126.627 82.3605 125.388L82.6679 125.208L82.6508 119.714C82.6337 114.296 86.4585 107.674 91.1626 104.957C95.8753 102.24 99.7086 104.427 99.7256 109.845L99.7427 115.339L100.05 115.159C102.201 113.92 103.952 114.912 103.96 117.39L104.011 136.052C104.02 138.521 102.278 141.538 100.127 142.777L82.4374 152.996C80.2859 154.235 78.5358 153.244 78.5272 150.766L78.476 132.113Z" fill="white"/>
<path d="M94.9533 129.9C94.9533 131.352 94.3301 133.001 93.3739 134.326L93.3824 138.376C93.3824 139.726 92.4347 141.375 91.2651 142.059C90.676 142.401 90.1467 142.426 89.754 142.213C89.3698 141.991 89.1308 141.521 89.1222 140.846L89.1137 136.795C88.149 136.573 87.5172 135.659 87.5172 134.206C87.5087 131.839 89.1734 128.968 91.2224 127.781C93.2799 126.584 94.9447 127.533 94.9533 129.9ZM96.4815 111.716L96.4986 117.21L85.9122 123.329L85.8951 117.834C85.8865 114.476 88.2514 110.375 91.1712 108.683C94.091 106.999 96.4729 108.358 96.4815 111.716ZM91.1541 104.957C86.4415 107.674 82.6253 114.297 82.6423 119.714L82.6594 125.208L82.3521 125.388C80.2006 126.627 78.4675 129.643 78.4675 132.113L78.5188 150.775C78.5273 153.244 80.2775 154.244 82.4289 153.005L100.118 142.785C102.27 141.546 104.003 138.53 104.003 136.061L103.952 117.398C103.943 114.929 102.193 113.929 100.042 115.168L99.7342 115.348L99.7172 109.853C99.7086 104.427 95.8668 102.231 91.1541 104.957Z" fill="white"/>
<mask id="mask0_84_1210" style="mask-type:alpha" maskUnits="userSpaceOnUse" x="114" y="116" width="25" height="26">
<path d="M138.033 116.791L138.238 116.826V117.031C138.246 120.244 137.854 123.251 137.077 125.977C135.796 130.446 133.508 134.035 130.281 136.641C127.054 139.247 123.05 140.726 118.397 141.05C117.125 141.136 115.801 141.136 114.453 141.05L114.299 141.042L114.034 140.324L114.393 140.35C121.06 140.786 126.746 138.991 130.819 135.163C135.224 131.027 137.555 124.747 137.546 117.005V116.723L137.828 116.774C137.896 116.766 137.965 116.783 138.033 116.791Z" fill="url(#paint1_linear_84_1210)"/>
</mask>
<g mask="url(#mask0_84_1210)">
<g style="mix-blend-mode:screen">
<path d="M138.033 116.791L138.238 116.826V117.031C138.246 120.244 137.854 123.251 137.077 125.977C135.796 130.446 133.508 134.035 130.281 136.641C127.054 139.247 123.05 140.726 118.397 141.05C117.125 141.136 115.801 141.136 114.453 141.05L114.299 141.042L114.034 140.324L114.393 140.35C121.06 140.786 126.746 138.991 130.819 135.163C135.224 131.027 137.555 124.747 137.546 117.005V116.723L137.828 116.774C137.896 116.766 137.965 116.783 138.033 116.791Z" fill="url(#paint2_linear_84_1210)"/>
</g>
</g>
<mask id="mask1_84_1210" style="mask-type:alpha" maskUnits="userSpaceOnUse" x="31" y="155" width="72" height="16">
<path d="M32.5275 155.517C34.6618 157.5 37.1975 159.354 40.066 161.029C56.1847 170.402 80.909 172.846 101.595 167.104L101.8 167.044L101.903 167.292C101.92 167.326 101.928 167.36 101.945 167.395L102.048 167.642L101.783 167.711C100.741 168.001 99.7169 168.258 98.7266 168.497C92.1869 170.035 85.2716 170.812 78.177 170.812C71.091 170.812 64.1842 170.035 57.6616 168.497C50.9 166.907 44.8299 164.566 39.6306 161.541C36.745 159.858 34.1923 158.004 32.0409 156.021L31.8701 155.859L32.3397 155.346L32.5275 155.517Z" fill="url(#paint3_linear_84_1210)"/>
</mask>
<g mask="url(#mask1_84_1210)">
</g>
<path style="mix-blend-mode:screen" d="M108.237 59.1266L108.377 59L108.518 59.1125C110.841 60.9977 112.77 63.0375 114.276 65.1899C116.74 68.7351 117.979 72.4912 117.964 76.3318C117.936 80.1864 116.655 83.9285 114.163 87.4737C113.488 88.4444 112.699 89.401 111.841 90.3154L111.742 90.4139L111.066 90.1747L111.292 89.9215C115.515 85.3775 117.57 80.2286 117.204 75.0516C116.81 69.4525 113.671 64.0926 108.096 59.5627L107.885 59.3939L108.082 59.2251C108.138 59.211 108.18 59.1688 108.237 59.1266Z" fill="url(#paint4_linear_84_1210)"/>
<g style="mix-blend-mode:screen">
<path d="M110.207 89.8794C110.574 89.3027 111.334 89.1479 111.911 89.5137C112.488 89.8794 112.643 90.6391 112.277 91.2159C111.911 91.7927 111.151 91.9474 110.574 91.5817C110.01 91.2159 109.841 90.4562 110.207 89.8794Z" fill="#5AFFFA"/>
<path style="mix-blend-mode:screen" d="M111.249 99.7974C106.141 99.7974 102 95.6593 102 90.5547C102 85.4501 106.141 81.312 111.249 81.312C116.357 81.312 120.498 85.4501 120.498 90.5547C120.498 95.6593 116.357 99.7974 111.249 99.7974Z" fill="url(#paint5_radial_84_1210)"/>
<path style="mix-blend-mode:screen" d="M111.249 95.8158C108.342 95.8158 105.984 93.4602 105.984 90.5544C105.984 87.6486 108.342 85.293 111.249 85.293C114.157 85.293 116.515 87.6486 116.515 90.5544C116.515 93.4602 114.157 95.8158 111.249 95.8158Z" fill="url(#paint6_radial_84_1210)"/>
</g>
<path style="mix-blend-mode:screen" d="M29.9172 150.808C32.2269 152.856 34.968 154.785 38.0849 156.501C55.5334 166.196 82.3185 168.723 104.721 162.778L104.943 162.725L105.054 162.978C105.068 163.018 105.082 163.044 105.096 163.084L105.208 163.337L104.929 163.417C103.802 163.709 102.689 163.989 101.618 164.228C94.5352 165.824 87.0493 166.622 79.3686 166.622C71.6879 166.622 64.2159 165.811 57.1475 164.228C49.8285 162.579 43.2471 160.158 37.6257 157.033C34.495 155.29 31.7399 153.375 29.4023 151.327L29.2075 151.154L29.7223 150.622L29.9172 150.808Z" fill="url(#paint7_linear_84_1210)"/>
<path d="M128.241 214.299C128.678 213.623 129.579 213.426 130.254 213.862C130.93 214.299 131.127 215.199 130.691 215.874C130.254 216.549 129.353 216.746 128.678 216.31C128.002 215.874 127.805 214.974 128.241 214.299Z" fill="#5AFFFA"/>
<path style="mix-blend-mode:screen" d="M129.466 225.975C123.448 225.975 118.57 221.1 118.57 215.086C118.57 209.073 123.448 204.198 129.466 204.198C135.484 204.198 140.362 209.073 140.362 215.086C140.362 221.1 135.484 225.975 129.466 225.975Z" fill="url(#paint8_radial_84_1210)"/>
<path style="mix-blend-mode:screen" d="M124.243 211.724C126.101 208.84 129.945 208.01 132.816 209.867C135.702 211.724 136.533 215.565 134.675 218.435C132.816 221.319 128.973 222.149 126.101 220.292C123.215 218.449 122.385 214.608 124.243 211.724Z" fill="url(#paint9_radial_84_1210)"/>
<path d="M28.1926 149.512C28.5172 149.01 29.1873 148.863 29.6898 149.188C30.1924 149.512 30.339 150.182 30.0144 150.684C29.6898 151.186 29.0198 151.333 28.5172 151.008C28.0146 150.684 27.8681 150.014 28.1926 149.512Z" fill="white"/>
<path style="mix-blend-mode:screen" d="M29.1037 158.196C24.6281 158.196 20.9999 154.571 20.9999 150.098C20.9999 145.626 24.6281 142 29.1037 142C33.5793 142 37.2075 145.626 37.2075 150.098C37.2075 154.571 33.5793 158.196 29.1037 158.196Z" fill="url(#paint10_radial_84_1210)"/>
<g style="mix-blend-mode:screen">
<path d="M28.6239 103.207C32.42 97.8341 37.9912 93.0385 45.1617 88.9081C50.2583 85.9852 56.0053 83.5 62.2443 81.5397L62.4728 81.4697L62.6485 81.7148C62.6837 81.7673 62.7188 81.8198 62.754 81.8723L63 82.2398L62.5782 82.3798C56.4095 84.3226 50.7504 86.7553 45.7416 89.6432C29.4851 98.9892 21.7873 111.888 24.652 125.015L24.7223 125.365L23.6678 125.47L23.5975 125.19C23.1933 123.334 23 121.444 23 119.572C23.0527 113.918 24.9332 108.423 28.6239 103.207Z" fill="url(#paint11_linear_84_1210)"/>
</g>
<path d="M61.0206 80.4972C61.5605 79.6617 62.6753 79.418 63.5114 79.9576C64.3475 80.4972 64.5914 81.6112 64.0514 82.4467C63.5114 83.2822 62.3966 83.5259 61.5605 82.9863C60.7244 82.4467 60.4806 81.3327 61.0206 80.4972Z" fill="white"/>
<path style="mix-blend-mode:screen" d="M56.0738 77.3121C58.373 73.7438 63.1283 72.7168 66.6817 75.0145C70.2525 77.3121 71.2801 82.064 68.9809 85.6149C66.6817 89.1832 61.9264 90.2102 58.373 87.9125C54.8022 85.6323 53.7745 80.8804 56.0738 77.3121Z" fill="url(#paint12_radial_84_1210)"/>
<path d="M134.883 190.688C134.883 190.688 146.477 189.978 161.426 176.99C169.673 170.376 180.695 173.564 185.877 172.273C194.525 170.129 199.263 160.806 211.335 164.942C211.335 164.942 190.538 143.4 194.918 120.637C199.298 97.8815 199.554 88.6616 190.538 89.3708C190.538 89.3708 190.359 89.3879 190.043 89.4392C188.122 89.7126 181.079 91.0456 176.161 96.1042C176.093 96.1811 176.016 96.258 175.948 96.3349C174.565 97.8046 173.361 99.582 172.507 101.727C168.127 112.758 167.094 129.839 155.501 146.092C143.898 162.344 147.51 180.528 134.883 190.688Z" fill="#97B2F8"/>
<path d="M196.608 91.5669C196.608 91.5669 197.889 97.5569 195.029 98.6164C192.177 99.676 189.13 94.8908 189.13 94.8908C189.13 94.8908 189.599 89.8152 188.95 88.73L189.693 87.4312H193.979L196.899 89.0461L196.608 91.5669Z" fill="#D5E0FC"/>
<path d="M182.325 206.863C182.325 206.863 181.343 214.861 190.231 216.348C191.81 216.152 192.613 213.827 192.186 210.743C191.759 207.667 182.325 206.863 182.325 206.863Z" fill="#97B2F8"/>
<path d="M182.282 202.249C182.282 202.249 181.685 209.666 184.092 212.623C186.688 215.818 190.88 215.579 190.88 215.579C190.88 215.579 194.175 213.255 190.333 202.839L182.282 202.249Z" fill="#97B2F8"/>
<path d="M194.517 200.087V203.454C194.517 203.454 198.444 205.41 200.493 205.41L201.218 205.017C201.218 205.017 203.31 205.333 205.325 206.077C207.331 206.82 213.162 208.939 214.716 205.761L194.517 200.087Z" fill="#97B2F8"/>
<path d="M195.362 196.387C195.362 196.387 193.476 200.976 195.362 202.591C197.181 204.137 200.937 204.582 202.773 204.753C204.6 204.924 210.209 208.042 213.274 206.752C216.254 205.496 214.341 204.103 210.132 202.514C205.923 200.925 203.046 197.071 203.046 197.071L195.362 196.387Z" fill="#97B2F8"/>
<path d="M205.786 127.926L204.693 163.626L203.959 197.481C202.123 198.165 200.561 198.353 199.272 198.293C196.463 198.165 194.995 196.823 194.995 196.823C193.535 190.791 194.081 168.787 194.081 168.787L193.586 156.526V156.466L193.347 150.57L188.575 131.968L205.786 127.926Z" fill="#2564F4"/>
<path d="M181.463 174.512L181.642 132.788L185.228 132.959L195.908 133.463L197.949 133.616C197.949 133.616 191.529 165.634 190.794 175.025C190.06 184.407 190.794 203.343 190.794 203.343C188.062 205.154 185.723 204.924 184.092 204.274C182.556 203.659 181.642 202.668 181.642 202.668C180.353 195.969 181.463 174.512 181.463 174.512Z" fill="#2564F4"/>
<path d="M184.092 96.583L194.056 98.7876L200.945 96.583L204.053 136.872C204.053 136.872 200.672 141.931 194.414 142.418L188.259 127.413L184.092 96.583Z" fill="url(#paint13_linear_84_1210)"/>
<path d="M197.069 101.983L195.78 103.761C195.729 103.838 195.626 103.855 195.55 103.803L193.612 102.487C193.552 102.445 193.526 102.376 193.543 102.308L194.337 98.9071C194.371 98.7704 194.542 98.7276 194.636 98.8387L197.069 101.778C197.112 101.829 197.112 101.915 197.069 101.983Z" fill="#0246AF"/>
<path d="M195.959 103.18C195.959 103.18 201.073 114.775 201.039 126.712L199.554 129.814L197.667 127.251C197.667 127.251 198.555 115.655 195.208 103.188H195.959V103.18Z" fill="#0246AF"/>
<path d="M194.414 98.7876L193.91 103.897L185.996 98.4885L185.629 92.7036L188.95 90.106L194.414 98.7876Z" fill="url(#paint14_linear_84_1210)"/>
<path d="M194.414 98.7878L197.923 102.753L200.356 96.2671V95.0024L196.719 92.4902L194.414 98.7878Z" fill="url(#paint15_linear_84_1210)"/>
<path d="M198.862 91.5415C199.05 92.1311 199.306 93.6521 199.554 95.5662C200.091 99.6335 200.646 105.461 200.646 107.717C200.646 111.024 201.97 119.09 202.234 123.722C202.277 124.516 202.354 125.61 202.448 126.875C202.9 132.967 203.788 143.025 203.788 143.025C206.529 142.367 209.235 137.863 209.235 137.863C209.235 137.863 204.924 129.002 204.872 118.817C205.538 97.6597 198.862 91.5415 198.862 91.5415Z" fill="#0246AF"/>
<path d="M199.554 93.7544V95.5659C200.092 99.6333 200.646 105.461 200.646 107.717C200.646 111.024 201.97 119.09 202.234 123.721C202.277 124.516 202.354 125.61 202.448 126.874V126.9C202.448 126.9 203.02 121.286 202.824 115.928C202.627 110.571 202.824 105.615 202.824 105.615L201.09 104.623L202.081 103.137L199.554 93.7544Z" fill="#0246AF"/>
<path d="M204.907 114.297C203.729 112.519 202.089 109.896 200.63 107.008C200.638 107.273 200.647 107.503 200.647 107.708C200.647 109.734 201.142 113.536 201.586 117.245C201.867 119.603 202.132 121.91 202.235 123.713C202.235 123.747 202.235 123.79 202.243 123.824C202.286 124.61 202.363 125.653 202.448 126.866C202.9 132.959 203.788 143.016 203.788 143.016C206.529 142.358 209.235 137.855 209.235 137.855C209.235 137.855 206.256 131.737 205.223 123.824C205.009 122.209 204.881 120.526 204.873 118.808C204.89 118.142 204.907 117.484 204.915 116.843C204.924 115.98 204.924 115.125 204.907 114.297Z" fill="#0246AF"/>
<path d="M181.514 124.772C180.421 135.786 178.739 144.417 178.739 144.417C178.739 144.417 185.475 149.971 197.667 145.809C197.667 145.809 197.197 136.581 196.659 128.848C196.378 124.669 196.07 120.927 195.814 119.32C195.089 114.757 190.137 104.17 187.806 100.222C185.535 96.4028 185.877 92.9678 185.936 92.532C185.936 92.5064 185.945 92.4893 185.945 92.4893C185.945 92.4893 185.936 92.4893 185.919 92.5064C185.919 92.5064 185.911 92.5063 185.911 92.5149C185.39 92.8652 179.013 97.3086 176.17 104.538C176.17 108.007 182.607 113.766 181.514 124.772Z" fill="#0246AF"/>
<path d="M188.882 107.956L190.734 108.349L189.471 111.024L196.668 128.84C196.386 124.662 196.079 120.919 195.823 119.312C195.097 114.749 190.145 104.162 187.815 100.215C185.544 96.395 185.885 92.96 185.945 92.5242L185.928 92.4985L185.919 92.4814C185.919 92.4814 185.919 92.49 185.919 92.5071C185.877 92.9087 185.45 98.5312 188.882 107.956Z" fill="#0246AF"/>
<path d="M179.166 100.249C179.166 100.249 186.389 97.7962 191.085 122.585L200.322 118.372L202.627 123.935C202.627 123.935 192.579 132.958 189.48 132.788C186.389 132.617 181.924 124.208 180.268 120.85C178.62 117.492 172.447 103.966 179.166 100.249Z" fill="#0246AF"/>
<path d="M197.599 118.21C197.599 118.21 192.408 116.988 190.265 118.612L191.273 123.867C191.273 123.867 196.164 122.466 197.949 122.662L197.599 118.21Z" fill="#D5E0FC"/>
<path d="M200.629 117.364C200.629 117.364 201.594 113.921 202.627 114.245C203.652 114.57 206.495 116.621 205.786 117.364C205.077 118.116 203.268 120.816 203.268 120.816L200.322 118.689L200.629 117.364Z" fill="#D5E0FC"/>
<path d="M196.839 117.809L197.266 123.337C197.266 123.337 199.366 123.713 202.235 123.833C203.165 123.875 204.173 123.884 205.223 123.841C208.117 123.739 211.276 123.26 213.751 121.961C218.345 119.543 212.599 111.34 210.482 106.487C206.939 98.9841 203.097 95.5063 200.587 93.9341C202.294 96.9419 204.693 103.111 204.915 114.297C205.889 115.766 206.563 116.663 206.563 116.663L204.932 116.86L201.603 117.253L196.839 117.809Z" fill="#0246AF"/>
<path d="M134.883 190.688C162.792 180.041 171.619 149.937 172.302 136.026C172.601 129.848 173.028 123.67 173.831 117.535C174.163 115.014 174.36 112.194 175.068 109.759C175.973 106.683 177.817 103.82 178.816 100.727C179.312 99.1889 180.199 97.8645 181.326 96.7024C182.223 95.7795 183.76 95.583 184.989 95.8137C186.295 96.0615 188.293 96.8049 187.516 94.4465C187.32 93.8655 187.277 93.0452 187.294 92.7803C187.405 90.9346 188.105 91.2422 188.276 90.3621C188.054 90.2766 187.798 90.1484 187.542 89.9434C184.511 90.7039 179.764 92.4043 176.161 96.1042C176.084 96.1811 176.016 96.2495 175.948 96.3264C174.565 97.7961 173.361 99.5735 172.507 101.718C168.128 112.75 167.094 129.831 155.501 146.083C143.898 162.344 147.51 180.528 134.883 190.688Z" fill="#0246AF"/>
<path d="M200.903 80.5612C200.903 80.5612 202.533 79.6811 202.815 77.9978C203.097 76.3144 202.465 74.4089 201.492 73.5117C201.492 73.5117 200.911 75.195 199.571 74.5798C198.23 73.9646 195.2 71.7173 190.888 72.4521C186.577 73.1785 184.502 75.2549 184.502 77.1604C184.502 77.1604 182.445 79.0488 182.607 80.5612C182.769 82.0737 185.245 91.1056 189.599 91.738C189.599 91.738 193.065 90.6784 193.97 88.2944C194.858 85.9018 200.903 80.5612 200.903 80.5612Z" fill="#2564F4"/>
<path d="M191.998 94.7031C193.501 95.7285 196.147 96.1045 197.658 95.9934C199.17 95.8823 199.742 93.5239 200.407 92.6865C201.073 91.8491 201.509 87.0298 201.492 84.4748C201.475 81.9199 200.911 80.5527 200.911 80.5527C200.911 80.5527 197.163 82.3643 194.414 81.9114C191.665 81.467 190.103 81.2961 189.992 82.3557C189.881 83.4238 190.939 89.26 190.717 90.4306C190.717 90.4306 190.197 89.9778 189.983 89.8154C189.983 89.8154 189.394 86.6196 187.226 87.457C185.057 88.2944 187.866 91.6098 189.599 91.7209C189.591 91.738 190.496 93.6692 191.998 94.7031Z" fill="#D5E0FC"/>
<path d="M151.061 238.257C152.965 239.359 152.973 241.136 151.078 242.239L123.733 258.141C121.846 259.243 118.773 259.243 116.869 258.141L89.3441 242.23C87.4488 241.136 87.4317 239.351 89.327 238.248L116.672 222.346C118.559 221.244 121.633 221.244 123.536 222.346L151.061 238.257Z" fill="url(#paint16_linear_84_1210)"/>
<path d="M120.309 254.108C119.746 254.108 119.379 253.979 119.302 253.937L95.5848 240.231L119.114 226.55C119.191 226.508 119.549 226.379 120.104 226.379C120.668 226.379 121.035 226.508 121.112 226.55L144.829 240.256L121.3 253.937C121.223 253.979 120.864 254.108 120.309 254.108Z" fill="#2564F4"/>
<path d="M95.5763 197.865V240.171L119.293 253.877C119.379 253.92 119.737 254.048 120.301 254.048C120.856 254.048 121.214 253.92 121.291 253.877L144.82 240.197V197.865H95.5763Z" fill="url(#paint17_linear_84_1210)" style="mix-blend-mode:screen"/>
<path d="M120.309 249.51C119.02 249.51 117.739 249.228 116.758 248.656L89.233 232.745C88.2341 232.164 87.6792 231.387 87.6792 230.541C87.6792 229.703 88.2256 228.926 89.2074 228.345L116.553 212.443C118.508 211.306 121.692 211.306 123.656 212.443L151.181 228.353C152.179 228.934 152.734 229.712 152.734 230.558C152.734 231.395 152.188 232.173 151.206 232.754L123.861 248.656C122.879 249.22 121.598 249.51 120.309 249.51ZM120.104 212.075C118.909 212.075 117.705 212.34 116.8 212.87L89.455 228.772C88.6183 229.259 88.1658 229.883 88.1658 230.549C88.1658 231.216 88.6354 231.848 89.4721 232.335L116.997 248.246C118.824 249.305 121.795 249.305 123.613 248.246L150.959 232.344C151.795 231.857 152.248 231.233 152.248 230.566C152.248 229.9 151.778 229.268 150.941 228.781L123.417 212.87C122.503 212.34 121.3 212.075 120.104 212.075Z" fill="white"/>
<path d="M120.309 239.812C119.02 239.812 117.739 239.53 116.758 238.958L89.233 223.047C88.2341 222.466 87.6792 221.688 87.6792 220.843C87.6792 220.005 88.2256 219.228 89.2074 218.647L116.553 202.744C118.508 201.608 121.692 201.608 123.656 202.744L151.181 218.655C152.179 219.236 152.734 220.014 152.734 220.86C152.734 221.697 152.188 222.475 151.206 223.056L123.861 238.958C122.879 239.53 121.598 239.812 120.309 239.812ZM120.104 202.377C118.909 202.377 117.705 202.642 116.8 203.172L89.455 219.074C88.6183 219.561 88.1658 220.185 88.1658 220.851C88.1658 221.518 88.6354 222.15 89.4721 222.637L116.997 238.548C118.824 239.607 121.795 239.607 123.613 238.548L150.959 222.646C151.795 222.158 152.248 221.535 152.248 220.868C152.248 220.202 151.778 219.569 150.941 219.082L123.417 203.172C122.503 202.642 121.3 202.377 120.104 202.377Z" fill="white"/>
<path d="M152.495 240.239C152.495 240.957 152.026 241.675 151.086 242.23L123.741 258.132C121.854 259.235 118.781 259.235 116.877 258.132L89.3524 242.222C88.4047 241.675 87.9266 240.957 87.9266 240.231V242.094C87.9266 242.812 88.4047 243.538 89.3524 244.085L116.877 259.995C118.781 261.098 121.846 261.089 123.741 259.995L151.086 244.093C152.034 243.546 152.504 242.829 152.495 242.102V240.239Z" fill="url(#paint18_linear_84_1210)"/>
<path d="M110.644 215.484C116.492 212.16 125.952 212.246 131.766 215.681C137.588 219.116 137.563 224.602 131.723 227.926C125.875 231.25 116.415 231.164 110.593 227.729C104.779 224.303 104.796 218.817 110.644 215.484Z" fill="#2564F4"/>
<path d="M135.463 224.379C135.335 224.619 135.19 224.849 135.028 225.089C134.908 225.26 134.772 225.439 134.626 225.61C134.498 225.755 134.37 225.9 134.234 226.046C134.106 226.174 133.969 226.311 133.833 226.439C133.704 226.558 133.568 226.669 133.431 226.78C133.303 226.883 133.167 226.994 133.03 227.097C132.893 227.199 132.757 227.293 132.612 227.396C132.475 227.49 132.338 227.575 132.193 227.669C132.048 227.755 131.903 227.849 131.749 227.934C131.741 227.943 131.732 227.943 131.724 227.951C131.587 228.028 131.442 228.105 131.305 228.182C131.152 228.259 130.998 228.336 130.844 228.413C130.691 228.489 130.537 228.558 130.375 228.635C130.213 228.703 130.059 228.771 129.897 228.84C129.735 228.908 129.564 228.977 129.393 229.036C129.222 229.096 129.052 229.165 128.881 229.216C128.702 229.276 128.522 229.335 128.343 229.387C128.164 229.446 127.976 229.498 127.797 229.549C127.609 229.6 127.421 229.652 127.233 229.694C127.045 229.737 126.857 229.788 126.661 229.831C126.473 229.874 126.285 229.908 126.098 229.951C125.91 229.985 125.722 230.019 125.534 230.053C125.355 230.087 125.167 230.113 124.988 230.139C124.808 230.164 124.621 230.19 124.441 230.216C124.262 230.241 124.074 230.258 123.895 230.275C123.707 230.292 123.519 230.31 123.331 230.327C123.127 230.344 122.922 230.352 122.708 230.369C122.469 230.378 122.23 230.386 121.991 230.395C121.633 230.404 121.283 230.404 120.924 230.395C120.429 230.386 119.934 230.361 119.447 230.327C119.054 230.301 118.67 230.258 118.286 230.216C118.03 230.181 117.774 230.147 117.518 230.113C117.304 230.079 117.091 230.045 116.877 230.002C116.672 229.968 116.467 229.925 116.263 229.882C116.058 229.84 115.861 229.797 115.665 229.746C115.46 229.694 115.255 229.643 115.059 229.592C114.854 229.54 114.657 229.481 114.453 229.421C114.248 229.361 114.043 229.293 113.846 229.224C113.65 229.156 113.454 229.088 113.257 229.019C113.07 228.951 112.873 228.874 112.694 228.797C112.515 228.72 112.335 228.643 112.156 228.566C111.985 228.489 111.815 228.413 111.644 228.327C111.482 228.25 111.319 228.165 111.166 228.079C111.012 227.994 110.858 227.908 110.705 227.823C110.671 227.806 110.636 227.78 110.602 227.763C110.491 227.695 110.38 227.626 110.269 227.558C110.133 227.473 109.996 227.379 109.859 227.293C109.723 227.199 109.595 227.114 109.475 227.02C109.347 226.926 109.228 226.832 109.108 226.738C108.989 226.644 108.869 226.541 108.758 226.447C108.647 226.345 108.536 226.251 108.425 226.148C108.314 226.046 108.203 225.935 108.101 225.823C107.998 225.712 107.896 225.601 107.802 225.49C107.699 225.371 107.597 225.251 107.503 225.123C107.409 224.995 107.315 224.866 107.23 224.738C107.136 224.602 107.051 224.456 106.974 224.311C106.88 224.149 106.803 223.986 106.726 223.815C106.641 223.627 106.564 223.431 106.504 223.243C106.427 222.995 106.359 222.747 106.316 222.5C106.265 222.183 106.24 221.867 106.24 221.56L106.197 225.242C106.197 225.559 106.223 225.875 106.274 226.182C106.316 226.43 106.376 226.678 106.462 226.926C106.521 227.122 106.598 227.31 106.684 227.498C106.76 227.661 106.837 227.823 106.931 227.994C107.008 228.139 107.093 228.276 107.187 228.421C107.273 228.549 107.367 228.677 107.46 228.806C107.554 228.925 107.648 229.053 107.759 229.173C107.853 229.284 107.956 229.395 108.058 229.506C108.161 229.617 108.271 229.72 108.382 229.831C108.485 229.934 108.596 230.036 108.715 230.13C108.826 230.233 108.946 230.327 109.065 230.421C109.185 230.515 109.305 230.609 109.433 230.703C109.561 230.797 109.689 230.891 109.817 230.976C109.953 231.07 110.09 231.155 110.227 231.241C110.338 231.309 110.449 231.378 110.56 231.446C110.594 231.463 110.628 231.489 110.662 231.506C110.816 231.591 110.969 231.677 111.123 231.762C111.277 231.848 111.439 231.924 111.601 232.01C111.772 232.095 111.943 232.172 112.113 232.249C112.293 232.326 112.472 232.403 112.651 232.48C112.839 232.557 113.027 232.634 113.215 232.702C113.411 232.77 113.607 232.847 113.804 232.907C114 232.976 114.205 233.035 114.41 233.104C114.606 233.163 114.811 233.223 115.016 233.275C115.221 233.326 115.417 233.377 115.622 233.428C115.819 233.48 116.023 233.522 116.22 233.565C116.425 233.608 116.63 233.651 116.835 233.685C117.048 233.727 117.261 233.762 117.475 233.796C117.731 233.839 117.987 233.873 118.243 233.898C118.627 233.941 119.02 233.984 119.404 234.009C119.891 234.044 120.386 234.069 120.881 234.078C121.24 234.086 121.59 234.086 121.948 234.078C122.187 234.069 122.427 234.061 122.666 234.052C122.87 234.044 123.075 234.027 123.289 234.009C123.477 233.992 123.664 233.975 123.852 233.958C124.032 233.941 124.219 233.924 124.399 233.898C124.587 233.873 124.766 233.856 124.945 233.821C125.124 233.796 125.312 233.77 125.491 233.736C125.679 233.702 125.867 233.668 126.055 233.633C126.243 233.599 126.431 233.557 126.618 233.514C126.806 233.471 126.994 233.428 127.19 233.377C127.378 233.334 127.566 233.283 127.754 233.232C127.942 233.181 128.121 233.129 128.3 233.07C128.48 233.01 128.659 232.958 128.838 232.899C129.009 232.839 129.18 232.779 129.35 232.719C129.521 232.659 129.683 232.591 129.854 232.523C130.016 232.454 130.179 232.386 130.332 232.318C130.494 232.249 130.648 232.172 130.802 232.095C130.955 232.018 131.109 231.942 131.263 231.865C131.408 231.788 131.544 231.711 131.681 231.634C131.69 231.625 131.698 231.625 131.707 231.617C131.86 231.531 132.006 231.446 132.151 231.352C132.296 231.267 132.432 231.173 132.569 231.079C132.714 230.985 132.851 230.882 132.987 230.779C133.124 230.677 133.261 230.574 133.389 230.463C133.525 230.352 133.662 230.233 133.79 230.122C133.926 229.993 134.063 229.865 134.191 229.728C134.328 229.583 134.464 229.438 134.584 229.293C134.729 229.122 134.857 228.951 134.985 228.771C135.147 228.541 135.292 228.301 135.42 228.062C135.847 227.259 136.069 226.422 136.078 225.584L136.121 221.901C136.112 222.739 135.89 223.576 135.463 224.379Z" fill="#0246AF"/>
<path d="M113.454 226.114C117.705 228.626 124.612 228.695 128.881 226.26C133.149 223.833 133.166 219.825 128.915 217.313C124.663 214.801 117.756 214.733 113.488 217.168C109.219 219.595 109.202 223.602 113.454 226.114Z" fill="#2564F4"/>
<path d="M112.831 216.775C117.466 214.135 124.962 214.211 129.572 216.937C134.183 219.663 134.166 224.004 129.538 226.644C124.902 229.285 117.407 229.208 112.796 226.482C108.186 223.765 108.195 219.415 112.831 216.775ZM128.915 217.313C124.663 214.801 117.757 214.733 113.488 217.168C109.219 219.595 109.202 223.602 113.454 226.114C117.705 228.627 124.612 228.695 128.881 226.26C133.15 223.824 133.167 219.825 128.915 217.313Z" fill="white"/>
<path d="M122.939 221.406C124.006 222.44 125.056 223.687 123.178 224.781C121.641 225.67 119.473 225.781 117.236 224.721L115.972 225.456L114.649 224.696L115.895 223.969C114.564 223.055 114.043 222.115 114.051 221.235L116.613 220.987C116.587 221.594 116.852 222.312 117.629 222.953L119.806 221.688C118.738 220.654 117.705 219.449 119.584 218.355C120.975 217.544 123.28 217.501 125.346 218.467L126.627 217.723L127.95 218.484L126.636 219.244C127.643 219.962 128.155 220.765 128.232 221.585L125.705 221.782C125.654 221.227 125.346 220.714 124.877 220.261L122.939 221.406ZM118.96 223.722C119.78 224.038 120.523 224.004 120.95 223.756C121.402 223.491 121.206 223.106 120.804 222.645L118.96 223.722ZM121.957 220.449L123.639 219.466C122.93 219.15 122.239 219.15 121.769 219.424C121.376 219.663 121.547 220.013 121.957 220.449Z" fill="white"/>
<path d="M107.545 209.589C113.393 206.265 122.853 206.35 128.667 209.785C134.489 213.22 134.464 218.706 128.624 222.03C122.776 225.354 113.316 225.269 107.494 221.834C101.68 218.399 101.697 212.913 107.545 209.589Z" fill="#2564F4"/>
<path d="M132.364 218.476C132.236 218.715 132.091 218.946 131.929 219.185C131.809 219.356 131.673 219.535 131.527 219.706C131.399 219.851 131.271 219.997 131.135 220.142C131.007 220.27 130.87 220.407 130.733 220.535C130.605 220.655 130.469 220.766 130.332 220.877C130.204 220.979 130.067 221.09 129.931 221.193C129.794 221.295 129.658 221.389 129.513 221.492C129.376 221.586 129.239 221.671 129.094 221.765C128.949 221.851 128.804 221.945 128.65 222.03C128.642 222.039 128.633 222.039 128.625 222.047C128.488 222.124 128.343 222.201 128.206 222.278C128.053 222.355 127.899 222.432 127.745 222.509C127.592 222.586 127.438 222.654 127.276 222.731C127.114 222.799 126.96 222.868 126.798 222.936C126.635 223.004 126.465 223.073 126.294 223.133C126.123 223.192 125.952 223.261 125.782 223.312C125.602 223.372 125.423 223.432 125.244 223.483C125.065 223.543 124.877 223.594 124.697 223.645C124.51 223.697 124.322 223.748 124.134 223.79C123.946 223.833 123.758 223.884 123.562 223.927C123.374 223.97 123.186 224.004 122.999 224.047C122.811 224.081 122.623 224.115 122.435 224.149C122.256 224.184 122.068 224.209 121.889 224.235C121.709 224.26 121.522 224.286 121.342 224.312C121.163 224.337 120.975 224.354 120.796 224.372C120.608 224.389 120.42 224.406 120.232 224.423C120.027 224.44 119.823 224.448 119.609 224.466C119.37 224.474 119.131 224.483 118.892 224.491C118.533 224.5 118.183 224.5 117.825 224.491C117.33 224.483 116.834 224.457 116.348 224.423C115.955 224.397 115.571 224.354 115.187 224.312C114.931 224.278 114.675 224.243 114.418 224.209C114.205 224.175 113.992 224.141 113.778 224.098C113.573 224.064 113.368 224.021 113.163 223.978C112.959 223.936 112.762 223.893 112.566 223.842C112.361 223.79 112.156 223.739 111.96 223.688C111.755 223.637 111.558 223.577 111.353 223.517C111.149 223.457 110.944 223.389 110.747 223.321C110.551 223.252 110.355 223.184 110.158 223.115C109.97 223.047 109.774 222.97 109.595 222.893C109.415 222.816 109.236 222.739 109.057 222.663C108.886 222.586 108.715 222.509 108.545 222.423C108.382 222.346 108.22 222.261 108.067 222.176C107.913 222.09 107.759 222.005 107.606 221.919C107.571 221.902 107.537 221.876 107.503 221.859C107.392 221.791 107.281 221.723 107.17 221.654C107.034 221.569 106.897 221.475 106.76 221.389C106.624 221.295 106.496 221.21 106.376 221.116C106.248 221.022 106.129 220.928 106.009 220.834C105.89 220.74 105.77 220.637 105.659 220.543C105.548 220.441 105.437 220.347 105.326 220.244C105.215 220.142 105.104 220.031 105.002 219.92C104.899 219.809 104.797 219.697 104.703 219.586C104.6 219.467 104.498 219.347 104.404 219.219C104.31 219.091 104.216 218.963 104.131 218.834C104.037 218.698 103.952 218.552 103.875 218.407C103.781 218.245 103.704 218.083 103.627 217.912C103.542 217.724 103.465 217.527 103.405 217.339C103.328 217.091 103.26 216.843 103.217 216.596C103.166 216.28 103.14 215.963 103.14 215.656L103.098 219.339C103.098 219.655 103.123 219.971 103.175 220.279C103.217 220.526 103.277 220.774 103.362 221.022C103.422 221.218 103.499 221.406 103.584 221.594C103.661 221.757 103.738 221.919 103.832 222.09C103.909 222.235 103.994 222.372 104.088 222.517C104.173 222.645 104.267 222.774 104.361 222.902C104.455 223.021 104.549 223.15 104.66 223.269C104.754 223.38 104.856 223.491 104.959 223.602C105.061 223.714 105.172 223.816 105.283 223.927C105.386 224.03 105.497 224.132 105.616 224.226C105.727 224.329 105.847 224.423 105.966 224.517C106.086 224.611 106.205 224.705 106.333 224.799C106.462 224.893 106.59 224.987 106.718 225.072C106.854 225.166 106.991 225.252 107.127 225.337C107.238 225.405 107.349 225.474 107.46 225.542C107.495 225.559 107.529 225.585 107.563 225.602C107.717 225.687 107.87 225.773 108.024 225.858C108.178 225.944 108.34 226.021 108.502 226.106C108.673 226.192 108.843 226.269 109.014 226.345C109.193 226.422 109.373 226.499 109.552 226.576C109.74 226.653 109.928 226.73 110.116 226.798C110.312 226.867 110.508 226.944 110.705 227.003C110.901 227.072 111.106 227.132 111.311 227.2C111.507 227.26 111.712 227.32 111.917 227.371C112.122 227.422 112.318 227.473 112.523 227.525C112.719 227.576 112.924 227.619 113.121 227.661C113.326 227.704 113.531 227.747 113.735 227.781C113.949 227.824 114.162 227.858 114.376 227.892C114.632 227.935 114.888 227.969 115.144 227.995C115.528 228.037 115.921 228.08 116.305 228.106C116.792 228.14 117.287 228.165 117.782 228.174C118.141 228.183 118.491 228.183 118.849 228.174C119.088 228.165 119.327 228.157 119.566 228.148C119.771 228.14 119.976 228.123 120.19 228.106C120.378 228.089 120.565 228.071 120.753 228.054C120.932 228.037 121.12 228.02 121.3 227.995C121.487 227.969 121.667 227.952 121.846 227.918C122.025 227.892 122.213 227.866 122.392 227.832C122.58 227.798 122.768 227.764 122.956 227.73C123.144 227.696 123.331 227.653 123.519 227.61C123.707 227.567 123.895 227.525 124.091 227.473C124.279 227.431 124.467 227.379 124.655 227.328C124.843 227.277 125.022 227.226 125.201 227.166C125.38 227.106 125.56 227.055 125.739 226.995C125.91 226.935 126.081 226.875 126.251 226.815C126.422 226.756 126.584 226.687 126.755 226.619C126.917 226.55 127.079 226.482 127.233 226.414C127.395 226.345 127.549 226.268 127.703 226.192C127.856 226.115 128.01 226.038 128.164 225.961C128.309 225.884 128.445 225.807 128.582 225.73C128.591 225.722 128.599 225.722 128.608 225.713C128.761 225.628 128.906 225.542 129.052 225.448C129.197 225.363 129.333 225.269 129.47 225.175C129.615 225.081 129.752 224.978 129.888 224.876C130.025 224.773 130.161 224.671 130.289 224.56C130.426 224.448 130.563 224.329 130.691 224.218C130.827 224.09 130.964 223.961 131.092 223.825C131.229 223.679 131.365 223.534 131.485 223.389C131.63 223.218 131.758 223.047 131.886 222.868C132.048 222.637 132.193 222.398 132.321 222.158C132.748 221.355 132.97 220.518 132.979 219.68L133.021 215.998C133.013 216.835 132.791 217.672 132.364 218.476Z" fill="#0246AF"/>
<path d="M110.354 220.21C114.606 222.722 121.513 222.791 125.782 220.355C130.05 217.929 130.067 213.921 125.816 211.409C121.564 208.897 114.657 208.828 110.389 211.264C106.12 213.69 106.103 217.698 110.354 220.21Z" fill="#2564F4"/>
<path d="M109.731 210.879C114.367 208.239 121.863 208.315 126.473 211.041C131.084 213.767 131.066 218.108 126.439 220.748C121.803 223.389 114.307 223.312 109.697 220.586C105.087 217.86 105.096 213.511 109.731 210.879ZM125.816 211.409C121.564 208.897 114.658 208.828 110.389 211.263C106.12 213.69 106.103 217.698 110.355 220.21C114.606 222.722 121.513 222.791 125.782 220.355C130.05 217.928 130.068 213.921 125.816 211.409Z" fill="white"/>
<path d="M119.84 215.51C120.907 216.544 121.957 217.792 120.079 218.886C118.542 219.774 116.374 219.885 114.137 218.826L112.873 219.561L111.55 218.8L112.796 218.074C111.464 217.16 110.944 216.22 110.952 215.34L113.513 215.092C113.488 215.698 113.753 216.416 114.529 217.057L116.706 215.792C115.639 214.759 114.606 213.554 116.484 212.46C117.876 211.648 120.181 211.605 122.247 212.571L123.528 211.828L124.851 212.588L123.536 213.349C124.544 214.066 125.056 214.87 125.133 215.69L122.606 215.886C122.555 215.331 122.247 214.818 121.778 214.365L119.84 215.51ZM115.861 217.818C116.681 218.134 117.424 218.1 117.85 217.852C118.303 217.587 118.107 217.202 117.705 216.741L115.861 217.818ZM118.858 214.545L120.54 213.562C119.831 213.246 119.14 213.246 118.67 213.52C118.277 213.759 118.448 214.109 118.858 214.545Z" fill="white"/>
<path d="M110.379 203.684C116.227 200.36 125.687 200.446 131.501 203.881C137.323 207.316 137.298 212.801 131.458 216.125C125.61 219.449 116.15 219.364 110.328 215.929C104.505 212.494 104.531 207.008 110.379 203.684Z" fill="#2564F4"/>
<path d="M135.19 212.571C135.062 212.81 134.917 213.041 134.755 213.28C134.635 213.451 134.498 213.63 134.353 213.801C134.225 213.947 134.097 214.092 133.961 214.237C133.833 214.365 133.696 214.502 133.559 214.63C133.431 214.75 133.295 214.861 133.158 214.972C133.03 215.074 132.893 215.186 132.757 215.288C132.62 215.391 132.484 215.485 132.338 215.587C132.202 215.681 132.065 215.767 131.92 215.861C131.775 215.946 131.63 216.04 131.476 216.125C131.468 216.134 131.459 216.134 131.451 216.143C131.314 216.219 131.169 216.296 131.032 216.373C130.879 216.45 130.725 216.527 130.571 216.604C130.418 216.681 130.264 216.749 130.102 216.826C129.939 216.894 129.786 216.963 129.624 217.031C129.461 217.1 129.291 217.168 129.12 217.228C128.949 217.288 128.778 217.356 128.608 217.407C128.428 217.467 128.249 217.527 128.07 217.578C127.89 217.638 127.703 217.689 127.523 217.74C127.336 217.792 127.148 217.843 126.96 217.886C126.772 217.928 126.584 217.98 126.388 218.022C126.2 218.065 126.012 218.099 125.824 218.142C125.637 218.176 125.449 218.21 125.261 218.245C125.082 218.279 124.894 218.304 124.715 218.33C124.535 218.356 124.347 218.381 124.168 218.407C123.989 218.433 123.801 218.45 123.622 218.467C123.434 218.484 123.246 218.501 123.058 218.518C122.853 218.535 122.649 218.544 122.435 218.561C122.196 218.569 121.957 218.578 121.718 218.586C121.359 218.595 121.009 218.595 120.651 218.586C120.156 218.578 119.66 218.552 119.174 218.518C118.781 218.492 118.397 218.45 118.013 218.407C117.757 218.373 117.5 218.339 117.244 218.304C117.031 218.27 116.817 218.236 116.604 218.193C116.399 218.159 116.194 218.116 115.989 218.074C115.784 218.031 115.588 217.988 115.392 217.937C115.187 217.886 114.982 217.834 114.786 217.783C114.581 217.732 114.384 217.672 114.179 217.612C113.974 217.552 113.77 217.484 113.573 217.416C113.377 217.347 113.181 217.279 112.984 217.211C112.796 217.142 112.6 217.065 112.421 216.988C112.241 216.912 112.062 216.835 111.883 216.758C111.712 216.681 111.541 216.604 111.371 216.519C111.208 216.442 111.046 216.356 110.892 216.271C110.739 216.185 110.585 216.1 110.431 216.014C110.397 215.997 110.363 215.972 110.329 215.955C110.218 215.886 110.107 215.818 109.996 215.749C109.859 215.664 109.723 215.57 109.586 215.485C109.45 215.391 109.322 215.305 109.202 215.211C109.074 215.117 108.954 215.023 108.835 214.929C108.715 214.835 108.596 214.733 108.485 214.639C108.374 214.536 108.263 214.442 108.152 214.34C108.041 214.237 107.93 214.126 107.828 214.015C107.725 213.904 107.623 213.793 107.529 213.682C107.426 213.562 107.324 213.442 107.23 213.314C107.136 213.186 107.042 213.058 106.957 212.93C106.863 212.793 106.777 212.648 106.701 212.502C106.607 212.34 106.53 212.178 106.453 212.007C106.368 211.819 106.291 211.622 106.231 211.434C106.154 211.187 106.086 210.939 106.043 210.691C105.992 210.375 105.966 210.059 105.966 209.751L105.924 213.434C105.924 213.75 105.949 214.066 106.001 214.374C106.043 214.622 106.103 214.869 106.188 215.117C106.248 215.314 106.325 215.502 106.41 215.69C106.487 215.852 106.564 216.014 106.658 216.185C106.735 216.331 106.82 216.467 106.914 216.613C106.999 216.741 107.093 216.869 107.187 216.997C107.281 217.117 107.375 217.245 107.486 217.364C107.58 217.476 107.682 217.587 107.785 217.698C107.887 217.809 107.998 217.911 108.109 218.022C108.212 218.125 108.323 218.227 108.442 218.321C108.553 218.424 108.673 218.518 108.792 218.612C108.912 218.706 109.031 218.8 109.159 218.894C109.287 218.988 109.416 219.082 109.544 219.167C109.68 219.261 109.817 219.347 109.953 219.432C110.064 219.501 110.175 219.569 110.286 219.637C110.32 219.654 110.355 219.68 110.389 219.697C110.542 219.783 110.696 219.868 110.85 219.954C111.003 220.039 111.166 220.116 111.328 220.201C111.499 220.287 111.669 220.364 111.84 220.441C112.019 220.518 112.199 220.594 112.378 220.671C112.566 220.748 112.754 220.825 112.941 220.893C113.138 220.962 113.334 221.039 113.531 221.099C113.727 221.167 113.932 221.227 114.137 221.295C114.333 221.355 114.538 221.415 114.743 221.466C114.948 221.517 115.144 221.569 115.349 221.62C115.545 221.671 115.75 221.714 115.947 221.757C116.152 221.799 116.356 221.842 116.561 221.876C116.775 221.919 116.988 221.953 117.202 221.987C117.458 222.03 117.714 222.064 117.97 222.09C118.354 222.133 118.747 222.175 119.131 222.201C119.618 222.235 120.113 222.261 120.608 222.269C120.967 222.278 121.317 222.278 121.675 222.269C121.914 222.261 122.153 222.252 122.392 222.244C122.597 222.235 122.802 222.218 123.016 222.201C123.203 222.184 123.391 222.167 123.579 222.15C123.758 222.133 123.946 222.115 124.125 222.09C124.313 222.064 124.493 222.047 124.672 222.013C124.851 221.987 125.039 221.962 125.218 221.927C125.406 221.893 125.594 221.859 125.782 221.825C125.97 221.791 126.157 221.748 126.345 221.705C126.533 221.663 126.721 221.62 126.917 221.569C127.105 221.526 127.293 221.475 127.481 221.423C127.669 221.372 127.848 221.321 128.027 221.261C128.206 221.201 128.386 221.15 128.565 221.09C128.736 221.03 128.906 220.97 129.077 220.911C129.248 220.851 129.41 220.782 129.581 220.714C129.743 220.646 129.905 220.577 130.059 220.509C130.221 220.441 130.375 220.364 130.529 220.287C130.682 220.21 130.836 220.133 130.99 220.056C131.135 219.979 131.271 219.902 131.408 219.825C131.416 219.817 131.425 219.817 131.434 219.808C131.587 219.723 131.732 219.637 131.877 219.543C132.023 219.458 132.159 219.364 132.296 219.27C132.441 219.176 132.578 219.073 132.714 218.971C132.851 218.868 132.987 218.766 133.115 218.655C133.252 218.544 133.389 218.424 133.517 218.313C133.653 218.185 133.79 218.057 133.918 217.92C134.054 217.775 134.191 217.629 134.311 217.484C134.456 217.313 134.584 217.142 134.712 216.963C134.874 216.732 135.019 216.493 135.147 216.254C135.574 215.45 135.796 214.613 135.805 213.776L135.847 210.093C135.839 210.93 135.625 211.768 135.19 212.571Z" fill="#0246AF"/>
<path d="M113.181 214.305C117.432 216.817 124.339 216.886 128.608 214.45C132.876 212.024 132.893 208.016 128.642 205.504C124.39 202.992 117.483 202.923 113.215 205.359C108.946 207.794 108.938 211.793 113.181 214.305Z" fill="#2564F4"/>
<path d="M112.566 204.975C117.202 202.334 124.697 202.411 129.308 205.137C133.918 207.863 133.901 212.204 129.273 214.844C124.638 217.484 117.142 217.407 112.532 214.682C107.913 211.956 107.93 207.615 112.566 204.975ZM128.642 205.504C124.39 202.992 117.483 202.924 113.215 205.359C108.946 207.786 108.929 211.793 113.18 214.306C117.432 216.818 124.339 216.886 128.607 214.451C132.885 212.024 132.893 208.017 128.642 205.504Z" fill="white"/>
<path d="M122.666 209.606C123.733 210.64 124.783 211.887 122.905 212.981C121.368 213.87 119.199 213.981 116.963 212.921L115.699 213.656L114.376 212.895L115.622 212.169C114.29 211.255 113.77 210.315 113.778 209.435L116.339 209.187C116.314 209.794 116.578 210.511 117.355 211.152L119.532 209.888C118.465 208.854 117.432 207.649 119.31 206.555C120.702 205.743 123.007 205.701 125.073 206.666L126.354 205.923L127.677 206.683L126.362 207.444C127.37 208.162 127.882 208.965 127.959 209.785L125.432 209.982C125.381 209.426 125.073 208.914 124.604 208.461L122.666 209.606ZM118.687 211.921C119.507 212.238 120.25 212.203 120.676 211.956C121.129 211.691 120.933 211.306 120.531 210.845L118.687 211.921ZM121.692 208.64L123.374 207.657C122.666 207.341 121.974 207.341 121.505 207.615C121.103 207.854 121.274 208.213 121.692 208.64Z" fill="white"/>
</g>
<path d="M112.878 140.31C113.315 139.635 114.216 139.438 114.892 139.874C115.567 140.31 115.764 141.211 115.328 141.886C114.892 142.561 113.991 142.758 113.315 142.322C112.639 141.886 112.442 140.986 112.878 140.31Z" fill="white"/>
<path style="mix-blend-mode:screen" d="M114.103 151.987C108.085 151.987 103.206 147.112 103.206 141.098C103.206 135.084 108.085 130.209 114.103 130.209C120.121 130.209 125 135.084 125 141.098C125 147.112 120.121 151.987 114.103 151.987Z" fill="url(#paint19_radial_84_1210)"/>
</g>
<defs>
<filter id="filter0_d_84_1210" x="11.9999" y="52.5586" width="224.486" height="234.26" filterUnits="userSpaceOnUse" color-interpolation-filters="sRGB">
<feFlood flood-opacity="0" result="BackgroundImageFix"/>
<feColorMatrix in="SourceAlpha" type="matrix" values="0 0 0 0 0 0 0 0 0 0 0 0 0 0 0 0 0 0 127 0" result="hardAlpha"/>
<feOffset dx="6" dy="11"/>
<feGaussianBlur stdDeviation="7.5"/>
<feComposite in2="hardAlpha" operator="out"/>
<feColorMatrix type="matrix" values="0 0 0 0 0.059375 0 0 0 0 0.187324 0 0 0 0 0.395833 0 0 0 0.8 0"/>
<feBlend mode="normal" in2="BackgroundImageFix" result="effect1_dropShadow_84_1210"/>
<feBlend mode="normal" in="SourceGraphic" in2="effect1_dropShadow_84_1210" result="shape"/>
</filter>
<linearGradient id="paint0_linear_84_1210" x1="123.791" y1="129.596" x2="55.371" y2="129.596" gradientUnits="userSpaceOnUse">
<stop stop-color="white"/>
<stop offset="0.5522" stop-color="#FDFDFF"/>
<stop offset="0.7511" stop-color="#F6F8FF"/>
<stop offset="0.8924" stop-color="#EBEFFE"/>
<stop offset="1" stop-color="#DBE2FD"/>
</linearGradient>
<linearGradient id="paint1_linear_84_1210" x1="143.773" y1="117.375" x2="119.888" y2="139.59" gradientUnits="userSpaceOnUse">
<stop/>
<stop offset="0.6509" stop-color="#A6A6A6"/>
<stop offset="0.9946" stop-color="white"/>
</linearGradient>
<linearGradient id="paint2_linear_84_1210" x1="143.773" y1="117.375" x2="119.888" y2="139.59" gradientUnits="userSpaceOnUse">
<stop/>
<stop offset="0.6509" stop-color="#A6A6A6"/>
<stop offset="0.9946" stop-color="white"/>
</linearGradient>
<linearGradient id="paint3_linear_84_1210" x1="102.051" y1="163.084" x2="31.8798" y2="163.084" gradientUnits="userSpaceOnUse">
<stop/>
<stop offset="0.0608" stop-color="#171717"/>
<stop offset="0.2617" stop-color="#5C5C5C"/>
<stop offset="0.4518" stop-color="#969696"/>
<stop offset="0.6253" stop-color="#C3C3C3"/>
<stop offset="0.7791" stop-color="#E4E4E4"/>
<stop offset="0.9075" stop-color="#F8F8F8"/>
<stop offset="0.9946" stop-color="white"/>
</linearGradient>
<linearGradient id="paint4_linear_84_1210" x1="112.841" y1="55.2915" x2="114.818" y2="85.4024" gradientUnits="userSpaceOnUse">
<stop/>
<stop offset="0.9946" stop-color="white"/>
</linearGradient>
<radialGradient id="paint5_radial_84_1210" cx="0" cy="0" r="1" gradientUnits="userSpaceOnUse" gradientTransform="translate(111.247 90.5504) rotate(180) scale(9.24233 9.23585)">
<stop offset="0.00540541" stop-color="#15FBFF"/>
<stop offset="0.0107" stop-color="#14F2F6"/>
<stop offset="0.0398" stop-color="#10C5C8"/>
<stop offset="0.0726" stop-color="#0D9A9D"/>
<stop offset="0.1078" stop-color="#0A7577"/>
<stop offset="0.1461" stop-color="#075557"/>
<stop offset="0.1885" stop-color="#053A3B"/>
<stop offset="0.2363" stop-color="#032525"/>
<stop offset="0.2922" stop-color="#021414"/>
<stop offset="0.3612" stop-color="#010909"/>
<stop offset="0.4581" stop-color="#000202"/>
<stop offset="0.727"/>
</radialGradient>
<radialGradient id="paint6_radial_84_1210" cx="0" cy="0" r="1" gradientUnits="userSpaceOnUse" gradientTransform="translate(111.247 90.5501) rotate(180) scale(5.26627 5.26257)">
<stop offset="0.0127" stop-color="white"/>
<stop offset="1"/>
</radialGradient>
<linearGradient id="paint7_linear_84_1210" x1="105.204" y1="158.64" x2="29.6215" y2="158.64" gradientUnits="userSpaceOnUse">
<stop/>
<stop offset="1" stop-color="white"/>
</linearGradient>
<radialGradient id="paint8_radial_84_1210" cx="0" cy="0" r="1" gradientUnits="userSpaceOnUse" gradientTransform="translate(129.463 215.088) rotate(180) scale(10.893 10.8854)">
<stop offset="0.00540541" stop-color="#15FBFF"/>
<stop offset="0.0107" stop-color="#14F2F6"/>
<stop offset="0.0398" stop-color="#10C5C8"/>
<stop offset="0.0726" stop-color="#0D9A9D"/>
<stop offset="0.1078" stop-color="#0A7577"/>
<stop offset="0.1461" stop-color="#075557"/>
<stop offset="0.1885" stop-color="#053A3B"/>
<stop offset="0.2363" stop-color="#032525"/>
<stop offset="0.2922" stop-color="#021414"/>
<stop offset="0.3612" stop-color="#010909"/>
<stop offset="0.4581" stop-color="#000202"/>
<stop offset="0.727"/>
</radialGradient>
<radialGradient id="paint9_radial_84_1210" cx="0" cy="0" r="1" gradientUnits="userSpaceOnUse" gradientTransform="translate(129.463 215.089) rotate(180) scale(6.20677 6.20243)">
<stop offset="0.00540541" stop-color="#15FBFF"/>
<stop offset="0.0127" stop-color="#14F2F6"/>
<stop offset="0.0528" stop-color="#10C5C8"/>
<stop offset="0.098" stop-color="#0D9A9D"/>
<stop offset="0.1465" stop-color="#0A7577"/>
<stop offset="0.1994" stop-color="#075557"/>
<stop offset="0.2578" stop-color="#053A3B"/>
<stop offset="0.3237" stop-color="#032525"/>
<stop offset="0.4007" stop-color="#021414"/>
<stop offset="0.4958" stop-color="#010909"/>
<stop offset="0.6294" stop-color="#000202"/>
<stop offset="1"/>
</radialGradient>
<radialGradient id="paint10_radial_84_1210" cx="0" cy="0" r="1" gradientUnits="userSpaceOnUse" gradientTransform="translate(29.1049 150.098) rotate(180) scale(8.10141 8.09573)">
<stop stop-color="white"/>
<stop offset="0.727"/>
</radialGradient>
<linearGradient id="paint11_linear_84_1210" x1="54.6698" y1="80.8426" x2="18.7613" y2="120.178" gradientUnits="userSpaceOnUse">
<stop offset="0.00540541" stop-color="white"/>
<stop offset="1"/>
</linearGradient>
<radialGradient id="paint12_radial_84_1210" cx="0" cy="0" r="1" gradientUnits="userSpaceOnUse" gradientTransform="translate(62.5297 81.4672) rotate(180) scale(7.67963 7.67425)">
<stop offset="0.00540541" stop-color="white"/>
<stop offset="0.0127" stop-color="#14F2F6"/>
<stop offset="0.0128" stop-color="white"/>
<stop offset="1"/>
</radialGradient>
<linearGradient id="paint13_linear_84_1210" x1="204.049" y1="119.503" x2="184.095" y2="119.503" gradientUnits="userSpaceOnUse">
<stop stop-color="white"/>
<stop offset="0.5522" stop-color="#FDFDFF"/>
<stop offset="0.7511" stop-color="#F6F8FF"/>
<stop offset="0.8924" stop-color="#EBEFFE"/>
<stop offset="1" stop-color="#DBE2FD"/>
</linearGradient>
<linearGradient id="paint14_linear_84_1210" x1="194.411" y1="96.9998" x2="185.633" y2="96.9998" gradientUnits="userSpaceOnUse">
<stop stop-color="white"/>
<stop offset="0.5522" stop-color="#FDFDFF"/>
<stop offset="0.7511" stop-color="#F6F8FF"/>
<stop offset="0.8924" stop-color="#EBEFFE"/>
<stop offset="1" stop-color="#DBE2FD"/>
</linearGradient>
<linearGradient id="paint15_linear_84_1210" x1="200.36" y1="97.6211" x2="194.411" y2="97.6211" gradientUnits="userSpaceOnUse">
<stop stop-color="white"/>
<stop offset="0.5522" stop-color="#FDFDFF"/>
<stop offset="0.7511" stop-color="#F6F8FF"/>
<stop offset="0.8924" stop-color="#EBEFFE"/>
<stop offset="1" stop-color="#DBE2FD"/>
</linearGradient>
<linearGradient id="paint16_linear_84_1210" x1="120.206" y1="258.961" x2="120.206" y2="221.523" gradientUnits="userSpaceOnUse">
<stop stop-color="white"/>
<stop offset="0.4982" stop-color="#FCFDFF"/>
<stop offset="0.7974" stop-color="#F4F7FF"/>
<stop offset="1" stop-color="#E9EEFF"/>
</linearGradient>
<linearGradient id="paint17_linear_84_1210" x1="120.2" y1="254.046" x2="121.5" y2="200" gradientUnits="userSpaceOnUse">
<stop stop-color="#DBE2FD"/>
<stop offset="0.692708" stop-color="#2564F4" stop-opacity="0"/>
</linearGradient>
<linearGradient id="paint18_linear_84_1210" x1="87.9172" y1="250.534" x2="152.494" y2="250.534" gradientUnits="userSpaceOnUse">
<stop offset="0.2043" stop-color="#E0E6FD"/>
<stop offset="0.5236" stop-color="white"/>
<stop offset="0.7261" stop-color="#FCFDFF"/>
<stop offset="0.8479" stop-color="#F4F6FE"/>
<stop offset="0.9481" stop-color="#E6EBFE"/>
<stop offset="1" stop-color="#DBE2FD"/>
</linearGradient>
<radialGradient id="paint19_radial_84_1210" cx="0" cy="0" r="1" gradientUnits="userSpaceOnUse" gradientTransform="translate(114.105 141.098) rotate(180) scale(10.8936 10.8859)">
<stop stop-color="white"/>
<stop offset="0.727"/>
</radialGradient>
<clipPath id="clip0_84_1210">
<rect width="251" height="276" fill="white"/>
</clipPath>
</defs>
</svg>
