<svg width="33" height="25" viewBox="0 0 33 25" fill="none" xmlns="http://www.w3.org/2000/svg">
<path d="M26.7083 15.4166V3.74992C26.7083 2.14575 25.3958 0.833252 23.7917 0.833252H3.375C1.77083 0.833252 0.458332 2.14575 0.458332 3.74992V15.4166C0.458332 17.0208 1.77083 18.3333 3.375 18.3333H23.7917C25.3958 18.3333 26.7083 17.0208 26.7083 15.4166ZM13.5833 13.9583C11.1625 13.9583 9.20833 12.0041 9.20833 9.58325C9.20833 7.16242 11.1625 5.20825 13.5833 5.20825C16.0042 5.20825 17.9583 7.16242 17.9583 9.58325C17.9583 12.0041 16.0042 13.9583 13.5833 13.9583ZM32.5417 5.20825V21.2499C32.5417 22.8541 31.2292 24.1666 29.625 24.1666H4.83333V21.2499H29.625V5.20825H32.5417Z" fill="#919191"/>
</svg>
