<svg width="40" height="40" viewBox="0 0 40 40" fill="none" xmlns="http://www.w3.org/2000/svg">
<path d="M20.0781 35.625C11.4883 35.625 4.49609 28.6367 4.49609 20.0469C4.49609 11.457 11.4844 4.46875 20.0781 4.46875C28.668 4.46875 35.6563 11.457 35.6563 20.0469C35.6563 28.6367 28.668 35.625 20.0781 35.625ZM20.0781 8.22266C13.5586 8.22266 8.25391 13.5273 8.25391 20.0469C8.25391 26.5664 13.5586 31.8711 20.0781 31.8711C26.5977 31.8711 31.9023 26.5664 31.9023 20.0469C31.9023 13.5273 26.5977 8.22266 20.0781 8.22266Z" fill="white"/>
<path d="M25.9531 18.7109C26.9453 18.7109 27.7617 17.8984 27.7617 16.9023C27.7617 15.9102 26.9492 15.0938 25.9531 15.0938H14.2031C13.2109 15.0938 12.3945 15.9063 12.3945 16.9023C12.3945 17.8945 13.207 18.7109 14.2031 18.7109H25.9531V18.7109Z" fill="#5577FD"/>
<path d="M19.582 14.0781C20.2852 13.375 20.2852 12.2266 19.582 11.5234C18.8789 10.8203 17.7305 10.8203 17.0273 11.5234L12.9219 15.625C12.2188 16.3281 12.2188 17.4766 12.9219 18.1797C13.625 18.8828 14.7734 18.8828 15.4766 18.1797L19.582 14.0781V14.0781Z" fill="#5577FD"/>
<path d="M14.2031 21.3828C13.2109 21.3828 12.3945 22.1953 12.3945 23.1914C12.3945 24.1836 13.207 25 14.2031 25H25.9531C26.9453 25 27.7617 24.1875 27.7617 23.1914C27.7617 22.1992 26.9492 21.3828 25.9531 21.3828H14.2031Z" fill="#5577FD"/>
<path d="M20.5742 26.0156C19.8711 26.7188 19.8711 27.8672 20.5742 28.5703C21.2773 29.2734 22.4258 29.2734 23.1289 28.5703L27.2344 24.4648C27.9375 23.7617 27.9375 22.6133 27.2344 21.9102C26.5313 21.207 25.3828 21.207 24.6797 21.9102L20.5742 26.0156Z" fill="#5577FD"/>
</svg>
