<svg width="25" height="25" viewBox="0 0 25 25" fill="none" xmlns="http://www.w3.org/2000/svg">
<path d="M24.85 12.5C24.85 12.8377 24.8371 13.1688 24.8048 13.5C24.566 16.539 23.2299 19.2857 21.2032 21.3312C18.9505 23.5974 15.8459 25 12.425 25C11.502 25 10.6048 24.8961 9.74636 24.7013C9.13964 24.5714 8.55873 24.3961 7.99073 24.1753C3.33055 22.3701 0 17.8052 0 12.5C0 9.06493 1.40064 5.93506 3.64682 3.66883C5.89945 1.4026 9.00409 0 12.425 0C15.8459 0 18.9505 1.4026 21.2032 3.66883C22.6103 5.09091 23.6882 6.85065 24.2949 8.81169C24.5595 9.67532 24.7338 10.5714 24.8048 11.5C24.8113 11.5649 24.8177 11.6364 24.8177 11.7013C24.8435 11.9675 24.85 12.2273 24.85 12.5Z" fill="url(#paint0_linear_1445_1604)"/>
<path d="M24.85 12.4999C24.85 12.8376 24.8371 13.1688 24.8048 13.5C24.566 16.5389 23.2299 19.2857 21.2032 21.3311C18.9505 23.5974 15.8459 25 12.425 25C11.502 25 10.6048 24.8961 9.74635 24.7013L5.23462 19.948L10.7791 13.474L5.31853 5.48047H10.0497L14.1032 9.58437L17.608 5.48047H19.5702L24.6112 10.909C24.6886 11.1688 24.7596 11.435 24.8177 11.7012C24.8435 11.9675 24.85 12.2272 24.85 12.4999Z" fill="#161616"/>
<path d="M19.9315 19.9479H15.2003L11.6503 14.7466L7.20315 19.9479H5.24097L10.779 13.4738L5.32488 5.48682H10.0561L13.4124 10.4024L17.6143 5.48682H19.5765L14.2838 11.6751L19.938 19.9479H19.9315ZM15.5101 19.3569H18.8213L13.5415 11.6297L18.2985 6.06474H17.879L13.3543 11.3569L9.73979 6.06474H6.4286L11.5148 13.5063L6.51251 19.3569H6.93206L11.702 13.779L15.5101 19.3569ZM18.305 19.0842H15.7619L6.93206 6.38292H9.47515L18.305 19.0842ZM16.0652 18.4998H17.1819L9.17178 6.97383H8.05515L16.0652 18.4998Z" fill="white"/>
<defs>
<linearGradient id="paint0_linear_1445_1604" x1="1.67173" y1="6.25325" x2="23.2428" y2="18.6343" gradientUnits="userSpaceOnUse">
<stop stop-color="#646464"/>
<stop offset="0.72" stop-color="#1D1D1D"/>
<stop offset="1"/>
</linearGradient>
</defs>
</svg>
