<svg width="25" height="25" viewBox="0 0 25 25" fill="none" xmlns="http://www.w3.org/2000/svg">
<g clip-path="url(#clip0_1445_1610)">
<path d="M24.85 12.5C24.85 14.9723 24.1213 17.389 22.756 19.4446C21.3907 21.5002 19.4502 23.1024 17.1798 24.0485C14.9095 24.9946 12.4112 25.2421 10.001 24.7598C7.5908 24.2775 5.37687 23.087 3.6392 21.3388C1.90154 19.5907 0.71817 17.3634 0.238748 14.9386C-0.240673 12.5139 0.00538357 10.0005 0.945802 7.71646C1.88622 5.43238 3.47877 3.48015 5.52205 2.10663C7.56533 0.733113 9.96757 4.94366e-07 12.425 4.94366e-07C14.0568 -0.000461256 15.6727 0.322546 17.1804 0.950566C18.6881 1.57859 20.058 2.49931 21.2118 3.66014C22.3657 4.82096 23.2809 6.19913 23.9051 7.71591C24.5294 9.23269 24.8505 10.8583 24.85 12.5Z" fill="url(#paint0_linear_1445_1610)"/>
<path d="M10.1468 18.2287C9.74309 18.2287 9.81545 18.0725 9.67048 17.6869L8.49023 13.7706L15.821 9.1665L16.6803 9.39569L15.9659 11.3537L10.1468 18.2287Z" fill="#C8DAEA"/>
<path d="M10.1472 18.2291C10.2674 18.2267 10.3854 18.1974 10.4929 18.1434C10.6004 18.0893 10.6945 18.0118 10.7685 17.9166C11.0378 17.6563 14.4959 14.2709 14.4959 14.2709L12.3735 13.75L10.4062 14.9999L10.1472 18.1249V18.2291Z" fill="#A9C9DD"/>
<path d="M10.3542 15.0417L15.3646 18.7604C15.934 19.073 16.3482 18.9166 16.4932 18.2292L18.5335 8.56261C18.7406 7.7189 18.2126 7.34386 17.6637 7.59389L5.69481 12.2397C4.87687 12.5731 4.8871 13.0314 5.54983 13.2292L8.62496 14.198L15.7389 9.68747C16.0702 9.47911 16.3809 9.59384 16.1324 9.82277L10.3542 15.0417Z" fill="url(#paint1_linear_1445_1610)"/>
</g>
<defs>
<linearGradient id="paint0_linear_1445_1610" x1="-70.748" y1="55.725" x2="-71.8023" y2="53.2796" gradientUnits="userSpaceOnUse">
<stop stop-color="#37AEE2"/>
<stop offset="1" stop-color="#1E96C8"/>
</linearGradient>
<linearGradient id="paint1_linear_1445_1610" x1="13.3498" y1="12.3156" x2="15.3184" y2="7.8781" gradientUnits="userSpaceOnUse">
<stop stop-color="#EFF7FC"/>
<stop offset="1" stop-color="white"/>
</linearGradient>
<clipPath id="clip0_1445_1610">
<rect width="24.85" height="25" fill="white"/>
</clipPath>
</defs>
</svg>
