<svg width="20" height="18" viewBox="0 0 20 18" fill="none" xmlns="http://www.w3.org/2000/svg">
<path fill-rule="evenodd" clip-rule="evenodd" d="M15.3201 16.9826C15.5884 17.1726 15.9343 17.2201 16.2426 17.1035C16.5509 16.986 16.7776 16.7226 16.8459 16.4035C17.5701 13.0001 19.3268 4.38596 19.9859 1.29012C20.0359 1.05679 19.9526 0.81429 19.7693 0.658457C19.5859 0.502624 19.3318 0.457623 19.1051 0.54179C15.6109 1.83512 4.85009 5.87262 0.451754 7.50012C0.172587 7.60346 -0.00907926 7.87179 8.74041e-05 8.16596C0.0100874 8.46096 0.208421 8.71679 0.494254 8.80262C2.46675 9.39262 5.05592 10.2135 5.05592 10.2135C5.05592 10.2135 6.26592 13.8676 6.89675 15.726C6.97592 15.9593 7.15842 16.1426 7.39925 16.206C7.63925 16.2685 7.89592 16.2026 8.07509 16.0335C9.08842 15.0768 10.6551 13.5976 10.6551 13.5976C10.6551 13.5976 13.6318 15.7801 15.3201 16.9826ZM6.14509 9.75179L7.54425 14.3668L7.85509 11.4443C7.85509 11.4443 13.2609 6.56846 16.3426 3.78929C16.4326 3.70762 16.4451 3.57096 16.3701 3.47512C16.2959 3.37929 16.1593 3.35679 16.0568 3.42179C12.4851 5.70262 6.14509 9.75179 6.14509 9.75179Z" fill="#93A1B8"/>
</svg>
