<svg width="244" height="269" viewBox="0 0 244 269" fill="none" xmlns="http://www.w3.org/2000/svg">
<g clip-path="url(#clip0_84_1021)">
<g filter="url(#filter0_d_84_1021)">
<path d="M133.246 213.925L133.602 218.956L133.229 222.87L126.457 222.22L122.631 220.063L125.552 214.983L127.37 212.718L133.246 213.925Z" fill="#D5E0FC"/>
<path d="M133.835 220.571C134.25 220.272 134.822 220.513 134.897 221.021C135.096 222.529 135.395 225.194 135.129 226.534L135.08 227.126C134.955 228.5 133.743 229.508 132.382 229.374L131.428 229.283C130.764 229.216 130.125 229.024 129.544 228.7C127.121 227.351 120.307 223.611 117.56 222.57C116.946 222.337 116.398 221.996 115.9 221.562C114.414 220.255 111.642 217.59 111.792 216.016C111.792 216.016 111.684 215.25 111.792 214.367C111.974 212.818 113.526 211.81 115.037 212.21L125.577 214.991C125.577 214.991 123.585 218.464 125.519 219.689C125.519 219.689 132.158 222.57 132.54 221.537L133.835 220.571Z" fill="#97B2F8"/>
<path d="M141.545 185.976C141.537 185.968 141.561 185.984 141.586 186.009C141.57 186.001 141.561 185.993 141.545 185.976Z" fill="#0246AF"/>
<path d="M141.644 186.059C141.627 186.05 141.611 186.034 141.586 186.009C141.611 186.034 141.636 186.05 141.644 186.059Z" fill="#0246AF"/>
<path d="M127.179 173.809C127.162 173.9 127.154 174 127.137 174.092C127.121 174.217 127.096 174.35 127.079 174.5C126.357 180.063 127.129 187.55 126.739 195.145C126.564 198.518 126.465 201.9 126.357 205.281C126.299 207.03 126.249 208.779 126.191 210.527C126.141 212.185 125.718 214.15 126.299 215.724C126.365 215.899 126.44 216.074 126.573 216.207C126.706 216.341 126.888 216.416 127.071 216.482C127.494 216.649 127.926 216.815 128.349 216.982C128.689 217.115 129.046 217.248 129.411 217.265C129.776 217.273 130.125 217.165 130.473 217.057C131.129 216.849 131.818 216.624 132.324 216.157C132.889 215.649 133.171 214.9 133.42 214.184C134.266 211.718 134.623 209.503 134.822 206.946C134.988 204.789 135.088 202.591 135.461 200.45C135.943 197.71 136.723 194.762 137.329 191.922C137.644 187.075 137.752 183.294 137.627 181.895C137.769 182.012 138.208 182.636 138.823 183.386C139.644 184.327 140.549 185.193 141.528 185.959C141.918 186.268 142.308 186.567 142.707 186.867C149.089 191.656 156.417 195.312 161.065 197.394C162.509 198.027 163.281 193.163 165.555 196.02C167.663 183.769 136.233 176.84 127.179 173.809Z" fill="#0246AF"/>
<path d="M141.545 185.976C141.536 185.968 141.561 185.984 141.586 186.009C141.569 186.001 141.561 185.993 141.545 185.976Z" fill="#0246AF"/>
<path d="M141.644 186.059C141.627 186.05 141.611 186.034 141.586 186.009C141.611 186.034 141.636 186.05 141.644 186.059Z" fill="#0246AF"/>
<path d="M127.179 173.809C127.162 173.9 127.154 174 127.137 174.092C127.121 174.217 127.096 174.35 127.079 174.5C126.357 180.063 136.731 194.771 137.329 191.931C137.644 187.084 137.752 183.303 137.628 181.904C137.769 182.02 138.208 182.645 138.823 183.394C139.644 184.335 140.549 185.202 141.528 185.968C141.918 186.276 142.308 186.576 142.707 186.876C149.089 191.664 156.417 195.32 161.065 197.402C162.509 198.035 163.281 193.172 165.555 196.028C167.663 183.769 136.233 176.84 127.179 173.809Z" fill="#0246AF"/>
<path d="M130.648 209.62L177.431 182.52L200.827 196.07L154.044 223.178L130.648 209.62Z" fill="url(#paint0_linear_84_1021)"/>
<path d="M130.648 209.62V236.728L154.044 250.278V223.178L130.648 209.62Z" fill="#A8B8F4"/>
<path d="M200.827 196.07V223.178L154.044 250.278V223.178L200.827 196.07Z" fill="#BECAF7"/>
<g opacity="0.3">
<path opacity="0.3" d="M125.104 13.7413C127.444 12.3838 129.353 13.4748 129.361 16.1815L129.61 104.335C129.619 107.042 127.718 110.331 125.378 111.689L48.9244 155.978C46.5757 157.336 44.6752 156.245 44.6669 153.538L44.4179 65.3843C44.4096 62.6777 46.3018 59.388 48.6505 58.0305L125.104 13.7413Z" fill="#2564F4"/>
</g>
<path d="M119.718 222.029L120.083 227.059L119.709 230.973L112.937 230.315L109.111 228.158L112.032 223.087L113.85 220.813L119.718 222.029Z" fill="#D5E0FC"/>
<path d="M120.315 228.667C120.73 228.367 121.303 228.608 121.377 229.116C121.577 230.624 121.875 233.289 121.61 234.63L121.56 235.221C121.436 236.595 120.224 237.603 118.863 237.469L117.908 237.378C117.244 237.311 116.605 237.12 116.024 236.795C113.601 235.446 106.787 231.706 104.032 230.665C103.418 230.432 102.87 230.091 102.372 229.658C100.886 228.35 98.1145 225.685 98.2639 224.111C98.2639 224.111 98.156 223.345 98.2639 222.462C98.4465 220.913 99.9984 219.905 101.509 220.305L112.049 223.087C112.049 223.087 110.057 226.56 111.991 227.784C111.991 227.784 118.63 230.665 119.012 229.633L120.315 228.667Z" fill="#97B2F8"/>
<path d="M162.509 195.479C158.907 193.338 120.946 170.952 116.431 175.591C112.489 179.638 113.825 191.573 113.227 203.249C112.813 211.336 112.613 219.031 112.489 221.671C112.447 222.562 113.045 223.353 113.908 223.561L117.875 223.869C118.821 224.094 119.776 223.561 120.066 222.629C120.938 219.897 120.846 214.85 121.95 208.562C123.079 202.166 125.834 194.663 124.124 190.015C124.382 190.224 125.61 192.106 127.087 193.322C132.648 197.911 137.652 200.967 143.213 203.141C143.263 203.157 143.379 203.249 143.545 203.374C145.371 204.806 147.446 205.897 149.662 206.588C150.483 206.847 151.429 207.163 152.442 207.555C155.023 208.537 157.695 208.021 159.687 206.547L173.24 198.568C176.958 196.378 179.249 192.372 179.249 188.042V185.535L162.509 195.479Z" fill="#0246AF"/>
<path d="M191.432 142.329L191.449 139.022L190.735 140.263C190.395 139.763 189.946 139.314 189.366 138.981L145.197 113.388C141.661 111.339 137.312 111.339 133.777 113.388L33.5624 171.452C32.9067 171.835 32.4088 172.352 32.0685 172.935L31.4875 171.819V175.508L31.5124 175.525C31.6452 176.766 32.3258 177.956 33.5624 178.673L78.2625 204.573C81.8146 206.63 86.1884 206.622 89.7322 204.548L189.39 146.201C190.635 145.468 191.316 144.252 191.424 142.986H191.432V142.911C191.44 142.712 191.44 142.52 191.432 142.329Z" fill="url(#paint1_linear_84_1021)"/>
<path d="M133.777 109.757L33.5624 167.821C30.7904 169.428 30.7904 173.434 33.5624 175.041L78.2625 200.942C81.8146 202.999 86.1884 202.991 89.7322 200.917L189.39 142.57C192.146 140.954 192.137 136.957 189.374 135.358L145.205 109.765C141.669 107.716 137.312 107.716 133.777 109.757Z" fill="white"/>
<path d="M137.345 140.13L88.0889 168.671C86.7278 169.462 86.7278 171.427 88.0889 172.218L102.837 180.988C104.58 181.996 106.729 181.996 108.472 180.971L157.455 152.289C158.807 151.498 158.807 149.532 157.446 148.741L142.956 140.122C141.229 139.122 139.088 139.122 137.345 140.13Z" fill="#2564F4"/>
<path d="M88.089 170.486L137.345 141.945C139.08 140.938 141.221 140.938 142.956 141.945L157.446 150.565C157.82 150.782 158.085 151.09 158.251 151.431C158.7 150.515 158.434 149.324 157.446 148.749L142.956 140.13C141.221 139.122 139.08 139.122 137.345 140.13L88.089 168.67C87.1013 169.245 86.8358 170.436 87.2839 171.352C87.4499 171.002 87.7155 170.703 88.089 170.486Z" fill="#0246AF"/>
<path d="M134.914 121.141L55.6468 167.812C55.2733 168.029 55.2733 168.562 55.6468 168.778L59.6637 171.169C60.1367 171.443 60.726 171.443 61.199 171.169L140.383 124.456C140.748 124.239 140.748 123.706 140.383 123.49L136.432 121.141C135.968 120.866 135.387 120.866 134.914 121.141Z" fill="#2564F4"/>
<path d="M55.6469 168.778L56.3607 169.203L134.905 122.948C135.378 122.674 135.959 122.674 136.432 122.948L139.661 124.872L140.383 124.447C140.748 124.231 140.748 123.698 140.383 123.481L136.432 121.133C135.959 120.858 135.378 120.858 134.905 121.133L55.6469 167.812C55.2818 168.029 55.2818 168.562 55.6469 168.778Z" fill="#0246AF"/>
<path d="M168.584 141.954L156.724 150.149L158.575 130.219H168.584V141.954Z" fill="#D5E0FC"/>
<path d="M170.493 119.451C168.061 118.968 165.762 118.518 163.331 118.035C155.421 114.054 154.865 117.518 155.073 121.608C155.139 122.84 154.749 124.048 153.994 125.022L152.458 126.988C151.786 127.696 153.114 128.02 153.554 128.212C151.936 131.985 153.38 134.008 155.977 135.224C162.094 138.089 169.348 134.849 171.63 128.478L173.489 123.298C174.186 121.391 172.734 119.276 170.493 119.451Z" fill="#D5E0FC"/>
<path d="M155.371 126.788C154.981 126.788 154.591 126.721 154.218 126.588C153.338 126.28 152.633 125.647 152.234 124.806C151.828 123.965 151.778 123.015 152.085 122.141C152.392 121.258 153.023 120.55 153.861 120.15C154.699 119.751 155.645 119.692 156.517 120C157.396 120.309 158.102 120.942 158.5 121.783C158.907 122.624 158.957 123.573 158.65 124.448C158.343 125.33 157.712 126.03 156.874 126.438C156.401 126.671 155.886 126.788 155.371 126.788ZM155.363 120.483C154.948 120.483 154.541 120.575 154.151 120.758C153.479 121.083 152.973 121.658 152.724 122.366C152.475 123.074 152.516 123.84 152.84 124.514C153.164 125.189 153.736 125.697 154.442 125.947C155.147 126.197 155.911 126.155 156.583 125.83C157.255 125.505 157.762 124.939 158.011 124.223C158.26 123.515 158.218 122.749 157.894 122.074C157.571 121.4 156.998 120.892 156.293 120.642C155.994 120.533 155.678 120.483 155.363 120.483ZM152.4 122.249H152.409H152.4Z" fill="#2564F4"/>
<path d="M166.75 125.031C166.742 125.031 166.725 125.031 166.717 125.031L158.467 124.206C158.285 124.19 158.143 124.023 158.16 123.831C158.177 123.648 158.351 123.507 158.533 123.523L166.783 124.348C166.966 124.364 167.107 124.531 167.09 124.723C167.065 124.897 166.916 125.031 166.75 125.031Z" fill="#2564F4"/>
<path d="M159.098 105.826C161.065 106.259 162.617 107.575 163.43 109.265C164.443 108.624 165.696 108.358 166.966 108.641C168.8 109.041 170.153 110.473 170.551 112.197C170.7 112.214 170.85 112.239 170.999 112.272C173.215 112.755 174.775 114.637 174.958 116.794C177.248 117.819 178.585 120.35 178.029 122.907C177.522 125.222 175.613 126.871 173.389 127.138C173.356 127.179 173.331 127.213 173.298 127.254C172.186 128.72 171.182 131.543 170.053 132.976C169.762 133.342 168.269 135.449 168.069 134.025C167.879 132.701 167.845 130.128 168.003 128.803C168.128 127.721 168.692 126.513 168.791 125.455C168.692 125.356 168.601 125.247 168.518 125.139C168.045 125.156 167.563 125.164 167.09 125.122C166.692 125.081 166.277 124.997 165.995 124.714C165.571 124.273 165.671 123.557 165.795 122.949C165.887 122.532 166.21 121.808 166.219 121.241C165.264 121.591 164.202 121.683 163.14 121.45C161.322 121.05 159.919 119.801 159.231 118.21C159.214 118.193 159.189 118.177 159.164 118.152C158.285 118.36 157.347 118.377 156.401 118.168C153.006 117.427 150.857 114.054 151.595 110.648C152.351 107.233 155.703 105.076 159.098 105.826Z" fill="#2564F4"/>
<path d="M163.737 152.314C162.252 154.821 159.239 155.962 156.475 155.079L146.657 151.931L141.644 149.549C141.478 149.491 141.312 149.466 141.146 149.432L136.997 147.15C136.441 146.851 135.76 147.025 135.486 147.542C135.212 148.058 135.437 148.724 135.993 149.016L137.951 150.09C137.943 150.09 137.943 150.099 137.935 150.099L133.677 148.208C133.096 147.958 132.44 148.191 132.208 148.724C131.976 149.257 132.258 149.899 132.839 150.157L135.378 151.281L131.295 150.199C130.689 150.04 130.067 150.373 129.926 150.94C129.785 151.506 130.158 152.097 130.772 152.256L136.308 153.73C136.316 153.813 136.325 153.896 136.341 153.98L131.876 153.163C131.254 153.055 130.664 153.438 130.565 154.013C130.465 154.587 130.888 155.145 131.511 155.254L137.727 156.395C138.109 156.719 138.549 156.986 139.038 157.161L139.063 157.169L137.354 158.285C136.822 158.627 136.648 159.31 136.972 159.801C137.287 160.292 137.976 160.409 138.507 160.067L141.835 157.894C141.852 157.885 141.86 157.86 141.885 157.852L143.769 158.302L164.783 166.438C166.434 167.03 168.211 165.93 168.41 164.182L171.032 141.571C171.232 139.888 166.708 147.3 163.737 152.314Z" fill="#D5E0FC"/>
<path d="M169.489 137.731L157.886 143.928C151.512 147.325 147.537 153.98 147.537 161.217L150.259 176.674C150.566 178.948 150.516 181.254 150.11 183.511L148.242 195.621C156.301 202.341 175.78 194.48 179.938 186.934L179.29 184.369C179.157 183.037 175.531 172.685 176.576 166.422L180.286 144.252C180.294 138.681 174.394 135.116 169.489 137.731Z" fill="#97B2F8"/>
<path d="M156.832 141.829C156.832 141.829 168.235 138.189 169.439 135.158L169.754 138.531L154.874 145.918L156.832 141.829Z" fill="white"/>
<g opacity="0.1">
<path opacity="0.1" d="M148.251 195.612C150.027 197.094 152.351 197.86 154.94 198.085C154.542 195.887 154.251 193.68 154.226 191.456C154.151 182.32 156.152 173.442 156.99 164.339C157.405 159.842 156.757 154.912 155.596 152.139C152.699 154.504 149.877 158.743 147.885 163.198L150.259 176.665C150.566 178.939 150.516 181.246 150.11 183.503L148.251 195.612Z" fill="url(#paint2_linear_84_1021)"/>
</g>
<path d="M152.998 150.173C151.089 150.332 149.603 151.914 149.379 153.821L147.545 169.686L133.719 165.256L132.05 161.683C131.785 161.108 131.137 160.842 130.606 161.092C130.083 161.341 129.868 162.008 130.133 162.582L130.789 163.981L128.175 162.741C128.158 162.732 128.141 162.716 128.125 162.699L121.909 159.293C121.353 158.993 120.672 159.168 120.398 159.684C120.124 160.2 120.357 160.867 120.904 161.158L124.407 163.082C124.357 163.115 124.315 163.149 124.274 163.182L119.112 160.892C118.531 160.642 117.875 160.875 117.643 161.408C117.41 161.941 117.693 162.582 118.274 162.84L122.905 164.898C122.888 164.939 122.871 164.989 122.846 165.039L118.879 163.981C118.274 163.823 117.651 164.156 117.51 164.723C117.369 165.289 117.742 165.88 118.357 166.039L122.664 167.188C122.68 167.254 122.697 167.329 122.714 167.396L119.743 166.855C119.12 166.746 118.531 167.129 118.431 167.704C118.332 168.279 118.755 168.837 119.377 168.945L124.598 169.903C124.83 170.044 125.079 170.169 125.345 170.269L130.083 171.402L151.097 179.538C152.749 180.13 154.525 179.03 154.724 177.282L157.347 154.671C157.646 152.172 155.62 149.957 152.998 150.173Z" fill="#D5E0FC"/>
<path d="M150.699 179.147L147.28 169.853L149.197 153.538C149.429 151.531 151.056 149.907 153.097 149.79C155.778 149.64 157.82 151.889 157.521 154.396L155.197 174.192L154.791 177.64C154.633 179.014 153.512 180.005 152.218 180.122C151.554 180.18 150.931 179.772 150.699 179.147Z" fill="#0246AF"/>
<path d="M57.1739 64.8264L133.353 20.4289C134.308 19.8709 135.503 20.5621 135.503 21.6698V114.895C135.503 116.411 134.698 117.802 133.395 118.56L57.2154 162.957C56.261 163.515 55.0659 162.824 55.0659 161.716V68.4908C55.0659 66.9834 55.871 65.5842 57.1739 64.8264Z" fill="#2564F4"/>
<path opacity="0.1" d="M126.656 86.3128C126.116 86.9624 125.577 87.6204 125.021 88.2783C121.61 92.3174 116.19 92.0343 110.472 91.3347C105.194 90.7018 99.2182 90.327 95.0769 94.0913C93.0104 95.9735 91.9065 98.4886 90.8442 100.92C90.504 101.695 90.1637 102.478 89.7985 103.227C89.1844 104.477 86.8523 108.549 83.5076 108.416C82.9018 108.391 82.2627 108.224 81.5905 108.049C81.134 107.933 80.6859 107.816 80.2211 107.733C75.7561 106.908 70.7682 109.124 66.8675 113.629C65.3155 115.428 64.0623 117.494 62.8589 119.492C60.643 123.165 58.5516 126.63 54.8086 128.212L55.8211 130.619C60.3442 128.712 62.751 124.714 65.0831 120.85C66.2368 118.943 67.4236 116.969 68.8344 115.345C72.121 111.539 76.2125 109.665 79.7563 110.306C80.1547 110.381 80.5448 110.481 80.9431 110.581C81.715 110.781 82.52 110.989 83.3997 111.023C86.761 111.172 90.0143 108.682 92.1306 104.385C92.5207 103.602 92.8776 102.786 93.2261 101.97C94.2221 99.6879 95.1599 97.5392 96.8197 96.0318C100.148 93.0004 105.443 93.3585 110.148 93.9331C115.02 94.5244 122.39 95.4155 126.996 89.9689C127.56 89.3026 128.108 88.6447 128.648 87.9868C130.756 85.4384 132.797 82.9899 135.221 80.9245V77.6016C131.868 80.0417 129.312 83.1065 126.656 86.3128Z" fill="white"/>
<path d="M57.0246 163.024V69.7982C57.0246 68.2908 57.8296 66.8917 59.1326 66.1338L135.312 21.7363C135.378 21.703 135.445 21.678 135.503 21.653C135.495 20.5537 134.308 19.8708 133.353 20.4288L57.1739 64.8263C55.871 65.5841 55.0659 66.9833 55.0659 68.4907V161.716C55.0659 162.749 56.1033 163.407 57.0163 163.04C57.0246 163.032 57.0246 163.032 57.0246 163.024Z" fill="#0246AF"/>
<path d="M53.4891 122.566L52.4766 122.807V120.159C56.2196 118.576 58.311 115.112 60.5269 111.439C61.7303 109.44 62.9835 107.375 64.5355 105.576C68.4362 101.062 73.424 98.8552 77.8891 99.6797C78.3455 99.763 78.802 99.8796 79.2585 99.9962C79.9307 100.171 80.5698 100.338 81.1756 100.363C84.5202 100.496 86.8523 96.4234 87.4665 95.1742C87.84 94.4246 88.1719 93.6501 88.5122 92.8673C89.5745 90.4354 90.67 87.9203 92.7449 86.0382C96.8862 82.2738 102.862 82.6403 108.14 83.2815C113.858 83.9811 119.269 84.2643 122.689 80.2251C123.245 79.5672 123.793 78.9092 124.324 78.2597C127.726 74.1539 130.947 70.2729 135.935 67.6163L137.155 67.3081V69.9232C132.615 72.3383 129.561 76.0277 126.324 79.9253C125.776 80.5832 125.228 81.2411 124.672 81.9074C120.066 87.354 112.696 86.4629 107.825 85.8716C103.119 85.297 97.824 84.9472 94.496 87.9703C92.8362 89.4777 91.8983 91.6347 90.9024 93.9083C90.5455 94.7244 90.1887 95.5406 89.8069 96.3235C87.6906 100.621 84.4372 103.111 81.076 102.961C80.1963 102.928 79.3913 102.719 78.6194 102.52C78.2294 102.42 77.831 102.311 77.4326 102.245C73.8888 101.604 69.8055 103.477 66.5107 107.283C65.0998 108.916 63.913 110.881 62.7594 112.788C60.419 116.661 58.0122 120.658 53.4891 122.566Z" fill="white"/>
<path d="M76.1296 104.135L72.6273 103.927L72.6854 96.6898C72.6854 96.6315 72.7352 96.5815 72.8016 96.5815L76.2956 96.7897L76.2375 104.044C76.2292 104.094 76.1794 104.135 76.1296 104.135Z" fill="#97B2F8"/>
<path d="M109.684 88.7281L106.182 88.5199C106.173 88.5199 106.173 88.5115 106.173 88.5115L106.082 81.2494C106.082 81.2077 106.115 81.1661 106.165 81.1744L109.692 81.3826L109.783 88.6448C109.775 88.6864 109.734 88.7281 109.684 88.7281Z" fill="#97B2F8"/>
<path d="M124.515 86.2465L121.012 86.0383C121.004 86.0383 121.004 86.03 121.004 86.03L120.913 78.7845C120.913 78.7345 120.954 78.6929 121.004 78.6929L124.515 78.9011L124.606 86.1632C124.606 86.2049 124.564 86.2465 124.515 86.2465Z" fill="#0246AF"/>
<path d="M92.6535 95.7987L89.1512 95.5905C89.1429 95.5905 89.1429 95.5822 89.1429 95.5739L89.0848 85.8549C89.0848 85.7883 89.1263 85.73 89.1761 85.73L92.6867 85.9382L92.7448 95.6738C92.7448 95.7404 92.7033 95.7987 92.6535 95.7987Z" fill="#0246AF"/>
<path d="M164.285 119.775C162.335 121.1 161.82 123.756 163.131 125.713C164.451 127.67 167.098 128.187 169.049 126.871C170.999 125.547 171.514 122.89 170.202 120.933C168.891 118.968 166.244 118.451 164.285 119.775Z" fill="white"/>
<path d="M166.468 120.658C165.123 121.566 164.766 123.398 165.679 124.747C166.584 126.096 168.41 126.455 169.754 125.538C171.099 124.631 171.456 122.798 170.543 121.449C169.63 120.1 167.804 119.75 166.468 120.658Z" fill="#97B2F8"/>
<path d="M164.667 108.091C164.169 107.808 163.538 107.983 163.256 108.483C162.974 108.982 163.148 109.615 163.646 109.898C163.712 109.94 170.252 113.796 167.712 122.649C167.555 123.198 167.87 123.773 168.418 123.94C168.518 123.965 168.609 123.981 168.708 123.981C169.157 123.981 169.572 123.681 169.704 123.232C172.692 112.821 164.75 108.141 164.667 108.091Z" fill="white"/>
</g>
</g>
<defs>
<filter id="filter0_d_84_1021" x="22.4834" y="6.15771" width="199.344" height="267.12" filterUnits="userSpaceOnUse" color-interpolation-filters="sRGB">
<feFlood flood-opacity="0" result="BackgroundImageFix"/>
<feColorMatrix in="SourceAlpha" type="matrix" values="0 0 0 0 0 0 0 0 0 0 0 0 0 0 0 0 0 0 127 0" result="hardAlpha"/>
<feOffset dx="6" dy="8"/>
<feGaussianBlur stdDeviation="7.5"/>
<feComposite in2="hardAlpha" operator="out"/>
<feColorMatrix type="matrix" values="0 0 0 0 0.015 0 0 0 0 0.161408 0 0 0 0 0.4 0 0 0 0.8 0"/>
<feBlend mode="normal" in2="BackgroundImageFix" result="effect1_dropShadow_84_1021"/>
<feBlend mode="normal" in="SourceGraphic" in2="effect1_dropShadow_84_1021" result="shape"/>
</filter>
<linearGradient id="paint0_linear_84_1021" x1="130.648" y1="202.847" x2="200.827" y2="202.847" gradientUnits="userSpaceOnUse">
<stop stop-color="#92A6F1"/>
<stop offset="1" stop-color="white"/>
</linearGradient>
<linearGradient id="paint1_linear_84_1021" x1="31.486" y1="158.983" x2="191.445" y2="158.983" gradientUnits="userSpaceOnUse">
<stop offset="0.2043" stop-color="#E0E6FD"/>
<stop offset="0.5236" stop-color="white"/>
<stop offset="0.7261" stop-color="#FCFDFF"/>
<stop offset="0.8479" stop-color="#F4F6FE"/>
<stop offset="0.9481" stop-color="#E6EBFE"/>
<stop offset="1" stop-color="#DBE2FD"/>
</linearGradient>
<linearGradient id="paint2_linear_84_1021" x1="147.889" y1="175.113" x2="157.117" y2="175.113" gradientUnits="userSpaceOnUse">
<stop stop-color="#0990FD"/>
<stop offset="1" stop-color="#4C40E7"/>
</linearGradient>
<clipPath id="clip0_84_1021">
<rect width="244" height="269" fill="white"/>
</clipPath>
</defs>
</svg>
