<svg width="20" height="18" viewBox="0 0 20 18" fill="none" xmlns="http://www.w3.org/2000/svg">
<path d="M20 2.79721C19.2642 3.12388 18.4733 3.34388 17.6433 3.44305C18.4908 2.93555 19.1417 2.13138 19.4475 1.17305C18.655 1.64305 17.7767 1.98471 16.8417 2.16888C16.0942 1.37138 15.0267 0.873047 13.8467 0.873047C11.1975 0.873047 9.25083 3.34471 9.84917 5.91055C6.44 5.73971 3.41667 4.10638 1.3925 1.62388C0.3175 3.46805 0.835 5.88055 2.66167 7.10221C1.99 7.08055 1.35667 6.89638 0.804167 6.58888C0.759167 8.48971 2.12167 10.268 4.095 10.6639C3.5175 10.8205 2.885 10.8572 2.24167 10.7339C2.76333 12.3639 4.27833 13.5497 6.075 13.583C4.35 14.9355 2.17667 15.5397 0 15.283C1.81583 16.4472 3.97333 17.1264 6.29 17.1264C13.9083 17.1264 18.2125 10.6922 17.9525 4.92138C18.7542 4.34221 19.45 3.61971 20 2.79721Z" fill="#93A1B8"/>
</svg>
