<svg width="36" height="36" viewBox="0 0 36 36" fill="none" xmlns="http://www.w3.org/2000/svg">
<path d="M30 33H6C5.60603 33 5.21593 32.9224 4.85195 32.7716C4.48797 32.6209 4.15726 32.3999 3.87868 32.1213C3.6001 31.8427 3.37913 31.512 3.22836 31.1481C3.0776 30.7841 3 30.394 3 30V6C3 5.60603 3.0776 5.21593 3.22836 4.85195C3.37913 4.48797 3.6001 4.15726 3.87868 3.87868C4.15726 3.6001 4.48797 3.37913 4.85195 3.22836C5.21593 3.0776 5.60603 3 6 3H27C27.394 3 27.7841 3.0776 28.1481 3.22836C28.512 3.37913 28.8427 3.6001 29.1213 3.87868C29.3999 4.15726 29.6209 4.48797 29.7716 4.85195C29.9224 5.21593 30 5.60603 30 6V8.25C30.394 8.25 30.7841 8.3276 31.1481 8.47836C31.512 8.62913 31.8427 8.8501 32.1213 9.12868C32.3999 9.40725 32.6209 9.73797 32.7716 10.1019C32.9224 10.4659 33 10.856 33 11.25V30C33 30.394 32.9224 30.7841 32.7716 31.1481C32.6209 31.512 32.3999 31.8427 32.1213 32.1213C31.8427 32.3999 31.512 32.6209 31.1481 32.7716C30.7841 32.9224 30.394 33 30 33ZM27.75 6C27.75 5.90151 27.7306 5.80398 27.6929 5.71299C27.6552 5.62199 27.6 5.53931 27.5303 5.46967C27.4607 5.40003 27.378 5.34478 27.287 5.30709C27.196 5.2694 27.0985 5.25 27 5.25H6C5.90151 5.25 5.80398 5.2694 5.71299 5.30709C5.62199 5.34478 5.53931 5.40003 5.46967 5.46967C5.40003 5.53931 5.34478 5.62199 5.30709 5.71299C5.2694 5.80398 5.25 5.90151 5.25 6V8.25H27.75V6ZM30.75 17.25H23.625C22.7299 17.25 21.8715 17.6056 21.2385 18.2385C20.6056 18.8714 20.25 19.7299 20.25 20.625C20.25 21.5201 20.6056 22.3785 21.2385 23.0115C21.8715 23.6444 22.7299 24 23.625 24H30.75V17.25ZM30.75 26.25H23.625C22.1332 26.25 20.7024 25.6574 19.6475 24.6025C18.5926 23.5476 18 22.1168 18 20.625C18 19.1332 18.5926 17.7024 19.6475 16.6475C20.7024 15.5926 22.1332 15 23.625 15H30.75V11.25C30.75 11.1515 30.7306 11.054 30.6929 10.963C30.6552 10.872 30.6 10.7893 30.5303 10.7197C30.4607 10.65 30.378 10.5948 30.287 10.5571C30.196 10.5194 30.0985 10.5 30 10.5H5.25V30C5.25 30.0985 5.2694 30.196 5.30709 30.287C5.34478 30.378 5.40003 30.4607 5.46967 30.5303C5.53931 30.6 5.62199 30.6552 5.71299 30.6929C5.80398 30.7306 5.90151 30.75 6 30.75H30C30.0985 30.75 30.196 30.7306 30.287 30.6929C30.378 30.6552 30.4607 30.6 30.5303 30.5303C30.6 30.4607 30.6552 30.378 30.6929 30.287C30.7306 30.196 30.75 30.0985 30.75 30V26.25Z" fill="white"/>
<path d="M23.25 20.625C23.25 21.1223 23.4475 21.5992 23.7992 21.9508C24.1508 22.3025 24.6277 22.5 25.125 22.5C25.6223 22.5 26.0992 22.3025 26.4508 21.9508C26.8025 21.5992 27 21.1223 27 20.625C27 20.1277 26.8025 19.6508 26.4508 19.2992C26.0992 18.9475 25.6223 18.75 25.125 18.75C24.6277 18.75 24.1508 18.9475 23.7992 19.2992C23.4475 19.6508 23.25 20.1277 23.25 20.625Z" fill="#5577FD"/>
</svg>
